<?xml version="1.0" encoding="utf-8"?>
<!-- Generator: Adobe Illustrator 24.1.2, SVG Export Plug-In . SVG Version: 6.00 Build 0)  -->
<svg version="1.1" xmlns="http://www.w3.org/2000/svg" xmlns:xlink="http://www.w3.org/1999/xlink" x="0px" y="0px"
	 viewBox="0 0 6369.6 2788.9" style="enable-background:new 0 0 6369.6 2788.9;" xml:space="preserve">
<style type="text/css">
	.st0{display:none;}
	.st1{display:inline;}
	.st2{fill:#FEA1C0;}
	.st3{fill:#FEE3D0;}
	.st4{fill:#FFF8F3;}
	.st5{fill:#FFC0D8;}
	.st6{display:inline;opacity:0.37;}
	.st7{fill:#CC487A;}
	.st8{opacity:0.66;fill:#7F221A;}
	.st9{fill:#FECC99;}
	.st10{fill:#F04624;}
	.st11{fill:#FCE1CA;}
	.st12{fill:#C08F52;}
	.st13{fill:#DAA369;}
	.st14{fill:#F4CC21;}
	.st15{fill:#F6E92D;}
	.st16{fill:#F9F6BD;}
	.st17{fill:url(#SVGID_1_);}
	.st18{fill:url(#SVGID_2_);}
	.st19{fill:url(#SVGID_3_);}
	.st20{fill:url(#SVGID_4_);}
</style>
<g id="Layer_1" class="st0">
	<g class="st1">
		<path class="st2" d="M623,2601.2V5773c0,577.7,1146.6,1046,2561.1,1046s2561.1-468.3,2561.1-1046V2601.2H623z"/>
		<path class="st3" d="M3184,5836.3c-1414.4,0-2561.1-468.3-2561.1-1046v461.2c0,577.7,1146.6,1046,2561.1,1046
			s2561.1-468.3,2561.1-1046v-461.2C5745.1,5367.9,4598.5,5836.3,3184,5836.3z"/>
		<path class="st3" d="M3184,4787.4c-1414.4,0-2561.1-468.3-2561.1-1046v461.2c0,577.7,1146.6,1046,2561.1,1046
			s2561.1-468.3,2561.1-1046v-461.2C5745.1,4319.1,4598.5,4787.4,3184,4787.4z"/>
		<g>
			<path class="st4" d="M3184,3546c-1372.9,0-2493.4-441.2-2558.1-995.4c-2,16.8-3,33.6-3,50.6c0,577.7,1146.6,1046,2561.1,1046
				s2561.1-468.3,2561.1-1046c0-17-1-33.8-3-50.6C5677.5,3104.7,4556.9,3546,3184,3546z"/>
			<ellipse class="st5" cx="3184" cy="2601.2" rx="2561.1" ry="1046"/>
		</g>
	</g>
	<g class="st6">
		<circle class="st7" cx="831.2" cy="5500.9" r="42.9"/>
		
			<ellipse transform="matrix(0.2286 -0.9735 0.9735 0.2286 -4123.543 5502.563)" class="st7" cx="1410.4" cy="5353.3" rx="104.7" ry="104.7"/>
		<path class="st7" d="M2073.3,5510.1c0,28.7-23.3,52-52,52c-28.7,0-52-23.3-52-52c0-28.7,23.3-52,52-52
			C2050.1,5458.1,2073.3,5481.3,2073.3,5510.1z"/>
		<circle class="st7" cx="2453" cy="5722.4" r="67.5"/>
		<circle class="st7" cx="1982" cy="5909.4" r="91.4"/>
		<circle class="st7" cx="3074.4" cy="6034.5" r="59"/>
		<circle class="st7" cx="3399.9" cy="5607.8" r="64"/>
		
			<ellipse transform="matrix(0.2558 -0.9667 0.9667 0.2558 -3058.2813 6733.959)" class="st7" cx="2844.5" cy="5353.3" rx="104.7" ry="104.7"/>
		<path class="st7" d="M2458.6,5044.7c0,35.7-29,64.7-64.7,64.7s-64.7-29-64.7-64.7s29-64.7,64.7-64.7S2458.6,5009,2458.6,5044.7z"
			/>
		<circle class="st7" cx="2334.9" cy="4760.7" r="50.6"/>
		<circle class="st7" cx="774.3" cy="4675.4" r="85.3"/>
		<path class="st7" d="M1085,5100.2c0,30.7-24.9,55.5-55.5,55.5c-30.7,0-55.5-24.9-55.5-55.5c0-30.7,24.9-55.5,55.5-55.5
			C1060.1,5044.7,1085,5069.6,1085,5100.2z"/>
		<circle class="st7" cx="651.5" cy="5137.8" r="37.5"/>
		<path class="st7" d="M1118.7,5901.6c0,30.7-24.9,55.5-55.5,55.5s-55.5-24.9-55.5-55.5c0-30.7,24.9-55.5,55.5-55.5
			S1118.7,5871,1118.7,5901.6z"/>
		<path class="st7" d="M2073.3,6415.5c0,34.9-28.3,63.3-63.3,63.3c-34.9,0-63.3-28.3-63.3-63.3c0-34.9,28.3-63.3,63.3-63.3
			C2045,6352.2,2073.3,6380.6,2073.3,6415.5z"/>
		<path class="st7" d="M1800.6,6116c0,24.8-20.1,45-45,45c-24.8,0-45-20.1-45-45c0-24.8,20.1-45,45-45
			C1780.4,6071,1800.6,6091.2,1800.6,6116z"/>
		<path class="st7" d="M1755.6,6460.5c0,24.8-20.1,45-45,45c-24.8,0-45-20.1-45-45s20.1-45,45-45
			C1735.5,6415.5,1755.6,6435.6,1755.6,6460.5z"/>
		<circle class="st7" cx="1522.2" cy="5730.8" r="59"/>
		
			<ellipse transform="matrix(0.9239 -0.3827 0.3827 0.9239 -1562.0497 1842.4949)" class="st7" cx="3850.4" cy="4847.7" rx="70.4" ry="70.4"/>
		<path class="st7" d="M3766.1,5096.7c0,28.7-23.3,52-52,52c-28.7,0-52-23.3-52-52c0-28.7,23.3-52,52-52
			C3742.8,5044.7,3766.1,5068,3766.1,5096.7z"/>
		<path class="st7" d="M3433.9,5197.8c0,27.1-22,49-49,49c-27.1,0-49-21.9-49-49s22-49,49-49
			C3412,5148.7,3433.9,5170.7,3433.9,5197.8z"/>
		<path class="st7" d="M3951.7,5521.3c0,34.9-28.3,63.3-63.3,63.3c-34.9,0-63.3-28.3-63.3-63.3c0-34.9,28.3-63.3,63.3-63.3
			C3923.4,5458.1,3951.7,5486.4,3951.7,5521.3z"/>
		<path class="st7" d="M4400.2,5547.3c0,20.6-16.7,37.3-37.3,37.3s-37.3-16.7-37.3-37.3c0-20.6,16.7-37.3,37.3-37.3
			S4400.2,5526.8,4400.2,5547.3z"/>
		<circle class="st7" cx="4161.2" cy="5299.2" r="26.7"/>
		<circle class="st7" cx="4013.6" cy="6009.2" r="61.9"/>
		<path class="st7" d="M3643.8,5928.3c0,10.5-8.5,19-19,19c-10.5,0-19-8.5-19-19c0-10.5,8.5-19,19-19
			C3635.3,5909.4,3643.8,5917.9,3643.8,5928.3z"/>
		<path class="st7" d="M3362.7,5891.7c0,30.7-24.9,55.6-55.6,55.6c-30.7,0-55.6-24.9-55.6-55.6s24.9-55.6,55.6-55.6
			C3337.8,5836.1,3362.7,5861,3362.7,5891.7z"/>
		<circle class="st7" cx="2519.7" cy="5942.4" r="33"/>
		<path class="st7" d="M2759.5,5774.4c0,24.1-19.5,43.6-43.6,43.6c-24.1,0-43.6-19.5-43.6-43.6c0-24.1,19.5-43.6,43.6-43.6
			C2739.9,5730.8,2759.5,5750.3,2759.5,5774.4z"/>
		<circle class="st7" cx="2652.6" cy="6293.2" r="59"/>
		<circle class="st7" cx="3192.5" cy="6326.9" r="59"/>
		<path class="st7" d="M3787.2,6197.6c0,20.2-16.4,36.6-36.6,36.6c-20.2,0-36.6-16.4-36.6-36.6c0-20.2,16.4-36.6,36.6-36.6
			C3770.8,6161,3787.2,6177.4,3787.2,6197.6z"/>
		<circle class="st7" cx="3688.8" cy="6569.5" r="64"/>
		<path class="st7" d="M3399.9,6537.5c0,17.7-14.3,32-32,32c-17.7,0-32-14.3-32-32s14.3-32,32-32
			C3385.5,6505.5,3399.9,6519.8,3399.9,6537.5z"/>
		<path class="st7" d="M2976.1,6571.3c0,18.7-15.1,33.8-33.8,33.8c-18.7,0-33.8-15.1-33.8-33.8c0-18.7,15.1-33.8,33.8-33.8
			C2961,6537.5,2976.1,6552.6,2976.1,6571.3z"/>
		<circle class="st7" cx="2410.8" cy="6563.1" r="75.9"/>
		
			<ellipse transform="matrix(0.2298 -0.9732 0.9732 0.2298 -2933.9441 9222.2266)" class="st7" cx="4359.4" cy="6464.7" rx="112.5" ry="112.5"/>
		<circle class="st7" cx="4874" cy="6085.1" r="109.7"/>
		<path class="st7" d="M5196.6,5833.1c0,32.4-26.3,58.7-58.7,58.7c-32.4,0-58.7-26.3-58.7-58.7c0-32.4,26.3-58.7,58.7-58.7
			C5170.3,5774.4,5196.6,5800.7,5196.6,5833.1z"/>
		<path class="st7" d="M5441.3,5564.6c0,23.9-19.4,43.2-43.2,43.2c-23.9,0-43.2-19.4-43.2-43.2s19.4-43.2,43.2-43.2
			C5421.9,5521.3,5441.3,5540.7,5441.3,5564.6z"/>
		
			<ellipse transform="matrix(0.9239 -0.3827 0.3827 0.9239 -1769.8737 2591.959)" class="st7" cx="5630.4" cy="5744.9" rx="73.1" ry="73.1"/>
		
			<ellipse transform="matrix(0.1602 -0.9871 0.9871 0.1602 -268.7297 9610.3232)" class="st7" cx="5513.4" cy="4963.1" rx="115.4" ry="115.4"/>
		<path class="st7" d="M4745.4,6342.7c0,27.4-22.2,49.6-49.6,49.6c-27.4,0-49.6-22.2-49.6-49.6c0-27.4,22.2-49.6,49.6-49.6
			C4723.2,6293.2,4745.4,6315.4,4745.4,6342.7z"/>
		
			<ellipse transform="matrix(0.7071 -0.7071 0.7071 0.7071 -2384.208 5128.2227)" class="st7" cx="4998.2" cy="5442.1" rx="68" ry="68"/>
		<path class="st7" d="M4519.8,5704.9c0,18.3-14.8,33.1-33.1,33.1c-18.3,0-33.1-14.8-33.1-33.1s14.8-33.1,33.1-33.1
			C4505,5671.8,4519.8,5686.6,4519.8,5704.9z"/>
		<circle class="st7" cx="4353.8" cy="5982.5" r="73.1"/>
		<path class="st7" d="M5491.1,4524.6c0,25.7-20.8,46.5-46.5,46.5s-46.5-20.8-46.5-46.5c0-25.7,20.8-46.5,46.5-46.5
			S5491.1,4498.9,5491.1,4524.6z"/>
	</g>
</g>
<g id="Слой_2">
	<g>
		<g>
			<ellipse class="st8" cx="2073.3" cy="1744.6" rx="162.2" ry="34.7"/>
			<path class="st9" d="M2207.7,1320.4v420.4c0,12-49.2,22-113.5,23.8c-6.8,0.2-13.7,0.3-20.8,0.3c-37.1,0-70.7-2.7-95-7
				c-22-4-36.5-9.3-39-15.2v0c-0.3-0.6-0.4-1.2-0.4-1.8v-420.4H2207.7z"/>
			<g>
				<path class="st10" d="M2195.6,1320.4c-22.5,17.6-50.5,33.4-82.7,45.7c-61.5,23.3-125,28.7-173.9,18.1v-33.5
					c46.9,7.2,104.8,0.9,161-20.4c8-3.1,15.8-6.3,23.3-9.8H2195.6z"/>
				<path class="st10" d="M2207.7,1359.8v48.4c-24.2,21.7-56.5,41.2-94.8,55.8c-61.5,23.3-125,28.7-173.9,18.1v-33.5
					c46.9,7.2,104.8,0.9,161-20.4C2145.6,1410.9,2182.7,1386.5,2207.7,1359.8z"/>
				<path class="st10" d="M2207.7,1457.8v48.4c-24.2,21.7-56.5,41.2-94.8,55.8c-61.5,23.3-125,28.7-173.9,18.1v-33.5
					c46.9,7.2,104.8,0.9,161-20.4C2145.6,1508.9,2182.7,1484.5,2207.7,1457.8z"/>
				<path class="st10" d="M2207.7,1555.8v48.4c-24.2,21.7-56.5,41.2-94.8,55.8c-61.5,23.3-125,28.7-173.9,18.1v-33.5
					c46.9,7.2,104.8,0.9,161-20.4C2145.6,1606.9,2182.7,1582.5,2207.7,1555.8z"/>
				<path class="st10" d="M2207.7,1653.8v48.4c-24.2,21.7-56.5,41.2-94.8,55.8c-6.2,2.4-12.5,4.5-18.7,6.5
					c-6.8,0.2-13.7,0.3-20.8,0.3c-37.1,0-70.7-2.7-95-7c-22-4-36.5-9.3-39-15.2c46.9,7.1,104.6,0.8,160.7-20.5
					C2145.6,1704.9,2182.7,1680.5,2207.7,1653.8z"/>
			</g>
			<ellipse class="st11" cx="2073.3" cy="1320.3" rx="134.4" ry="24"/>
			<path class="st12" d="M2189.4,1320.3c0,1.8-1.3,3.6-3.8,5.3c-13.1,8.9-58.4,15.5-112.3,15.5c-53.9,0-99.2-6.6-112.3-15.5
				c-2.5-1.7-3.8-3.5-3.8-5.3c0-11.5,52-20.8,116.1-20.8C2137.5,1299.5,2189.4,1308.8,2189.4,1320.3z"/>
			<path class="st13" d="M2185.6,1325.6c-13.1,8.9-58.4,15.5-112.3,15.5c-53.9,0-99.2-6.6-112.3-15.5c13.1-8.9,58.4-15.5,112.3-15.5
				C2127.2,1310.1,2172.5,1316.7,2185.6,1325.6z"/>
			<g>
				<path class="st14" d="M2062.3,1262.9c-15.5-0.6-29.7-7.3-38.5-17.8c-14.7-17.6-37.1-52.4-19.1-86.2
					c25.5-47.9,61.4-145.3,57.4-192c-4-46.7,34-10.2,38.5,50.8C2104.8,1073.5,2149,1266.1,2062.3,1262.9z"/>
				<path class="st15" d="M2065.6,1257.8c-0.4,0-0.7,0-1.1,0c-8.2-0.3-16-3.9-20.8-9.8c-12.2-14.5-30.6-42.8-17-68.3
					c16.1-30.3,41.2-90.3,53-142.2c0.9,9.3,2.5,21,4.4,34.2c4.4,31.9,9.9,71.6,10.1,107.7c0.2,50.7-10.6,68.2-17.1,74.1
					C2073.7,1256.6,2070.4,1257.8,2065.6,1257.8z M2086.1,969.1"/>
				<path class="st16" d="M2065.6,1248.5c-0.2,0-0.3,0-0.5,0c-3.8-0.1-7.6-2-10-4.8c-10.5-12.6-26.6-36.8-15.7-57.3
					c9.1-17.1,22.7-47.2,34.8-80.7c3.1,24.6,5.8,51.2,5.9,76c0.2,51.3-11.2,64.4-13.5,66.5c-0.2,0.2-0.3,0.3-0.4,0.4
					C2066,1248.4,2065.8,1248.5,2065.6,1248.5z"/>
				<linearGradient id="SVGID_1_" gradientUnits="userSpaceOnUse" x1="2069.0811" y1="1221.9094" x2="2069.0811" y2="1325.6029">
					<stop  offset="0" style="stop-color:#EB2325"/>
					<stop  offset="0.3017" style="stop-color:#2D2A2A"/>
					<stop  offset="0.4999" style="stop-color:#302B2A"/>
					<stop  offset="0.6221" style="stop-color:#38302A"/>
					<stop  offset="0.7237" style="stop-color:#47382A"/>
					<stop  offset="0.814" style="stop-color:#5B432A"/>
					<stop  offset="0.8969" style="stop-color:#765129"/>
					<stop  offset="0.9732" style="stop-color:#966329"/>
					<stop  offset="1" style="stop-color:#A36A29"/>
				</linearGradient>
				<path class="st17" d="M2081.3,1294.8c0.2-0.9,0.4-1.9,0.6-2.8c1.8-8.4,3.7-17.1,0.4-25.7c-1.5-4-4.1-7.7-6.6-11.3
					c-1.2-1.7-2.3-3.4-3.4-5.1c-5.3-8.7-7.5-18.1-6.3-27.3l-11.7-0.7c-1.3,10.3,1.1,20.9,7.1,30.6c1.1,1.8,2.4,3.6,3.6,5.4
					c2.4,3.4,4.6,6.7,5.9,10c2.8,7.3,1.1,14.9-0.6,22.9c-0.2,1-0.4,1.9-0.6,2.9c-2.2,10.5-3.4,21-3.5,31.6l11.8,0.3
					C2078.1,1315.3,2079.2,1305,2081.3,1294.8z"/>
			</g>
		</g>
		<g>
			<ellipse class="st8" cx="4369.3" cy="1747.2" rx="162.2" ry="34.7"/>
			<path class="st9" d="M4501,1323.1v420.4c0,12-49.2,22-113.5,23.8c-6.8,0.2-13.7,0.3-20.8,0.3c-37.1,0-70.7-2.7-95-7
				c-22-4-36.5-9.3-39-15.2v0c-0.3-0.6-0.4-1.2-0.4-1.8v-420.4H4501z"/>
			<g>
				<path class="st10" d="M4488.9,1323.1c-22.5,17.6-50.5,33.4-82.7,45.7c-61.5,23.3-125,28.7-173.9,18.1v-33.5
					c46.9,7.2,104.8,0.9,161-20.4c8-3.1,15.8-6.3,23.3-9.8H4488.9z"/>
				<path class="st10" d="M4501,1362.5v48.4c-24.2,21.7-56.5,41.2-94.8,55.8c-61.5,23.3-125,28.7-173.9,18.1v-33.5
					c46.9,7.2,104.8,0.9,161-20.4C4438.9,1413.6,4476,1389.2,4501,1362.5z"/>
				<path class="st10" d="M4501,1460.5v48.4c-24.2,21.7-56.5,41.2-94.8,55.8c-61.5,23.3-125,28.7-173.9,18.1v-33.5
					c46.9,7.2,104.8,0.9,161-20.4C4438.9,1511.5,4476,1487.2,4501,1460.5z"/>
				<path class="st10" d="M4501,1558.5v48.4c-24.2,21.7-56.5,41.2-94.8,55.8c-61.5,23.3-125,28.7-173.9,18.1v-33.5
					c46.9,7.2,104.8,0.9,161-20.4C4438.9,1609.5,4476,1585.2,4501,1558.5z"/>
				<path class="st10" d="M4501,1656.4v48.4c-24.2,21.7-56.5,41.2-94.8,55.8c-6.2,2.4-12.5,4.5-18.7,6.5c-6.8,0.2-13.7,0.3-20.8,0.3
					c-37.1,0-70.7-2.7-95-7c-22-4-36.5-9.3-39-15.2c46.9,7.1,104.6,0.8,160.7-20.5C4438.9,1707.5,4476,1683.2,4501,1656.4z"/>
			</g>
			<ellipse class="st11" cx="4366.6" cy="1322.9" rx="134.4" ry="24"/>
			<path class="st12" d="M4482.7,1322.9c0,1.8-1.3,3.6-3.8,5.3c-13.1,8.9-58.4,15.5-112.3,15.5c-53.9,0-99.2-6.6-112.3-15.5
				c-2.5-1.7-3.8-3.5-3.8-5.3c0-11.5,52-20.8,116.1-20.8S4482.7,1311.5,4482.7,1322.9z"/>
			<path class="st13" d="M4478.9,1328.2c-13.1,8.9-58.4,15.5-112.3,15.5c-53.9,0-99.2-6.6-112.3-15.5c13.1-8.9,58.4-15.5,112.3-15.5
				C4420.5,1312.8,4465.8,1319.3,4478.9,1328.2z"/>
			<g>
				<path class="st14" d="M4355.6,1265.6c-15.5-0.6-29.7-7.3-38.5-17.8c-14.7-17.6-37.1-52.4-19.1-86.2
					c25.5-47.9,61.4-145.3,57.4-192c-4-46.7,34-10.2,38.5,50.8C4398.1,1076.1,4442.4,1268.8,4355.6,1265.6z"/>
				<path class="st15" d="M4358.9,1260.5c-0.4,0-0.7,0-1.1,0c-8.2-0.3-16-3.9-20.8-9.8c-12.2-14.5-30.6-42.8-17-68.3
					c16.1-30.3,41.2-90.3,53-142.2c0.9,9.3,2.5,21,4.4,34.2c4.4,31.9,9.9,71.6,10.1,107.7c0.2,50.7-10.6,68.2-17.1,74.1
					C4367,1259.3,4363.7,1260.5,4358.9,1260.5z M4379.4,971.8"/>
				<path class="st16" d="M4358.9,1251.1c-0.2,0-0.3,0-0.5,0c-3.8-0.1-7.6-2-10-4.8c-10.5-12.6-26.6-36.8-15.7-57.3
					c9.1-17.1,22.7-47.2,34.8-80.7c3.1,24.6,5.8,51.2,5.9,76c0.2,51.3-11.2,64.4-13.5,66.5c-0.2,0.2-0.3,0.3-0.4,0.4
					C4359.3,1251.1,4359.1,1251.1,4358.9,1251.1z"/>
				<linearGradient id="SVGID_2_" gradientUnits="userSpaceOnUse" x1="4362.3911" y1="1224.5502" x2="4362.3911" y2="1328.2437">
					<stop  offset="0" style="stop-color:#EB2325"/>
					<stop  offset="0.3017" style="stop-color:#2D2A2A"/>
					<stop  offset="0.4999" style="stop-color:#302B2A"/>
					<stop  offset="0.6221" style="stop-color:#38302A"/>
					<stop  offset="0.7237" style="stop-color:#47382A"/>
					<stop  offset="0.814" style="stop-color:#5B432A"/>
					<stop  offset="0.8969" style="stop-color:#765129"/>
					<stop  offset="0.9732" style="stop-color:#966329"/>
					<stop  offset="1" style="stop-color:#A36A29"/>
				</linearGradient>
				<path class="st18" d="M4374.7,1297.5c0.2-0.9,0.4-1.9,0.6-2.8c1.8-8.4,3.7-17.1,0.4-25.7c-1.5-4-4.1-7.7-6.6-11.3
					c-1.2-1.7-2.3-3.4-3.4-5.1c-5.3-8.7-7.5-18.1-6.3-27.3l-11.7-0.7c-1.3,10.3,1.1,20.9,7.1,30.6c1.1,1.8,2.4,3.6,3.6,5.4
					c2.4,3.4,4.6,6.7,5.9,10c2.8,7.3,1.1,14.9-0.6,22.9c-0.2,1-0.4,1.9-0.6,2.9c-2.2,10.5-3.4,21-3.5,31.6l11.8,0.3
					C4371.4,1318,4372.5,1307.7,4374.7,1297.5z"/>
			</g>
		</g>
		<g>
			<ellipse class="st8" cx="3205.5" cy="1425.8" rx="162.2" ry="34.7"/>
			<path class="st9" d="M3339.8,1002.2v420.4c0,12-49.2,22-113.5,23.8c-6.8,0.2-13.7,0.3-20.8,0.3c-37.1,0-70.7-2.7-95-7
				c-22-4-36.5-9.3-39-15.2v0c-0.3-0.6-0.4-1.2-0.4-1.8v-420.4H3339.8z"/>
			<g>
				<path class="st10" d="M3327.8,1002.2c-22.5,17.6-50.5,33.4-82.7,45.7c-61.5,23.3-125,28.7-173.9,18.1v-33.5
					c46.9,7.2,104.8,0.9,161-20.4c8-3.1,15.8-6.3,23.3-9.8H3327.8z"/>
				<path class="st10" d="M3339.8,1041.6v48.4c-24.2,21.7-56.5,41.2-94.8,55.8c-61.5,23.3-125,28.7-173.9,18.1v-33.5
					c46.9,7.2,104.8,0.9,161-20.4C3277.7,1092.7,3314.8,1068.4,3339.8,1041.6z"/>
				<path class="st10" d="M3339.8,1139.6v48.4c-24.2,21.7-56.5,41.2-94.8,55.8c-61.5,23.3-125,28.7-173.9,18.1v-33.5
					c46.9,7.2,104.8,0.9,161-20.4C3277.7,1190.7,3314.8,1166.3,3339.8,1139.6z"/>
				<path class="st10" d="M3339.8,1237.6v48.4c-24.2,21.7-56.5,41.2-94.8,55.8c-61.5,23.3-125,28.7-173.9,18.1v-33.5
					c46.9,7.2,104.8,0.9,161-20.4C3277.7,1288.7,3314.8,1264.3,3339.8,1237.6z"/>
				<path class="st10" d="M3339.8,1335.6v48.4c-24.2,21.7-56.5,41.2-94.8,55.8c-6.2,2.4-12.5,4.5-18.7,6.5
					c-6.8,0.2-13.7,0.3-20.8,0.3c-37.1,0-70.7-2.7-95-7c-22-4-36.5-9.3-39-15.2c46.9,7.1,104.6,0.8,160.7-20.5
					C3277.7,1386.7,3314.8,1362.3,3339.8,1335.6z"/>
			</g>
			<ellipse class="st11" cx="3205.5" cy="1002.1" rx="134.4" ry="24"/>
			<path class="st12" d="M3321.6,1002.1c0,1.8-1.3,3.6-3.8,5.3c-13.1,8.9-58.4,15.5-112.3,15.5c-53.9,0-99.2-6.6-112.3-15.5
				c-2.5-1.7-3.8-3.5-3.8-5.3c0-11.5,52-20.8,116.1-20.8C3269.6,981.3,3321.6,990.6,3321.6,1002.1z"/>
			<path class="st13" d="M3317.7,1007.4c-13.1,8.9-58.4,15.5-112.3,15.5c-53.9,0-99.2-6.6-112.3-15.5c13.1-8.9,58.4-15.5,112.3-15.5
				C3259.3,991.9,3304.6,998.5,3317.7,1007.4z"/>
			<g>
				<path class="st14" d="M3194.5,944.8c-15.5-0.6-29.7-7.3-38.5-17.8c-14.7-17.6-37.1-52.4-19.1-86.2
					c25.5-47.9,61.4-145.3,57.4-192c-4-46.7,34-10.2,38.5,50.8C3236.9,755.3,3281.2,947.9,3194.5,944.8z"/>
				<path class="st15" d="M3197.7,939.6c-0.4,0-0.7,0-1.1,0c-8.2-0.3-16-3.9-20.8-9.8c-12.2-14.5-30.6-42.8-17-68.3
					c16.1-30.3,41.2-90.3,53-142.2c0.9,9.3,2.5,21,4.4,34.2c4.4,31.9,9.9,71.6,10.1,107.7c0.2,50.7-10.6,68.2-17.1,74.1
					C3205.9,938.4,3202.6,939.6,3197.7,939.6z M3218.2,650.9"/>
				<path class="st16" d="M3197.7,930.3c-0.2,0-0.3,0-0.5,0c-3.8-0.1-7.6-2-10-4.8c-10.5-12.6-26.6-36.8-15.7-57.3
					c9.1-17.1,22.7-47.2,34.8-80.7c3.1,24.6,5.8,51.2,5.9,76c0.2,51.3-11.2,64.4-13.5,66.5c-0.2,0.2-0.3,0.3-0.4,0.4
					C3198.2,930.3,3198,930.3,3197.7,930.3z"/>
				<linearGradient id="SVGID_3_" gradientUnits="userSpaceOnUse" x1="3201.2197" y1="903.715" x2="3201.2197" y2="1007.4081">
					<stop  offset="0" style="stop-color:#EB2325"/>
					<stop  offset="0.3017" style="stop-color:#2D2A2A"/>
					<stop  offset="0.4999" style="stop-color:#302B2A"/>
					<stop  offset="0.6221" style="stop-color:#38302A"/>
					<stop  offset="0.7237" style="stop-color:#47382A"/>
					<stop  offset="0.814" style="stop-color:#5B432A"/>
					<stop  offset="0.8969" style="stop-color:#765129"/>
					<stop  offset="0.9732" style="stop-color:#966329"/>
					<stop  offset="1" style="stop-color:#A36A29"/>
				</linearGradient>
				<path class="st19" d="M3213.5,976.6c0.2-0.9,0.4-1.9,0.6-2.8c1.8-8.4,3.7-17.1,0.4-25.7c-1.5-4-4.1-7.7-6.6-11.3
					c-1.2-1.7-2.3-3.4-3.4-5.1c-5.3-8.7-7.5-18.1-6.3-27.3l-11.7-0.7c-1.3,10.3,1.1,20.9,7.1,30.6c1.1,1.8,2.4,3.6,3.6,5.4
					c2.4,3.4,4.6,6.7,5.9,10c2.8,7.3,1.1,14.9-0.6,22.9c-0.2,1-0.4,1.9-0.6,2.9c-2.2,10.5-3.4,21-3.5,31.6l11.8,0.3
					C3210.2,997.1,3211.3,986.8,3213.5,976.6z"/>
			</g>
		</g>
		<g>
			<path class="st11" d="M3339.8,1703c0,13.3-60.2,24-134.4,24c-74.2,0-134.4-10.8-134.4-24c0-13.3,60.2-24,134.4-24
				C3279.7,1678.9,3339.8,1689.7,3339.8,1703z"/>
			<path class="st12" d="M3321.6,1703c0,1.8-1.3,3.6-3.8,5.3c-13.1,8.9-58.4,15.5-112.3,15.5c-53.9,0-99.2-6.6-112.3-15.5
				c-2.5-1.7-3.8-3.5-3.8-5.3c0-11.5,52-20.8,116.1-20.8C3269.6,1682.2,3321.6,1691.5,3321.6,1703z"/>
			<path class="st13" d="M3317.7,1708.3c-13.1,8.9-58.4,15.5-112.3,15.5c-53.9,0-99.2-6.6-112.3-15.5c13.1-8.9,58.4-15.5,112.3-15.5
				C3259.3,1692.8,3304.6,1699.4,3317.7,1708.3z"/>
			<g>
				<path class="st14" d="M3194.5,1645.6c-15.5-0.6-29.7-7.3-38.5-17.8c-14.7-17.6-37.1-52.4-19.1-86.2
					c25.5-47.9,61.4-145.3,57.4-192c-4-46.7,34-10.2,38.5,50.8C3236.9,1456.2,3281.2,1648.8,3194.5,1645.6z"/>
				<path class="st15" d="M3197.7,1640.5c-0.4,0-0.7,0-1.1,0c-8.2-0.3-16-3.9-20.8-9.8c-12.2-14.5-30.6-42.8-17-68.3
					c16.1-30.3,41.2-90.3,53-142.2c0.9,9.3,2.5,21,4.4,34.2c4.4,31.9,9.9,71.6,10.1,107.7c0.2,50.7-10.6,68.2-17.1,74.1
					C3205.9,1639.3,3202.6,1640.5,3197.7,1640.5z M3218.2,1351.8"/>
				<path class="st16" d="M3197.7,1631.1c-0.2,0-0.3,0-0.5,0c-3.8-0.1-7.6-2-10-4.8c-10.5-12.6-26.6-36.8-15.7-57.3
					c9.1-17.1,22.7-47.2,34.8-80.7c3.1,24.6,5.8,51.2,5.9,76c0.2,51.3-11.2,64.4-13.5,66.5c-0.2,0.2-0.3,0.3-0.4,0.4
					C3198.2,1631.1,3198,1631.1,3197.7,1631.1z"/>
				<linearGradient id="SVGID_4_" gradientUnits="userSpaceOnUse" x1="3201.2197" y1="1604.5803" x2="3201.2197" y2="1708.2734">
					<stop  offset="0" style="stop-color:#EB2325"/>
					<stop  offset="0.3017" style="stop-color:#2D2A2A"/>
					<stop  offset="0.4999" style="stop-color:#302B2A"/>
					<stop  offset="0.6221" style="stop-color:#38302A"/>
					<stop  offset="0.7237" style="stop-color:#47382A"/>
					<stop  offset="0.814" style="stop-color:#5B432A"/>
					<stop  offset="0.8969" style="stop-color:#765129"/>
					<stop  offset="0.9732" style="stop-color:#966329"/>
					<stop  offset="1" style="stop-color:#A36A29"/>
				</linearGradient>
				<path class="st20" d="M3213.5,1677.5c0.2-0.9,0.4-1.9,0.6-2.8c1.8-8.4,3.7-17.1,0.4-25.7c-1.5-4-4.1-7.7-6.6-11.3
					c-1.2-1.7-2.3-3.4-3.4-5.1c-5.3-8.7-7.5-18.1-6.3-27.3l-11.7-0.7c-1.3,10.3,1.1,20.9,7.1,30.6c1.1,1.8,2.4,3.6,3.6,5.4
					c2.4,3.4,4.6,6.7,5.9,10c2.8,7.3,1.1,14.9-0.6,22.9c-0.2,1-0.4,1.9-0.6,2.9c-2.2,10.5-3.4,21-3.5,31.6l11.8,0.3
					C3210.2,1698,3211.3,1687.7,3213.5,1677.5z"/>
			</g>
			<ellipse class="st8" cx="3205.5" cy="2126.7" rx="162.2" ry="34.7"/>
			<path class="st9" d="M3339.8,1703.1v420.4c0,12-49.2,22-113.5,23.8c-6.8,0.2-13.7,0.3-20.8,0.3c-37.1,0-70.7-2.7-95-7
				c-22-4-36.5-9.3-39-15.2v0c-0.3-0.6-0.4-1.2-0.4-1.8v-420.4H3339.8z"/>
			<g>
				<path class="st10" d="M3327.8,1703.1c-22.5,17.6-50.5,33.4-82.7,45.7c-61.5,23.3-125,28.7-173.9,18.1v-33.5
					c46.9,7.2,104.8,0.9,161-20.4c8-3.1,15.8-6.3,23.3-9.8H3327.8z"/>
				<path class="st10" d="M3339.8,1742.5v48.4c-24.2,21.7-56.5,41.2-94.8,55.8c-61.5,23.3-125,28.7-173.9,18.1v-33.5
					c46.9,7.2,104.8,0.9,161-20.4C3277.7,1793.6,3314.8,1769.2,3339.8,1742.5z"/>
				<path class="st10" d="M3339.8,1840.5v48.4c-24.2,21.7-56.5,41.2-94.8,55.8c-61.5,23.3-125,28.7-173.9,18.1v-33.5
					c46.9,7.2,104.8,0.9,161-20.4C3277.7,1891.6,3314.8,1867.2,3339.8,1840.5z"/>
				<path class="st10" d="M3339.8,1938.5v48.4c-24.2,21.7-56.5,41.2-94.8,55.8c-61.5,23.3-125,28.7-173.9,18.1v-33.5
					c46.9,7.2,104.8,0.9,161-20.4C3277.7,1989.6,3314.8,1965.2,3339.8,1938.5z"/>
				<path class="st10" d="M3339.8,2036.5v48.4c-24.2,21.7-56.5,41.2-94.8,55.8c-6.2,2.4-12.5,4.5-18.7,6.5
					c-6.8,0.2-13.7,0.3-20.8,0.3c-37.1,0-70.7-2.7-95-7c-22-4-36.5-9.3-39-15.2c46.9,7.1,104.6,0.8,160.7-20.5
					C3277.7,2087.5,3314.8,2063.2,3339.8,2036.5z"/>
			</g>
		</g>
	</g>
</g>
</svg>
