<?xml version="1.0" encoding="utf-8"?>
<!-- Generator: Adobe Illustrator 24.1.2, SVG Export Plug-In . SVG Version: 6.00 Build 0)  -->
<svg version="1.1" id="Слой_2_1_" xmlns="http://www.w3.org/2000/svg" xmlns:xlink="http://www.w3.org/1999/xlink" x="0px"
	 y="0px" viewBox="0 0 3815.6 1871.6" style="enable-background:new 0 0 3815.6 1871.6;" xml:space="preserve">
<style type="text/css">
	.st0{opacity:0.66;fill:#7F221A;enable-background:new    ;}
	.st1{fill:#FECC99;}
	.st2{fill:#F04624;}
	.st3{fill:#FCE1CA;}
	.st4{fill:#C08F52;}
	.st5{fill:#DAA369;}
	.st6{fill:#F4CC21;}
	.st7{fill:#F6E92D;}
	.st8{fill:#F9F6BD;}
	.st9{fill:url(#SVGID_1_);}
	.st10{fill:url(#SVGID_2_);}
	.st11{fill:url(#SVGID_3_);}
	.st12{fill:url(#SVGID_4_);}
	.st13{fill:url(#SVGID_5_);}
	.st14{fill:url(#SVGID_6_);}
	.st15{fill:url(#SVGID_7_);}
	.st16{fill:url(#SVGID_8_);}
</style>
<g>
	<ellipse class="st0" cx="947.7" cy="1192.3" rx="89.2" ry="23.3"/>
	<ellipse class="st0" cx="2867.9" cy="1192.3" rx="89.2" ry="23.3"/>
	<ellipse class="st0" cx="2379.7" cy="1393.4" rx="89.2" ry="23.3"/>
	<ellipse class="st0" cx="2379.7" cy="983.7" rx="89.2" ry="23.3"/>
	<ellipse class="st0" cx="1433.4" cy="1393.4" rx="89.2" ry="23.3"/>
	<ellipse class="st0" cx="1433.4" cy="983.7" rx="89.2" ry="23.3"/>
	<ellipse class="st0" cx="1907.1" cy="956.9" rx="89.2" ry="23.3"/>
	<ellipse class="st0" cx="1907.1" cy="1427.2" rx="89.2" ry="23.3"/>
	<g>
		<g>
			<path class="st1" d="M1021.6,907.7v282.1c0,8.1-27.1,14.7-62.4,15.9c-3.7,0.1-7.5,0.2-11.4,0.2c-20.4,0-38.9-1.8-52.3-4.7
				c-12.1-2.6-20.1-6.2-21.5-10.2l0,0c-0.2-0.4-0.2-0.8-0.2-1.3V907.7H1021.6z"/>
			<g>
				<path class="st2" d="M1015,907.7c-12.4,11.8-27.8,22.4-45.5,30.6c-33.8,15.7-68.8,19.3-95.6,12.1v-22.5
					c25.8,4.8,57.6,0.6,88.5-13.7c4.4-2,8.7-4.2,12.8-6.5L1015,907.7L1015,907.7z"/>
				<path class="st2" d="M1021.6,934.2v32.5c-13.3,14.6-31.1,27.7-52.1,37.4c-33.8,15.7-68.8,19.3-95.6,12.1v-22.5
					c25.8,4.8,57.6,0.6,88.5-13.7C987.5,968.4,1007.9,952.1,1021.6,934.2z"/>
				<path class="st2" d="M1021.6,999.9v32.5c-13.3,14.6-31.1,27.7-52.1,37.4c-33.8,15.7-68.8,19.3-95.6,12.1v-22.5
					c25.8,4.8,57.6,0.6,88.5-13.7C987.5,1034.2,1007.9,1017.8,1021.6,999.9z"/>
				<path class="st2" d="M1021.6,1065.7v32.5c-13.3,14.6-31.1,27.7-52.1,37.4c-33.8,15.7-68.8,19.3-95.6,12.1v-22.5
					c25.8,4.8,57.6,0.6,88.5-13.7C987.5,1099.9,1007.9,1083.6,1021.6,1065.7z"/>
				<path class="st2" d="M1021.6,1131.4v32.5c-13.3,14.6-31.1,27.7-52.1,37.5c-3.4,1.6-6.9,3-10.3,4.4c-3.7,0.1-7.5,0.2-11.4,0.2
					c-20.4,0-38.9-1.8-52.3-4.7c-12.1-2.6-20.1-6.2-21.5-10.2c25.8,4.8,57.5,0.6,88.4-13.8
					C987.5,1165.7,1007.9,1149.4,1021.6,1131.4z"/>
			</g>
			<ellipse class="st3" cx="947.7" cy="907.6" rx="73.9" ry="16.1"/>
			<path class="st4" d="M1011.6,907.6c0,1.2-0.7,2.4-2.1,3.6c-7.2,6-32.1,10.4-61.8,10.4s-54.5-4.4-61.7-10.4
				c-1.4-1.2-2.1-2.3-2.1-3.6c0-7.7,28.6-14,63.9-14S1011.6,899.9,1011.6,907.6z"/>
			<path class="st5" d="M1009.5,911.2c-7.2,6-32.1,10.4-61.8,10.4s-54.5-4.4-61.7-10.4c7.2-6,32.1-10.4,61.8-10.4
				S1002.3,905.2,1009.5,911.2z"/>
			<g>
				<path class="st6" d="M941.7,869.1c-8.5-0.4-16.3-4.9-21.2-11.9c-8.1-11.8-20.4-35.1-10.5-57.9c14-32.1,33.8-97.5,31.6-128.9
					c-2.2-31.3,18.7-6.9,21.2,34C965,742,989.4,871.2,941.7,869.1z"/>
				<path class="st7" d="M943.5,865.7c-0.2,0-0.4,0-0.6,0c-4.5-0.2-8.8-2.6-11.4-6.5c-6.7-9.7-16.8-28.7-9.3-45.9
					c8.9-20.3,22.7-60.6,29.2-95.4c0.5,6.2,1.4,14.1,2.4,22.9c2.4,21.4,5.4,48.1,5.6,72.3c0.1,34-5.8,45.8-9.4,49.8
					C947.9,864.9,946.1,865.7,943.5,865.7z"/>
				<path class="st8" d="M943.5,859.4c-0.1,0-0.2,0-0.3,0c-2.1-0.1-4.2-1.3-5.5-3.2c-5.8-8.5-14.6-24.7-8.6-38.4
					c5-11.5,12.5-31.6,19.1-54.2c1.7,16.5,3.2,34.4,3.2,51c0.1,34.4-6.2,43.2-7.4,44.6c-0.1,0.1-0.2,0.2-0.2,0.2
					C943.7,859.4,943.6,859.4,943.5,859.4z"/>
				
					<linearGradient id="SVGID_1_" gradientUnits="userSpaceOnUse" x1="945.3715" y1="1029.3002" x2="945.3715" y2="959.7252" gradientTransform="matrix(1 0 0 -1 0 1870.8976)">
					<stop  offset="0" style="stop-color:#EB2325"/>
					<stop  offset="0.3017" style="stop-color:#2D2A2A"/>
					<stop  offset="0.4999" style="stop-color:#302B2A"/>
					<stop  offset="0.6221" style="stop-color:#38302A"/>
					<stop  offset="0.7237" style="stop-color:#47382A"/>
					<stop  offset="0.814" style="stop-color:#5B432A"/>
					<stop  offset="0.8969" style="stop-color:#765129"/>
					<stop  offset="0.9732" style="stop-color:#966329"/>
					<stop  offset="1" style="stop-color:#A36A29"/>
				</linearGradient>
				<path class="st9" d="M952.1,890.5c0.1-0.6,0.2-1.3,0.3-1.9c1-5.6,2-11.4,0.2-17.3c-0.8-2.7-2.3-5.2-3.6-7.6
					c-0.7-1.2-1.3-2.3-1.9-3.4c-2.9-5.8-4.1-12.2-3.5-18.3l-6.4-0.5c-0.7,6.9,0.6,14,3.9,20.6c0.6,1.2,1.3,2.4,2,3.6
					c1.3,2.3,2.5,4.5,3.2,6.7c1.5,4.9,0.6,10-0.3,15.4c-0.1,0.7-0.2,1.3-0.3,1.9c-1.2,7-1.9,14.1-1.9,21.2l6.5,0.2
					C950.4,904.2,951,897.4,952.1,890.5z"/>
			</g>
		</g>
		<g>
			<path class="st1" d="M2940.3,907.7v282.1c0,8.1-27.1,14.7-62.4,15.9c-3.7,0.1-7.5,0.2-11.4,0.2c-20.4,0-38.9-1.8-52.3-4.7
				c-12.1-2.6-20.1-6.2-21.4-10.2l0,0c-0.2-0.4-0.2-0.8-0.2-1.3V907.7H2940.3z"/>
			<g>
				<path class="st2" d="M2933.7,907.7c-12.4,11.8-27.8,22.4-45.5,30.6c-33.8,15.7-68.8,19.3-95.6,12.1v-22.5
					c25.8,4.8,57.6,0.6,88.5-13.7c4.4-2,8.7-4.2,12.8-6.5L2933.7,907.7L2933.7,907.7z"/>
				<path class="st2" d="M2940.3,934.2v32.5c-13.3,14.6-31.1,27.7-52.1,37.4c-33.8,15.7-68.8,19.3-95.6,12.1v-22.5
					c25.8,4.8,57.6,0.6,88.6-13.7C2906.2,968.4,2926.6,952.1,2940.3,934.2z"/>
				<path class="st2" d="M2940.3,999.9v32.5c-13.3,14.6-31.1,27.7-52.1,37.4c-33.8,15.7-68.8,19.3-95.6,12.1v-22.5
					c25.8,4.8,57.6,0.6,88.6-13.7C2906.2,1034.2,2926.6,1017.8,2940.3,999.9z"/>
				<path class="st2" d="M2940.3,1065.7v32.5c-13.3,14.6-31.1,27.7-52.1,37.4c-33.8,15.7-68.8,19.3-95.6,12.1v-22.5
					c25.8,4.8,57.6,0.6,88.6-13.7C2906.2,1099.9,2926.6,1083.6,2940.3,1065.7z"/>
				<path class="st2" d="M2940.3,1131.4v32.5c-13.3,14.6-31.1,27.7-52.1,37.5c-3.4,1.6-6.9,3-10.3,4.4c-3.7,0.1-7.5,0.2-11.4,0.2
					c-20.4,0-38.9-1.8-52.3-4.7c-12.1-2.6-20.1-6.2-21.4-10.2c25.8,4.8,57.5,0.6,88.4-13.8
					C2906.2,1165.7,2926.6,1149.4,2940.3,1131.4z"/>
			</g>
			<ellipse class="st3" cx="2866.4" cy="907.6" rx="73.9" ry="16.1"/>
			<path class="st4" d="M2930.3,907.6c0,1.2-0.7,2.4-2.1,3.6c-7.2,6-32.1,10.4-61.8,10.4c-29.6,0-54.6-4.4-61.8-10.4
				c-1.4-1.2-2.1-2.3-2.1-3.6c0-7.7,28.6-14,63.9-14C2901.7,893.7,2930.3,899.9,2930.3,907.6z"/>
			<path class="st5" d="M2928.2,911.2c-7.2,6-32.1,10.4-61.8,10.4c-29.6,0-54.6-4.4-61.8-10.4c7.2-6,32.1-10.4,61.8-10.4
				C2896,900.8,2921,905.2,2928.2,911.2z"/>
			<g>
				<path class="st6" d="M2860.3,869.1c-8.5-0.4-16.3-4.9-21.2-11.9c-8.1-11.8-20.4-35.1-10.5-57.9c14-32.1,33.8-97.5,31.6-128.9
					c-2.2-31.3,18.7-6.9,21.2,34C2883.7,742,2908.1,871.2,2860.3,869.1z"/>
				<path class="st7" d="M2862.2,865.7c-0.2,0-0.4,0-0.6,0c-4.5-0.2-8.8-2.6-11.4-6.5c-6.7-9.7-16.8-28.7-9.4-45.9
					c8.9-20.3,22.7-60.6,29.1-95.4c0.5,6.2,1.4,14.1,2.4,22.9c2.4,21.4,5.4,48.1,5.6,72.3c0.1,34-5.8,45.8-9.4,49.8
					C2866.7,864.9,2864.8,865.7,2862.2,865.7z"/>
				<path class="st8" d="M2862.2,859.4c-0.1,0-0.2,0-0.3,0c-2.1-0.1-4.2-1.3-5.5-3.2c-5.8-8.5-14.6-24.7-8.6-38.4
					c5-11.5,12.5-31.6,19.1-54.2c1.7,16.5,3.2,34.4,3.2,51c0.1,34.4-6.2,43.2-7.4,44.6c-0.1,0.1-0.2,0.2-0.2,0.2
					C2862.4,859.4,2862.3,859.4,2862.2,859.4z"/>
				
					<linearGradient id="SVGID_2_" gradientUnits="userSpaceOnUse" x1="2864.1016" y1="1029.3002" x2="2864.1016" y2="959.7252" gradientTransform="matrix(1 0 0 -1 0 1870.8976)">
					<stop  offset="0" style="stop-color:#EB2325"/>
					<stop  offset="0.3017" style="stop-color:#2D2A2A"/>
					<stop  offset="0.4999" style="stop-color:#302B2A"/>
					<stop  offset="0.6221" style="stop-color:#38302A"/>
					<stop  offset="0.7237" style="stop-color:#47382A"/>
					<stop  offset="0.814" style="stop-color:#5B432A"/>
					<stop  offset="0.8969" style="stop-color:#765129"/>
					<stop  offset="0.9732" style="stop-color:#966329"/>
					<stop  offset="1" style="stop-color:#A36A29"/>
				</linearGradient>
				<path class="st10" d="M2870.9,890.5c0.1-0.6,0.2-1.3,0.3-1.9c1-5.6,2-11.4,0.2-17.3c-0.8-2.7-2.3-5.2-3.6-7.6
					c-0.7-1.2-1.3-2.3-1.9-3.4c-2.9-5.8-4.1-12.2-3.5-18.3l-6.4-0.5c-0.7,6.9,0.6,14,3.9,20.6c0.6,1.2,1.3,2.4,2,3.6
					c1.3,2.3,2.5,4.5,3.2,6.7c1.5,4.9,0.6,10-0.3,15.4c-0.1,0.7-0.2,1.3-0.3,1.9c-1.2,7-1.9,14.1-1.9,21.2l6.5,0.2
					C2869,904.2,2869.6,897.4,2870.9,890.5z"/>
			</g>
		</g>
		<g>
			<path class="st1" d="M1981,672.6v282.1c0,8.1-27.1,14.7-62.4,16c-3.7,0.1-7.5,0.2-11.4,0.2c-20.4,0-38.9-1.8-52.3-4.7
				c-12.1-2.6-20.1-6.2-21.4-10.2l0,0c-0.2-0.4-0.2-0.8-0.2-1.3V672.6H1981z"/>
			<g>
				<path class="st2" d="M1974.3,672.6c-12.4,11.8-27.8,22.4-45.5,30.6c-33.8,15.7-68.8,19.3-95.6,12.1v-22.5
					c25.8,4.8,57.6,0.6,88.6-13.7c4.4-2,8.7-4.2,12.8-6.5H1974.3L1974.3,672.6z"/>
				<path class="st2" d="M1981,699v32.5c-13.3,14.6-31.1,27.7-52.1,37.4c-33.8,15.7-68.8,19.3-95.6,12.1v-22.5
					c25.8,4.8,57.6,0.6,88.5-13.7C1946.8,733.3,1967.2,717,1981,699z"/>
				<path class="st2" d="M1981,764.8v32.5c-13.3,14.6-31.1,27.7-52.1,37.4c-33.8,15.7-68.8,19.3-95.6,12.1v-22.5
					c25.8,4.8,57.6,0.6,88.5-13.7C1946.8,799.1,1967.2,782.7,1981,764.8z"/>
				<path class="st2" d="M1981,830.6v32.5c-13.3,14.6-31.1,27.7-52.1,37.4c-33.8,15.7-68.8,19.3-95.6,12.1v-22.5
					c25.8,4.8,57.6,0.6,88.5-13.7C1946.8,864.9,1967.2,848.5,1981,830.6z"/>
				<path class="st2" d="M1981,896.3v32.5c-13.3,14.6-31.1,27.7-52.1,37.5c-3.4,1.6-6.9,3-10.3,4.4c-3.7,0.1-7.5,0.2-11.4,0.2
					c-20.4,0-38.9-1.8-52.3-4.7c-12.1-2.6-20.1-6.2-21.4-10.2c25.8,4.8,57.5,0.5,88.4-13.8C1946.8,930.6,1967.2,914.3,1981,896.3z"
					/>
			</g>
			<ellipse class="st3" cx="1907.1" cy="672.5" rx="73.9" ry="16.1"/>
			<path class="st4" d="M1970.9,672.5c0,1.2-0.7,2.4-2.1,3.6c-7.2,6-32.1,10.4-61.8,10.4c-29.6,0-54.6-4.4-61.8-10.4
				c-1.4-1.2-2.1-2.3-2.1-3.6c0-7.7,28.6-14,63.9-14C1942.3,658.6,1970.9,664.8,1970.9,672.5z"/>
			<path class="st5" d="M1968.8,676c-7.2,6-32.1,10.4-61.8,10.4s-54.6-4.4-61.8-10.4c7.2-6,32.1-10.4,61.8-10.4
				C1936.7,665.7,1961.6,670.1,1968.8,676z"/>
			<g>
				<path class="st6" d="M1901,634c-8.5-0.4-16.3-4.9-21.2-11.9c-8.1-11.8-20.4-35.1-10.5-57.9c14-32.1,33.8-97.5,31.6-128.9
					c-2.2-31.3,18.7-6.9,21.2,34C1924.4,506.9,1948.7,636.2,1901,634z"/>
				<path class="st7" d="M1902.8,630.6c-0.2,0-0.4,0-0.6,0c-4.5-0.2-8.8-2.6-11.4-6.5c-6.7-9.7-16.8-28.7-9.3-45.9
					c8.9-20.4,22.7-60.6,29.2-95.4c0.5,6.2,1.4,14.1,2.4,22.9c2.4,21.4,5.4,48.1,5.6,72.3c0.1,34-5.8,45.8-9.4,49.8
					C1907.3,629.8,1905.5,630.6,1902.8,630.6z"/>
				<path class="st8" d="M1902.8,624.3c-0.1,0-0.2,0-0.3,0c-2.1-0.1-4.2-1.3-5.5-3.2c-5.8-8.5-14.6-24.7-8.6-38.4
					c5-11.5,12.5-31.6,19.1-54.2c1.7,16.5,3.2,34.4,3.2,51c0.1,34.4-6.2,43.2-7.4,44.6c-0.1,0.1-0.2,0.2-0.2,0.2
					C1903.1,624.3,1903,624.3,1902.8,624.3z"/>
				
					<linearGradient id="SVGID_3_" gradientUnits="userSpaceOnUse" x1="1904.7365" y1="1264.4252" x2="1904.7365" y2="1194.8502" gradientTransform="matrix(1 0 0 -1 0 1870.8976)">
					<stop  offset="0" style="stop-color:#EB2325"/>
					<stop  offset="0.3017" style="stop-color:#2D2A2A"/>
					<stop  offset="0.4999" style="stop-color:#302B2A"/>
					<stop  offset="0.6221" style="stop-color:#38302A"/>
					<stop  offset="0.7237" style="stop-color:#47382A"/>
					<stop  offset="0.814" style="stop-color:#5B432A"/>
					<stop  offset="0.8969" style="stop-color:#765129"/>
					<stop  offset="0.9732" style="stop-color:#966329"/>
					<stop  offset="1" style="stop-color:#A36A29"/>
				</linearGradient>
				<path class="st11" d="M1911.5,655.4c0.1-0.6,0.2-1.3,0.3-1.9c1-5.6,2-11.4,0.2-17.3c-0.8-2.7-2.3-5.2-3.6-7.6
					c-0.7-1.2-1.3-2.3-1.9-3.4c-2.9-5.8-4.1-12.2-3.5-18.3l-6.4-0.5c-0.7,6.9,0.6,14,3.9,20.6c0.6,1.2,1.3,2.4,2,3.6
					c1.3,2.3,2.5,4.5,3.2,6.7c1.5,4.9,0.6,10-0.3,15.4c-0.1,0.7-0.2,1.3-0.3,1.9c-1.2,7-1.9,14.1-1.9,21.2l6.5,0.2
					C1909.7,669.2,1910.3,662.3,1911.5,655.4z"/>
			</g>
		</g>
		<g>
			<path class="st1" d="M1981,1142.9V1425c0,8.1-27.1,14.7-62.4,15.9c-3.7,0.1-7.5,0.2-11.4,0.2c-20.4,0-38.9-1.8-52.3-4.7
				c-12.1-2.6-20.1-6.2-21.4-10.2l0,0c-0.2-0.4-0.2-0.8-0.2-1.3v-282.1H1981z"/>
			<g>
				<path class="st2" d="M1974.3,1142.9c-12.4,11.8-27.8,22.4-45.5,30.6c-33.8,15.7-68.8,19.3-95.6,12.1v-22.5
					c25.8,4.8,57.6,0.6,88.6-13.7c4.4-2,8.7-4.2,12.8-6.5L1974.3,1142.9L1974.3,1142.9z"/>
				<path class="st2" d="M1981,1169.4v32.5c-13.3,14.6-31.1,27.7-52.1,37.4c-33.8,15.7-68.8,19.3-95.6,12.1v-22.5
					c25.8,4.8,57.6,0.6,88.5-13.7C1946.8,1203.7,1967.2,1187.3,1981,1169.4z"/>
				<path class="st2" d="M1981,1235.2v32.5c-13.3,14.6-31.1,27.7-52.1,37.4c-33.8,15.7-68.8,19.3-95.6,12.1v-22.5
					c25.8,4.8,57.6,0.6,88.5-13.7C1946.8,1269.4,1967.2,1253.1,1981,1235.2z"/>
				<path class="st2" d="M1981,1300.9v32.5c-13.3,14.6-31.1,27.7-52.1,37.4c-33.8,15.7-68.8,19.3-95.6,12.1v-22.4
					c25.8,4.8,57.6,0.6,88.5-13.7C1946.8,1335.2,1967.2,1318.8,1981,1300.9z"/>
				<path class="st2" d="M1981,1366.7v32.5c-13.3,14.6-31.1,27.7-52.1,37.5c-3.4,1.6-6.9,3-10.3,4.4c-3.7,0.1-7.5,0.2-11.4,0.2
					c-20.4,0-38.9-1.8-52.3-4.7c-12.1-2.6-20.1-6.2-21.4-10.2c25.8,4.8,57.5,0.6,88.4-13.8C1946.8,1400.9,1967.2,1384.6,1981,1366.7
					z"/>
			</g>
			<path class="st3" d="M1981,1142.8c0,8.9-33.1,16.1-73.9,16.1c-40.8,0-73.9-7.2-73.9-16.1c0-8.9,33.1-16.1,73.9-16.1
				C1947.9,1126.7,1981,1133.9,1981,1142.8z"/>
			<path class="st4" d="M1970.9,1142.8c0,1.2-0.7,2.4-2.1,3.6c-7.2,6-32.1,10.4-61.8,10.4c-29.6,0-54.6-4.4-61.8-10.4
				c-1.4-1.2-2.1-2.3-2.1-3.6c0-7.7,28.6-14,63.9-14C1942.3,1128.9,1970.9,1135.1,1970.9,1142.8z"/>
			<path class="st5" d="M1968.8,1146.4c-7.2,6-32.1,10.4-61.8,10.4s-54.6-4.4-61.8-10.4c7.2-6,32.1-10.4,61.8-10.4
				S1961.6,1140.5,1968.8,1146.4z"/>
			<g>
				<path class="st6" d="M1901,1104.4c-8.5-0.4-16.3-4.9-21.2-11.9c-8.1-11.8-20.4-35.1-10.5-57.9c14-32.1,33.8-97.5,31.6-128.9
					c-2.2-31.3,18.7-6.9,21.2,34C1924.4,977.2,1948.7,1106.5,1901,1104.4z"/>
				<path class="st7" d="M1902.8,1100.9c-0.2,0-0.4,0-0.6,0c-4.5-0.2-8.8-2.6-11.4-6.5c-6.7-9.7-16.8-28.7-9.3-45.9
					c8.9-20.3,22.7-60.6,29.2-95.4c0.5,6.2,1.4,14.1,2.4,22.9c2.4,21.4,5.4,48.1,5.6,72.3c0.1,34-5.8,45.8-9.4,49.8
					C1907.3,1100.1,1905.5,1100.9,1902.8,1100.9z"/>
				<path class="st8" d="M1902.8,1094.7c-0.1,0-0.2,0-0.3,0c-2.1-0.1-4.2-1.3-5.5-3.2c-5.8-8.5-14.6-24.7-8.6-38.4
					c5-11.5,12.5-31.6,19.1-54.2c1.7,16.5,3.2,34.4,3.2,51c0.1,34.4-6.2,43.2-7.4,44.6c-0.1,0.1-0.2,0.2-0.2,0.2
					C1903.1,1094.7,1903,1094.7,1902.8,1094.7z"/>
				
					<linearGradient id="SVGID_4_" gradientUnits="userSpaceOnUse" x1="1904.7365" y1="794.0653" x2="1904.7365" y2="724.4903" gradientTransform="matrix(1 0 0 -1 0 1870.8976)">
					<stop  offset="0" style="stop-color:#EB2325"/>
					<stop  offset="0.3017" style="stop-color:#2D2A2A"/>
					<stop  offset="0.4999" style="stop-color:#302B2A"/>
					<stop  offset="0.6221" style="stop-color:#38302A"/>
					<stop  offset="0.7237" style="stop-color:#47382A"/>
					<stop  offset="0.814" style="stop-color:#5B432A"/>
					<stop  offset="0.8969" style="stop-color:#765129"/>
					<stop  offset="0.9732" style="stop-color:#966329"/>
					<stop  offset="1" style="stop-color:#A36A29"/>
				</linearGradient>
				<path class="st12" d="M1911.5,1125.8c0.1-0.6,0.2-1.3,0.3-1.9c1-5.6,2-11.4,0.2-17.3c-0.8-2.7-2.3-5.2-3.6-7.6
					c-0.7-1.2-1.3-2.3-1.9-3.4c-2.9-5.8-4.1-12.2-3.5-18.3l-6.4-0.5c-0.7,6.9,0.6,14,3.9,20.6c0.6,1.2,1.3,2.4,2,3.6
					c1.3,2.3,2.5,4.5,3.2,6.7c1.5,4.9,0.6,10-0.3,15.4c-0.1,0.7-0.2,1.3-0.3,1.9c-1.2,7-1.9,14.1-1.9,21.2l6.5,0.2
					C1909.7,1139.5,1910.3,1132.6,1911.5,1125.8z"/>
			</g>
		</g>
		<g>
			<g>
				<g>
					<path class="st1" d="M1507.3,700.5v282.1c0,8.1-27.1,14.7-62.4,16c-3.7,0.1-7.5,0.2-11.4,0.2c-20.4,0-38.9-1.8-52.3-4.7
						c-12.1-2.6-20.1-6.2-21.4-10.2l0,0c-0.2-0.4-0.2-0.8-0.2-1.3V700.5H1507.3z"/>
					<g>
						<path class="st2" d="M1500.7,700.5c-12.4,11.8-27.8,22.4-45.5,30.6c-33.8,15.7-68.8,19.3-95.6,12.1v-22.5
							c25.8,4.8,57.6,0.6,88.6-13.7c4.4-2,8.7-4.2,12.8-6.5L1500.7,700.5L1500.7,700.5z"/>
						<path class="st2" d="M1507.3,727v32.5c-13.3,14.6-31.1,27.7-52.1,37.4c-33.8,15.7-68.8,19.3-95.6,12.1v-22.5
							c25.8,4.8,57.6,0.6,88.5-13.7C1473.1,761.2,1493.5,744.9,1507.3,727z"/>
						<path class="st2" d="M1507.3,792.8v32.5c-13.3,14.6-31.1,27.7-52.1,37.4c-33.8,15.7-68.8,19.3-95.6,12.1v-22.4
							c25.8,4.8,57.6,0.6,88.5-13.7C1473.1,827,1493.5,810.7,1507.3,792.8z"/>
						<path class="st2" d="M1507.3,858.5V891c-13.3,14.6-31.1,27.7-52.1,37.4c-33.8,15.7-68.8,19.3-95.6,12.1V918
							c25.8,4.8,57.6,0.6,88.5-13.7C1473.1,892.8,1493.5,876.4,1507.3,858.5z"/>
						<path class="st2" d="M1507.3,924.3v32.5c-13.3,14.6-31.1,27.7-52.1,37.5c-3.4,1.6-6.9,3-10.3,4.4c-3.7,0.1-7.5,0.2-11.4,0.2
							c-20.4,0-38.9-1.8-52.3-4.7c-12.1-2.6-20.1-6.2-21.4-10.2c25.8,4.8,57.5,0.6,88.4-13.8
							C1473.1,958.5,1493.5,942.2,1507.3,924.3z"/>
					</g>
					<ellipse class="st3" cx="1433.4" cy="700.5" rx="73.9" ry="16.1"/>
					<path class="st4" d="M1497.3,700.5c0,1.2-0.7,2.4-2.1,3.6c-7.2,6-32.1,10.4-61.8,10.4s-54.6-4.4-61.8-10.4
						c-1.4-1.2-2.1-2.3-2.1-3.6c0-7.7,28.6-14,63.9-14S1497.3,692.8,1497.3,700.5z"/>
					<path class="st5" d="M1495.2,704c-7.2,6-32.1,10.4-61.8,10.4s-54.6-4.4-61.8-10.4c7.2-6,32.1-10.4,61.8-10.4
						C1463.1,693.6,1488,698,1495.2,704z"/>
					<g>
						<path class="st6" d="M1427.4,662c-8.5-0.4-16.3-4.9-21.2-11.9c-8.1-11.8-20.4-35.1-10.5-57.9c14-32.1,33.8-97.5,31.6-128.9
							c-2.2-31.3,18.7-6.9,21.2,34C1450.7,534.8,1475.1,664.1,1427.4,662z"/>
						<path class="st7" d="M1429.1,658.5c-0.2,0-0.4,0-0.6,0c-4.5-0.2-8.8-2.6-11.4-6.5c-6.7-9.7-16.8-28.7-9.3-45.9
							c8.9-20.4,22.7-60.6,29.2-95.4c0.5,6.2,1.4,14.1,2.4,22.9c2.4,21.4,5.4,48.1,5.6,72.3c0.1,34-5.8,45.8-9.4,49.8
							C1433.6,657.7,1431.8,658.5,1429.1,658.5z"/>
						<path class="st8" d="M1429.1,652.2c-0.1,0-0.2,0-0.3,0c-2.1-0.1-4.2-1.3-5.5-3.2c-5.8-8.5-14.6-24.7-8.6-38.4
							c5-11.5,12.5-31.6,19.1-54.2c1.7,16.5,3.2,34.4,3.2,51c0.1,34.4-6.2,43.2-7.4,44.6c-0.1,0.1-0.2,0.2-0.2,0.2
							C1429.4,652.2,1429.3,652.2,1429.1,652.2z"/>
						
							<linearGradient id="SVGID_5_" gradientUnits="userSpaceOnUse" x1="1431.0765" y1="1236.4852" x2="1431.0765" y2="1166.9102" gradientTransform="matrix(1 0 0 -1 0 1870.8976)">
							<stop  offset="0" style="stop-color:#EB2325"/>
							<stop  offset="0.3017" style="stop-color:#2D2A2A"/>
							<stop  offset="0.4999" style="stop-color:#302B2A"/>
							<stop  offset="0.6221" style="stop-color:#38302A"/>
							<stop  offset="0.7237" style="stop-color:#47382A"/>
							<stop  offset="0.814" style="stop-color:#5B432A"/>
							<stop  offset="0.8969" style="stop-color:#765129"/>
							<stop  offset="0.9732" style="stop-color:#966329"/>
							<stop  offset="1" style="stop-color:#A36A29"/>
						</linearGradient>
						<path class="st13" d="M1437.8,683.4c0.1-0.6,0.2-1.3,0.3-1.9c1-5.6,2-11.4,0.2-17.3c-0.8-2.7-2.3-5.2-3.6-7.6
							c-0.7-1.2-1.3-2.3-1.9-3.4c-2.9-5.8-4.1-12.2-3.5-18.3l-6.4-0.5c-0.7,6.9,0.6,14,3.9,20.6c0.6,1.2,1.3,2.4,2,3.6
							c1.3,2.3,2.5,4.5,3.2,6.7c1.5,4.9,0.6,10-0.3,15.4c-0.1,0.7-0.2,1.3-0.3,1.9c-1.2,7-1.9,14.1-1.9,21.2l6.5,0.2
							C1436,697.1,1436.7,690.2,1437.8,683.4z"/>
					</g>
				</g>
				<g>
					<path class="st1" d="M1507.3,1108v282.1c0,8.1-27.1,14.7-62.4,16c-3.7,0.1-7.5,0.2-11.4,0.2c-20.4,0-38.9-1.8-52.3-4.7
						c-12.1-2.6-20.1-6.2-21.4-10.2l0,0c-0.2-0.4-0.2-0.8-0.2-1.3V1108H1507.3z"/>
					<g>
						<path class="st2" d="M1500.7,1108c-12.4,11.8-27.8,22.4-45.5,30.6c-33.8,15.7-68.8,19.3-95.6,12.1v-22.5
							c25.8,4.8,57.6,0.6,88.6-13.7c4.4-2,8.7-4.2,12.8-6.5L1500.7,1108L1500.7,1108z"/>
						<path class="st2" d="M1507.3,1134.5v32.5c-13.3,14.6-31.1,27.7-52.1,37.4c-33.8,15.7-68.8,19.3-95.6,12.1V1194
							c25.8,4.8,57.6,0.6,88.5-13.7C1473.1,1168.8,1493.5,1152.4,1507.3,1134.5z"/>
						<path class="st2" d="M1507.3,1200.3v32.5c-13.3,14.6-31.1,27.7-52.1,37.4c-33.8,15.7-68.8,19.3-95.6,12.1v-22.5
							c25.8,4.8,57.6,0.6,88.5-13.7C1473.1,1234.5,1493.5,1218.2,1507.3,1200.3z"/>
						<path class="st2" d="M1507.3,1266v32.5c-13.3,14.6-31.1,27.7-52.1,37.4c-33.8,15.7-68.8,19.3-95.6,12.1v-22.5
							c25.8,4.8,57.6,0.6,88.5-13.7C1473.1,1300.3,1493.5,1284,1507.3,1266z"/>
						<path class="st2" d="M1507.3,1331.8v32.5c-13.3,14.6-31.1,27.7-52.1,37.5c-3.4,1.6-6.9,3-10.3,4.4c-3.7,0.1-7.5,0.2-11.4,0.2
							c-20.4,0-38.9-1.8-52.3-4.7c-12.1-2.6-20.1-6.2-21.4-10.2c25.8,4.8,57.5,0.6,88.4-13.8
							C1473.1,1366,1493.5,1349.7,1507.3,1331.8z"/>
					</g>
					<ellipse class="st3" cx="1433.4" cy="1108" rx="73.9" ry="16.1"/>
					<path class="st4" d="M1497.3,1108c0,1.2-0.7,2.4-2.1,3.6c-7.2,6-32.1,10.4-61.8,10.4s-54.6-4.4-61.8-10.4
						c-1.4-1.2-2.1-2.3-2.1-3.6c0-7.7,28.6-14,63.9-14S1497.3,1100.3,1497.3,1108z"/>
					<path class="st5" d="M1495.2,1111.5c-7.2,6-32.1,10.4-61.8,10.4s-54.6-4.4-61.8-10.4c7.2-6,32.1-10.4,61.8-10.4
						S1488,1105.5,1495.2,1111.5z"/>
					<g>
						<path class="st6" d="M1427.4,1069.5c-8.5-0.4-16.3-4.9-21.2-11.9c-8.1-11.8-20.4-35.1-10.5-57.9c14-32.1,33.8-97.5,31.6-128.9
							c-2.2-31.3,18.7-6.9,21.2,34C1450.7,942.3,1475.1,1071.6,1427.4,1069.5z"/>
						<path class="st7" d="M1429.1,1066.1c-0.2,0-0.4,0-0.6,0c-4.5-0.2-8.8-2.6-11.4-6.5c-6.7-9.7-16.8-28.7-9.3-45.9
							c8.9-20.3,22.7-60.6,29.2-95.4c0.5,6.2,1.4,14.1,2.4,22.9c2.4,21.4,5.4,48.1,5.6,72.3c0.1,34-5.8,45.8-9.4,49.8
							C1433.6,1065.2,1431.8,1066.1,1429.1,1066.1z"/>
						<path class="st8" d="M1429.1,1059.7c-0.1,0-0.2,0-0.3,0c-2.1-0.1-4.2-1.3-5.5-3.2c-5.8-8.5-14.6-24.7-8.6-38.4
							c5-11.5,12.5-31.6,19.1-54.2c1.7,16.5,3.2,34.4,3.2,51c0.1,34.4-6.2,43.2-7.4,44.6c-0.1,0.1-0.2,0.2-0.2,0.2
							C1429.4,1059.7,1429.3,1059.7,1429.1,1059.7z"/>
						
							<linearGradient id="SVGID_6_" gradientUnits="userSpaceOnUse" x1="1431.0765" y1="828.9903" x2="1431.0765" y2="759.4153" gradientTransform="matrix(1 0 0 -1 0 1870.8976)">
							<stop  offset="0" style="stop-color:#EB2325"/>
							<stop  offset="0.3017" style="stop-color:#2D2A2A"/>
							<stop  offset="0.4999" style="stop-color:#302B2A"/>
							<stop  offset="0.6221" style="stop-color:#38302A"/>
							<stop  offset="0.7237" style="stop-color:#47382A"/>
							<stop  offset="0.814" style="stop-color:#5B432A"/>
							<stop  offset="0.8969" style="stop-color:#765129"/>
							<stop  offset="0.9732" style="stop-color:#966329"/>
							<stop  offset="1" style="stop-color:#A36A29"/>
						</linearGradient>
						<path class="st14" d="M1437.8,1090.9c0.1-0.6,0.2-1.3,0.3-1.9c1-5.6,2-11.4,0.2-17.3c-0.8-2.7-2.3-5.2-3.6-7.6
							c-0.7-1.2-1.3-2.3-1.9-3.4c-2.9-5.8-4.1-12.2-3.5-18.3l-6.4-0.5c-0.7,6.9,0.6,14,3.9,20.6c0.6,1.2,1.3,2.4,2,3.6
							c1.3,2.3,2.5,4.5,3.2,6.7c1.5,4.9,0.6,10-0.3,15.4c-0.1,0.7-0.2,1.3-0.3,1.9c-1.2,7-1.9,14.1-1.9,21.2l6.5,0.2
							C1436,1104.6,1436.7,1097.7,1437.8,1090.9z"/>
					</g>
				</g>
			</g>
			<g>
				<g>
					<path class="st1" d="M2454.7,700.5v282.1c0,8.1-27.1,14.7-62.4,16c-3.7,0.1-7.6,0.2-11.4,0.2c-20.4,0-38.9-1.8-52.3-4.7
						c-12.1-2.6-20.1-6.2-21.4-10.2l0,0c-0.2-0.4-0.2-0.8-0.2-1.3V700.5H2454.7z"/>
					<g>
						<path class="st2" d="M2448,700.5c-12.4,11.8-27.8,22.4-45.5,30.6c-33.8,15.7-68.8,19.3-95.6,12.1v-22.5
							c25.8,4.8,57.6,0.6,88.5-13.7c4.4-2,8.7-4.2,12.8-6.5L2448,700.5L2448,700.5z"/>
						<path class="st2" d="M2454.7,727v32.5c-13.3,14.6-31.1,27.7-52.1,37.4c-33.8,15.7-68.8,19.3-95.6,12.1v-22.5
							c25.8,4.8,57.6,0.6,88.5-13.7C2420.5,761.2,2440.9,744.9,2454.7,727z"/>
						<path class="st2" d="M2454.7,792.8v32.5c-13.3,14.6-31.1,27.7-52.1,37.4c-33.8,15.7-68.8,19.3-95.6,12.1v-22.4
							c25.8,4.8,57.6,0.6,88.5-13.7C2420.5,827,2440.9,810.7,2454.7,792.8z"/>
						<path class="st2" d="M2454.7,858.5V891c-13.3,14.6-31.1,27.7-52.1,37.4c-33.8,15.7-68.8,19.3-95.6,12.1V918
							c25.8,4.8,57.6,0.6,88.5-13.7C2420.5,892.8,2440.9,876.4,2454.7,858.5z"/>
						<path class="st2" d="M2454.7,924.3v32.5c-13.3,14.6-31.1,27.7-52.1,37.5c-3.4,1.6-6.9,3-10.3,4.4c-3.7,0.1-7.6,0.2-11.4,0.2
							c-20.4,0-38.9-1.8-52.3-4.7c-12.1-2.6-20.1-6.2-21.4-10.2c25.8,4.8,57.5,0.6,88.4-13.8
							C2420.5,958.5,2440.9,942.2,2454.7,924.3z"/>
					</g>
					<ellipse class="st3" cx="2380.7" cy="700.5" rx="73.9" ry="16.1"/>
					<path class="st4" d="M2444.6,700.5c0,1.2-0.7,2.4-2.1,3.6c-7.2,6-32.1,10.4-61.8,10.4c-29.6,0-54.6-4.4-61.8-10.4
						c-1.4-1.2-2.1-2.3-2.1-3.6c0-7.7,28.6-14,63.9-14C2416,686.5,2444.6,692.8,2444.6,700.5z"/>
					<path class="st5" d="M2442.5,704c-7.2,6-32.1,10.4-61.8,10.4c-29.6,0-54.6-4.4-61.8-10.4c7.2-6,32.1-10.4,61.8-10.4
						C2410.4,693.6,2435.3,698,2442.5,704z"/>
					<g>
						<path class="st6" d="M2374.7,662c-8.5-0.4-16.3-4.9-21.2-11.9c-8.1-11.8-20.4-35.1-10.5-57.9c14-32.1,33.8-97.5,31.6-128.9
							c-2.2-31.3,18.7-6.9,21.2,34C2398,534.8,2422.4,664.1,2374.7,662z"/>
						<path class="st7" d="M2376.5,658.5c-0.2,0-0.4,0-0.6,0c-4.5-0.2-8.8-2.6-11.4-6.5c-6.7-9.7-16.8-28.7-9.4-45.9
							c8.9-20.4,22.7-60.6,29.1-95.4c0.5,6.2,1.4,14.1,2.4,22.9c2.4,21.4,5.4,48.1,5.6,72.3c0.1,34-5.8,45.8-9.4,49.8
							C2381,657.7,2379.1,658.5,2376.5,658.5z"/>
						<path class="st8" d="M2376.5,652.2c-0.1,0-0.2,0-0.3,0c-2.1-0.1-4.2-1.3-5.5-3.2c-5.8-8.5-14.6-24.7-8.6-38.4
							c5-11.5,12.5-31.6,19.1-54.2c1.7,16.5,3.2,34.4,3.2,51c0.1,34.4-6.2,43.2-7.4,44.6c-0.1,0.1-0.2,0.2-0.2,0.2
							S2376.6,652.2,2376.5,652.2z"/>
						
							<linearGradient id="SVGID_7_" gradientUnits="userSpaceOnUse" x1="2378.3965" y1="1236.4852" x2="2378.3965" y2="1166.9102" gradientTransform="matrix(1 0 0 -1 0 1870.8976)">
							<stop  offset="0" style="stop-color:#EB2325"/>
							<stop  offset="0.3017" style="stop-color:#2D2A2A"/>
							<stop  offset="0.4999" style="stop-color:#302B2A"/>
							<stop  offset="0.6221" style="stop-color:#38302A"/>
							<stop  offset="0.7237" style="stop-color:#47382A"/>
							<stop  offset="0.814" style="stop-color:#5B432A"/>
							<stop  offset="0.8969" style="stop-color:#765129"/>
							<stop  offset="0.9732" style="stop-color:#966329"/>
							<stop  offset="1" style="stop-color:#A36A29"/>
						</linearGradient>
						<path class="st15" d="M2385.1,683.4c0.1-0.6,0.2-1.3,0.3-1.9c1-5.6,2-11.4,0.2-17.3c-0.8-2.7-2.3-5.2-3.6-7.6
							c-0.7-1.2-1.3-2.3-1.9-3.4c-2.9-5.8-4.1-12.2-3.5-18.3l-6.4-0.5c-0.7,6.9,0.6,14,3.9,20.6c0.6,1.2,1.3,2.4,2,3.6
							c1.3,2.3,2.5,4.5,3.2,6.7c1.5,4.9,0.6,10-0.3,15.4c-0.1,0.7-0.2,1.3-0.3,1.9c-1.2,7-1.9,14.1-1.9,21.2l6.5,0.2
							C2383.3,697.1,2384,690.2,2385.1,683.4z"/>
					</g>
				</g>
				<g>
					<path class="st1" d="M2454.7,1108v282.1c0,8.1-27.1,14.7-62.4,16c-3.7,0.1-7.6,0.2-11.4,0.2c-20.4,0-38.9-1.8-52.3-4.7
						c-12.1-2.6-20.1-6.2-21.4-10.2l0,0c-0.2-0.4-0.2-0.8-0.2-1.3V1108H2454.7z"/>
					<g>
						<path class="st2" d="M2448,1108c-12.4,11.8-27.8,22.4-45.5,30.6c-33.8,15.7-68.8,19.3-95.6,12.1v-22.5
							c25.8,4.8,57.6,0.6,88.5-13.7c4.4-2,8.7-4.2,12.8-6.5L2448,1108L2448,1108z"/>
						<path class="st2" d="M2454.7,1134.5v32.5c-13.3,14.6-31.1,27.7-52.1,37.4c-33.8,15.7-68.8,19.3-95.6,12.1V1194
							c25.8,4.8,57.6,0.6,88.5-13.7C2420.5,1168.8,2440.9,1152.4,2454.7,1134.5z"/>
						<path class="st2" d="M2454.7,1200.3v32.5c-13.3,14.6-31.1,27.7-52.1,37.4c-33.8,15.7-68.8,19.3-95.6,12.1v-22.5
							c25.8,4.8,57.6,0.6,88.5-13.7C2420.5,1234.5,2440.9,1218.2,2454.7,1200.3z"/>
						<path class="st2" d="M2454.7,1266v32.5c-13.3,14.6-31.1,27.7-52.1,37.4c-33.8,15.7-68.8,19.3-95.6,12.1v-22.5
							c25.8,4.8,57.6,0.6,88.5-13.7C2420.5,1300.3,2440.9,1284,2454.7,1266z"/>
						<path class="st2" d="M2454.7,1331.8v32.5c-13.3,14.6-31.1,27.7-52.1,37.5c-3.4,1.6-6.9,3-10.3,4.4c-3.7,0.1-7.6,0.2-11.4,0.2
							c-20.4,0-38.9-1.8-52.3-4.7c-12.1-2.6-20.1-6.2-21.4-10.2c25.8,4.8,57.5,0.6,88.4-13.8
							C2420.5,1366,2440.9,1349.7,2454.7,1331.8z"/>
					</g>
					<ellipse class="st3" cx="2380.7" cy="1108" rx="73.9" ry="16.1"/>
					<path class="st4" d="M2444.6,1108c0,1.2-0.7,2.4-2.1,3.6c-7.2,6-32.1,10.4-61.8,10.4c-29.6,0-54.6-4.4-61.8-10.4
						c-1.4-1.2-2.1-2.3-2.1-3.6c0-7.7,28.6-14,63.9-14C2416,1094,2444.6,1100.3,2444.6,1108z"/>
					<path class="st5" d="M2442.5,1111.5c-7.2,6-32.1,10.4-61.8,10.4c-29.6,0-54.6-4.4-61.8-10.4c7.2-6,32.1-10.4,61.8-10.4
						C2410.4,1101.1,2435.3,1105.5,2442.5,1111.5z"/>
					<g>
						<path class="st6" d="M2374.7,1069.5c-8.5-0.4-16.3-4.9-21.2-11.9c-8.1-11.8-20.4-35.1-10.5-57.9c14-32.1,33.8-97.5,31.6-128.9
							c-2.2-31.3,18.7-6.9,21.2,34C2398,942.3,2422.4,1071.6,2374.7,1069.5z"/>
						<path class="st7" d="M2376.5,1066.1c-0.2,0-0.4,0-0.6,0c-4.5-0.2-8.8-2.6-11.4-6.5c-6.7-9.7-16.8-28.7-9.4-45.9
							c8.9-20.3,22.7-60.6,29.1-95.4c0.5,6.2,1.4,14.1,2.4,22.9c2.4,21.4,5.4,48.1,5.6,72.3c0.1,34-5.8,45.8-9.4,49.8
							C2381,1065.2,2379.1,1066.1,2376.5,1066.1z"/>
						<path class="st8" d="M2376.5,1059.7c-0.1,0-0.2,0-0.3,0c-2.1-0.1-4.2-1.3-5.5-3.2c-5.8-8.5-14.6-24.7-8.6-38.4
							c5-11.5,12.5-31.6,19.1-54.2c1.7,16.5,3.2,34.4,3.2,51c0.1,34.4-6.2,43.2-7.4,44.6c-0.1,0.1-0.2,0.2-0.2,0.2
							C2376.7,1059.7,2376.6,1059.7,2376.5,1059.7z"/>
						
							<linearGradient id="SVGID_8_" gradientUnits="userSpaceOnUse" x1="2378.3965" y1="828.9903" x2="2378.3965" y2="759.4153" gradientTransform="matrix(1 0 0 -1 0 1870.8976)">
							<stop  offset="0" style="stop-color:#EB2325"/>
							<stop  offset="0.3017" style="stop-color:#2D2A2A"/>
							<stop  offset="0.4999" style="stop-color:#302B2A"/>
							<stop  offset="0.6221" style="stop-color:#38302A"/>
							<stop  offset="0.7237" style="stop-color:#47382A"/>
							<stop  offset="0.814" style="stop-color:#5B432A"/>
							<stop  offset="0.8969" style="stop-color:#765129"/>
							<stop  offset="0.9732" style="stop-color:#966329"/>
							<stop  offset="1" style="stop-color:#A36A29"/>
						</linearGradient>
						<path class="st16" d="M2385.1,1090.9c0.1-0.6,0.2-1.3,0.3-1.9c1-5.6,2-11.4,0.2-17.3c-0.8-2.7-2.3-5.2-3.6-7.6
							c-0.7-1.2-1.3-2.3-1.9-3.4c-2.9-5.8-4.1-12.2-3.5-18.3l-6.4-0.5c-0.7,6.9,0.6,14,3.9,20.6c0.6,1.2,1.3,2.4,2,3.6
							c1.3,2.3,2.5,4.5,3.2,6.7c1.5,4.9,0.6,10-0.3,15.4c-0.1,0.7-0.2,1.3-0.3,1.9c-1.2,7-1.9,14.1-1.9,21.2l6.5,0.2
							C2383.3,1104.6,2384,1097.7,2385.1,1090.9z"/>
					</g>
				</g>
			</g>
		</g>
	</g>
</g>
</svg>
