<?xml version="1.0" encoding="utf-8"?>
<!-- Generator: Adobe Illustrator 24.1.2, SVG Export Plug-In . SVG Version: 6.00 Build 0)  -->
<svg version="1.1" id="Слой_3" xmlns="http://www.w3.org/2000/svg" xmlns:xlink="http://www.w3.org/1999/xlink" x="0px" y="0px"
	 viewBox="0 0 9459.7 3180.3" style="enable-background:new 0 0 9459.7 3180.3;" xml:space="preserve">
<style type="text/css">
	.st0{display:none;fill:#FB8218;}
	.st1{display:none;fill:#7F221A;}
	.st2{display:none;fill:#FF9852;stroke:#000000;stroke-miterlimit:10;}
	.st3{display:none;opacity:0.37;fill:#FFF8F3;}
	.st4{display:none;opacity:0.33;}
	.st5{display:inline;fill:#63110D;}
	.st6{opacity:0.66;fill:#7F221A;}
	.st7{fill:#FECC99;}
	.st8{fill:#F04624;}
	.st9{fill:#FCE1CA;}
	.st10{fill:#C08F52;}
	.st11{fill:#DAA369;}
	.st12{fill:#F4CC21;}
	.st13{fill:#F6E92D;}
	.st14{fill:#F9F6BD;}
	.st15{fill:url(#SVGID_1_);}
	.st16{fill:url(#SVGID_2_);}
	.st17{fill:url(#SVGID_3_);}
	.st18{fill:url(#SVGID_4_);}
	.st19{fill:url(#SVGID_5_);}
	.st20{fill:url(#SVGID_6_);}
	.st21{fill:url(#SVGID_7_);}
	.st22{fill:url(#SVGID_8_);}
	.st23{fill:url(#SVGID_9_);}
	.st24{fill:url(#SVGID_10_);}
	.st25{fill:url(#SVGID_11_);}
	.st26{fill:url(#SVGID_12_);}
</style>
<path class="st0" d="M-313.8,2460.9v3747c0,682.5,2257.6,1235.7,5042.6,1235.7S9771.3,6890.4,9771.3,6208v-3747H-313.8z"/>
<path class="st1" d="M4728.8,6282.7c-2784.9,0-5042.6-553.3-5042.6-1235.7v544.8c0,682.5,2257.6,1235.7,5042.6,1235.7
	s5042.6-553.3,5042.6-1235.7V5047C9771.3,5729.5,7513.7,6282.7,4728.8,6282.7z"/>
<path class="st1" d="M4728.8,5043.7c-2784.9,0-5042.6-553.3-5042.6-1235.7v544.8c0,682.5,2257.6,1235.7,5042.6,1235.7
	s5042.6-553.3,5042.6-1235.7v-544.8C9771.3,4490.4,7513.7,5043.7,4728.8,5043.7z"/>
<ellipse class="st2" cx="4728.8" cy="2460.9" rx="5042.5" ry="1235.7"/>
<path class="st3" d="M4728.8,3577.1c-2703.1,0-4909.4-521.2-5036.7-1175.9c-3.9,19.8-5.9,39.7-5.9,59.8
	c0,682.5,2257.6,1235.7,5042.6,1235.7s5042.6-553.3,5042.6-1235.7c0-20-2-40-5.9-59.8C9638.2,3055.8,7431.9,3577.1,4728.8,3577.1z"
	/>
<g class="st4">
	<circle class="st5" cx="1398.6" cy="5880.8" r="78.1"/>
	<circle class="st5" cx="1949.2" cy="5886.6" r="50.7"/>
	<circle class="st5" cx="2633.5" cy="5712.2" r="123.7"/>
	<circle class="st5" cx="3355.2" cy="5897.4" r="61.5"/>
	
		<ellipse transform="matrix(0.1602 -0.9871 0.9871 0.1602 -2822.8286 8978.5234)" class="st5" cx="3865.1" cy="6148.2" rx="79.7" ry="79.7"/>
	<circle class="st5" cx="3308.7" cy="6369.1" r="108"/>
	<circle class="st5" cx="4599.2" cy="6516.9" r="69.8"/>
	
		<ellipse transform="matrix(0.7071 -0.7071 0.7071 0.7071 -2792.0066 5285.1309)" class="st5" cx="4983.7" cy="6012.8" rx="75.6" ry="75.6"/>
	<circle class="st5" cx="4327.6" cy="5712.2" r="123.7"/>
	
		<ellipse transform="matrix(0.2298 -0.9732 0.9732 0.2298 -2281.2278 7812.7739)" class="st5" cx="3795.3" cy="5347.6" rx="76.4" ry="76.4"/>
	<path class="st5" d="M3785.4,5012.1c0,33-26.8,59.8-59.8,59.8c-33,0-59.8-26.8-59.8-59.8c0-33,26.8-59.8,59.8-59.8
		C3758.6,4952.3,3785.4,4979.1,3785.4,5012.1z"/>
	
		<ellipse transform="matrix(0.2298 -0.9732 0.9732 0.2298 -3330.4177 5614.625)" class="st5" cx="1882" cy="4911.4" rx="100.7" ry="100.7"/>
	
		<ellipse transform="matrix(0.7071 -0.7071 0.7071 0.7071 -3188.2239 3129.3918)" class="st5" cx="2183.4" cy="5413.2" rx="65.6" ry="65.6"/>
	<circle class="st5" cx="1736.9" cy="5457.6" r="44.3"/>
	<circle class="st5" cx="179.5" cy="4469" r="54.8"/>
	<path class="st5" d="M199.6,4892c0,33.3-27,60.4-60.4,60.4s-60.4-27-60.4-60.4c0-33.3,27-60.4,60.4-60.4S199.6,4858.6,199.6,4892z"
		/>
	<path class="st5" d="M456.9,5327.7c0,31.2-25.3,56.5-56.5,56.5c-31.2,0-56.5-25.3-56.5-56.5c0-31.2,25.3-56.5,56.5-56.5
		C431.6,5271.2,456.9,5296.5,456.9,5327.7z"/>
	<circle class="st5" cx="-93.7" cy="4999.7" r="47.3"/>
	<circle class="st5" cx="413.7" cy="5653.2" r="103"/>
	
		<ellipse transform="matrix(0.7071 -0.7071 0.7071 0.7071 -4172.7432 2222.4692)" class="st5" cx="596.4" cy="6148.2" rx="79.7" ry="79.7"/>
	<path class="st5" d="M400.4,6397.3c0,15.6-12.6,28.2-28.2,28.2c-15.6,0-28.2-12.6-28.2-28.2c0-15.6,12.6-28.2,28.2-28.2
		C387.8,6369.1,400.4,6381.7,400.4,6397.3z"/>
	<circle class="st5" cx="-7.1" cy="6029.2" r="39.3"/>
	
		<ellipse transform="matrix(0.7071 -0.7071 0.7071 0.7071 -4381.9858 2680.6477)" class="st5" cx="1044.8" cy="6629.8" rx="69.8" ry="69.8"/>
	<path class="st5" d="M1310.6,6345.8c0,28.4-23.1,51.5-51.5,51.5c-28.4,0-51.5-23.1-51.5-51.5s23.1-51.5,51.5-51.5
		C1287.5,6294.3,1310.6,6317.4,1310.6,6345.8z"/>
	
		<ellipse transform="matrix(0.7071 -0.7071 0.7071 0.7071 -4261.2373 3136.0854)" class="st5" cx="1655" cy="6711.8" rx="82" ry="82"/>
	<circle class="st5" cx="2223.3" cy="6359.9" r="65.6"/>
	
		<ellipse transform="matrix(0.7071 -0.7071 0.7071 0.7071 -4195.5449 3750.2793)" class="st5" cx="2429.2" cy="6939.6" rx="112.1" ry="112.1"/>
	<path class="st5" d="M975.1,5644.9c0,31.2-25.3,56.5-56.5,56.5c-31.2,0-56.5-25.3-56.5-56.5c0-31.2,25.3-56.5,56.5-56.5
		C949.8,5588.4,975.1,5613.7,975.1,5644.9z"/>
	<circle class="st5" cx="186.8" cy="4043.2" r="47.6"/>
	<circle class="st5" cx="-177.6" cy="4244.8" r="36.5"/>
	<circle class="st5" cx="3341.9" cy="6967" r="74.7"/>
	<path class="st5" d="M3094.4,6613.2c0,29.4-23.8,53.1-53.1,53.1c-29.4,0-53.2-23.8-53.2-53.1c0-29.4,23.8-53.2,53.2-53.2
		C3070.6,6560.1,3094.4,6583.9,3094.4,6613.2z"/>
	<path class="st5" d="M3041.3,7020.2c0,29.4-23.8,53.1-53.2,53.1c-29.4,0-53.1-23.8-53.1-53.1c0-29.4,23.8-53.1,53.1-53.1
		C3017.5,6967,3041.3,6990.8,3041.3,7020.2z"/>
	<circle class="st5" cx="2765.6" cy="6158.1" r="69.8"/>
	
		<ellipse transform="matrix(0.1602 -0.9871 0.9871 0.1602 -416.4704 9740.3496)" class="st5" cx="5516" cy="5114.9" rx="83.2" ry="83.2"/>
	<circle class="st5" cx="5354.9" cy="5409.1" r="61.5"/>
	<circle class="st5" cx="4966.1" cy="5528.4" r="57.9"/>
	<circle class="st5" cx="5560.9" cy="5910.7" r="74.7"/>
	<circle class="st5" cx="6121.4" cy="5941.4" r="44"/>
	<path class="st5" d="M5914.7,5648.2c0,17.4-14.1,31.6-31.6,31.6c-17.4,0-31.6-14.1-31.6-31.6c0-17.4,14.1-31.6,31.6-31.6
		C5900.5,5616.7,5914.7,5630.8,5914.7,5648.2z"/>
	<circle class="st5" cx="5708.7" cy="6487" r="73.1"/>
	<path class="st5" d="M5271.9,6391.5c0,12.4-10,22.4-22.4,22.4s-22.4-10-22.4-22.4c0-12.4,10-22.4,22.4-22.4
		S5271.9,6379.1,5271.9,6391.5z"/>
	<circle class="st5" cx="4874.2" cy="6348.2" r="65.7"/>
	<path class="st5" d="M3983,6408.1c0,21.6-17.5,39-39,39c-21.6,0-39-17.5-39-39c0-21.6,17.5-39,39-39
		C3965.5,6369.1,3983,6386.6,3983,6408.1z"/>
	<path class="st5" d="M4227.2,6209.6c0,28.4-23.1,51.5-51.5,51.5s-51.5-23.1-51.5-51.5s23.1-51.5,51.5-51.5
		S4227.2,6181.2,4227.2,6209.6z"/>
	<circle class="st5" cx="4100.9" cy="6822.5" r="69.8"/>
	<circle class="st5" cx="4738.7" cy="6862.4" r="69.7"/>
	<path class="st5" d="M5441.3,6709.6c0,23.9-19.3,43.2-43.2,43.2c-23.9,0-43.2-19.3-43.2-43.2c0-23.8,19.3-43.2,43.2-43.2
		C5422,6666.4,5441.3,6685.7,5441.3,6709.6z"/>
	<circle class="st5" cx="5325" cy="7148.9" r="75.6"/>
	<circle class="st5" cx="4945.9" cy="7111.1" r="37.8"/>
	<circle class="st5" cx="4443.2" cy="7151.1" r="40"/>
	
		<ellipse transform="matrix(0.1602 -0.9871 0.9871 0.1602 -3845.0791 9763.4785)" class="st5" cx="3815.3" cy="7141.4" rx="89.7" ry="89.7"/>
	<circle class="st5" cx="6117.3" cy="7025.1" r="132.9"/>
	
		<ellipse transform="matrix(0.7071 -0.7071 0.7071 0.7071 -2680.6653 6681.6992)" class="st5" cx="6725.2" cy="6576.7" rx="129.6" ry="129.6"/>
	
		<ellipse transform="matrix(0.2298 -0.9732 0.9732 0.2298 -690.7427 11685.0869)" class="st5" cx="7037" cy="6278.9" rx="69.3" ry="69.3"/>
	<circle class="st5" cx="7344.3" cy="5961.7" r="51.1"/>
	<circle class="st5" cx="7982.8" cy="5691.7" r="45.1"/>
	<circle class="st5" cx="8610.3" cy="5465.5" r="41.5"/>
	<circle class="st5" cx="9110.3" cy="5387.5" r="83"/>
	
		<ellipse transform="matrix(0.7071 -0.7071 0.7071 0.7071 -1569.8369 8058.8213)" class="st5" cx="8942.9" cy="5924.4" rx="88.4" ry="88.4"/>
	<circle class="st5" cx="8354.1" cy="6050.6" r="37.8"/>
	
		<ellipse transform="matrix(0.9239 -0.3827 0.3827 0.9239 -1866.244 3552.6523)" class="st5" cx="7997.1" cy="6467.5" rx="119.2" ry="119.2"/>
	<circle class="st5" cx="7618.8" cy="6174.8" r="86.4"/>
	
		<ellipse transform="matrix(0.7071 -0.7071 0.7071 0.7071 -1522.1505 6827.6079)" class="st5" cx="7480.6" cy="5251.2" rx="136.3" ry="136.3"/>
	<path class="st5" d="M7891.1,5204.7c0,25.7-20.8,46.5-46.5,46.5c-25.7,0-46.5-20.8-46.5-46.5c0-25.7,20.8-46.5,46.5-46.5
		C7870.3,5158.3,7891.1,5179.1,7891.1,5204.7z"/>
	<path class="st5" d="M8376.1,5115.1c0,23.8-19.3,43.2-43.2,43.2c-23.9,0-43.2-19.3-43.2-43.2c0-23.9,19.3-43.2,43.2-43.2
		C8356.8,5071.9,8376.1,5091.2,8376.1,5115.1z"/>
	<circle class="st5" cx="8929.2" cy="4814.5" r="74.7"/>
	<path class="st5" d="M9370,4788.2c0,26.8-21.7,48.5-48.5,48.5c-26.8,0-48.5-21.7-48.5-48.5c0-26.8,21.7-48.5,48.5-48.5
		C9348.3,4739.7,9370,4761.4,9370,4788.2z"/>
	
		<ellipse transform="matrix(0.7071 -0.7071 0.7071 0.7071 -441.4868 7697.7354)" class="st5" cx="9071.2" cy="4381.8" rx="67.3" ry="67.3"/>
	<circle class="st5" cx="9570.4" cy="4756.3" r="58.1"/>
	<path class="st5" d="M9570.4,5164.1c0,27.1-21.9,49-49,49s-49-21.9-49-49c0-27.1,21.9-49,49-49S9570.4,5137,9570.4,5164.1z"/>
	<circle class="st5" cx="9601.9" cy="5706.4" r="89.7"/>
	<circle class="st5" cx="9264.7" cy="5676.7" r="60.1"/>
	<circle class="st5" cx="9389" cy="6166.6" r="116"/>
	<path class="st5" d="M9138.5,6445.1c0,29.6-24,53.6-53.6,53.6s-53.6-24-53.6-53.6c0-29.6,24-53.6,53.6-53.6
		S9138.5,6415.5,9138.5,6445.1z"/>
	<circle class="st5" cx="8669.9" cy="6407.8" r="59.6"/>
	<circle class="st5" cx="8420.6" cy="6859.1" r="66.4"/>
	
		<ellipse transform="matrix(0.7071 -0.7071 0.7071 0.7071 -2595.9121 7397.8555)" class="st5" cx="7632" cy="6832.5" rx="99.6" ry="99.6"/>
	<circle class="st5" cx="6910.8" cy="6995.7" r="56.1"/>
	<path class="st5" d="M6573.2,6881.1c0,32.3-26.2,58.5-58.5,58.5c-32.3,0-58.5-26.2-58.5-58.5c0-32.3,26.2-58.5,58.5-58.5
		C6547,6822.5,6573.2,6848.7,6573.2,6881.1z"/>
	
		<ellipse transform="matrix(0.2298 -0.9732 0.9732 0.2298 -368.4029 11168.6787)" class="st5" cx="6871.9" cy="5817.1" rx="80.3" ry="80.3"/>
	<path class="st5" d="M6306.8,6127.5c0,21.6-17.5,39.1-39.1,39.1c-21.6,0-39.1-17.5-39.1-39.1c0-21.6,17.5-39.1,39.1-39.1
		C6289.3,6088.4,6306.8,6105.9,6306.8,6127.5z"/>
	
		<ellipse transform="matrix(0.9239 -0.3827 0.3827 0.9239 -2005.2511 2829.8416)" class="st5" cx="6110.7" cy="6455.5" rx="86.4" ry="86.4"/>
	<path class="st5" d="M7454.2,4733.2c0,30.4-24.6,55-55,55s-55-24.6-55-55c0-30.4,24.6-55,55-55S7454.2,4702.9,7454.2,4733.2z"/>
</g>
<g>
	<ellipse class="st6" cx="4765" cy="3139.1" rx="280.2" ry="73.1"/>
	<g>
		<ellipse class="st6" cx="1900.5" cy="2026.3" rx="280.2" ry="73.1"/>
		<g>
			<path class="st7" d="M2132.6,1129.9v886c0,25.3-85,46.3-196.1,50.1c-11.7,0.4-23.7,0.6-36,0.6c-64.1,0-122.1-5.7-164.1-14.8
				c-38.1-8.3-63-19.5-67.3-31.9v0c-0.5-1.3-0.7-2.6-0.7-3.9v-886H2132.6z"/>
			<g>
				<path class="st8" d="M2111.7,1129.9c-38.8,37.2-87.2,70.4-142.9,96.2c-106.2,49.2-215.8,60.4-300.4,38.1v-70.6
					c81.1,15.2,181.1,1.9,278.2-43.1c13.9-6.4,27.3-13.3,40.3-20.6H2111.7z"/>
				<path class="st8" d="M2132.6,1213v102.1c-41.8,45.8-97.6,86.9-163.7,117.5c-106.2,49.2-215.8,60.4-300.4,38.1v-70.6
					c81.1,15.2,181.1,1.9,278.2-43.1C2025.3,1320.6,2089.4,1269.3,2132.6,1213z"/>
				<path class="st8" d="M2132.6,1419.5v102.1c-41.8,45.8-97.6,86.9-163.7,117.5c-106.2,49.2-215.8,60.4-300.4,38.1v-70.6
					c81.1,15.2,181.1,1.9,278.2-43.1C2025.3,1527.2,2089.4,1475.8,2132.6,1419.5z"/>
				<path class="st8" d="M2132.6,1626.1v102.1c-41.8,45.8-97.6,86.9-163.7,117.5c-106.2,49.2-215.8,60.4-300.4,38.1v-70.6
					c81.1,15.2,181.1,1.9,278.2-43.1C2025.3,1733.7,2089.4,1682.3,2132.6,1626.1z"/>
				<path class="st8" d="M2132.6,1832.6v102.1c-41.8,45.8-97.6,86.9-163.7,117.5c-10.8,5-21.5,9.6-32.3,13.8
					c-11.7,0.4-23.7,0.6-36,0.6c-64.1,0-122.1-5.7-164.1-14.8c-38.1-8.3-63-19.5-67.3-31.9c80.9,15,180.7,1.6,277.5-43.2
					C2025.3,1940.2,2089.4,1888.9,2132.6,1832.6z"/>
			</g>
			<ellipse class="st9" cx="1900.5" cy="1129.7" rx="232.1" ry="50.7"/>
			<path class="st10" d="M2101,1129.7c0,3.9-2.3,7.6-6.6,11.2c-22.6,18.8-100.9,32.6-193.9,32.6s-171.3-13.8-193.9-32.6
				c-4.3-3.6-6.6-7.3-6.6-11.2c0-24.2,89.8-43.8,200.5-43.8C2011.3,1085.9,2101,1105.5,2101,1129.7z"/>
			<path class="st11" d="M2094.4,1140.9c-22.6,18.8-100.9,32.6-193.9,32.6s-171.3-13.8-193.9-32.6c22.6-18.8,100.9-32.6,193.9-32.6
				S2071.8,1122.1,2094.4,1140.9z"/>
			<g>
				<path class="st12" d="M1881.5,1008.8c-26.8-1.2-51.3-15.4-66.5-37.5c-25.4-37-64-110.5-33-181.8c44-101,106.1-306.3,99.2-404.7
					c-6.9-98.4,58.7-21.6,66.4,107C1954.8,609.5,2031.3,1015.5,1881.5,1008.8z"/>
				<path class="st13" d="M1887.1,998c-0.6,0-1.2,0-1.9,0c-14.1-0.6-27.6-8.3-36-20.6c-21-30.7-52.8-90.1-29.3-144
					c27.9-63.9,71.1-190.3,91.5-299.6c1.6,19.6,4.4,44.3,7.5,72.1c7.6,67.2,17.1,150.9,17.4,227c0.4,106.8-18.3,143.8-29.5,156.3
					C1901.2,995.5,1895.5,998,1887.1,998z M1922.6,389.5"/>
				<path class="st14" d="M1887.1,978.3c-0.3,0-0.5,0-0.8,0c-6.5-0.3-13.1-4.2-17.2-10.1c-18.2-26.5-46-77.5-27.1-120.7
					c15.7-36.1,39.3-99.4,60.1-170.2c5.3,51.8,10,107.9,10.2,160.1c0.4,108.1-19.4,135.7-23.4,140.1c-0.3,0.4-0.6,0.6-0.7,0.8
					C1887.9,978.2,1887.6,978.3,1887.1,978.3z"/>
				<linearGradient id="SVGID_1_" gradientUnits="userSpaceOnUse" x1="1893.1505" y1="922.3138" x2="1893.1505" y2="1140.8552">
					<stop  offset="0" style="stop-color:#EB2325"/>
					<stop  offset="0.3017" style="stop-color:#2D2A2A"/>
					<stop  offset="0.4999" style="stop-color:#302B2A"/>
					<stop  offset="0.6221" style="stop-color:#38302A"/>
					<stop  offset="0.7237" style="stop-color:#47382A"/>
					<stop  offset="0.814" style="stop-color:#5B432A"/>
					<stop  offset="0.8969" style="stop-color:#765129"/>
					<stop  offset="0.9732" style="stop-color:#966329"/>
					<stop  offset="1" style="stop-color:#A36A29"/>
				</linearGradient>
				<path class="st15" d="M1914.3,1076c0.3-2,0.7-4,1-5.9c3.2-17.7,6.4-36,0.7-54.3c-2.7-8.4-7.1-16.2-11.4-23.8
					c-2.1-3.7-4-7.1-5.8-10.7c-9.2-18.2-12.9-38.1-10.9-57.5l-20.2-1.6c-2.3,21.8,2,44.1,12.3,64.6c1.9,3.9,4.1,7.6,6.2,11.3
					c4.1,7.2,8,14,10.2,21.1c4.8,15.3,2,31.4-1.1,48.3c-0.4,2-0.7,4-1.1,6c-3.8,22.1-5.8,44.3-6.1,66.6l20.3,0.6
					C1908.7,1119.2,1910.6,1097.5,1914.3,1076z"/>
			</g>
		</g>
	</g>
	<g>
		<ellipse class="st6" cx="3355.2" cy="1897.8" rx="280.2" ry="73.1"/>
		<g>
			<path class="st7" d="M3587.3,1001.4v886c0,25.3-85,46.3-196.1,50.1c-11.7,0.4-23.7,0.6-36,0.6c-64.1,0-122.1-5.7-164.1-14.8
				c-38.1-8.3-63-19.5-67.3-31.9v0c-0.5-1.3-0.7-2.6-0.7-3.9v-886H3587.3z"/>
			<g>
				<path class="st8" d="M3566.4,1001.4c-38.8,37.2-87.2,70.4-142.9,96.2c-106.2,49.2-215.8,60.4-300.4,38.1V1065
					c81.1,15.2,181.1,1.9,278.2-43.1c13.9-6.4,27.3-13.3,40.3-20.6H3566.4z"/>
				<path class="st8" d="M3587.3,1084.4v102.1c-41.8,45.8-97.6,86.9-163.7,117.5c-106.2,49.2-215.8,60.4-300.4,38.1v-70.6
					c81.1,15.2,181.1,1.9,278.2-43.1C3480,1192.1,3544,1140.7,3587.3,1084.4z"/>
				<path class="st8" d="M3587.3,1291v102.1c-41.8,45.8-97.6,86.9-163.7,117.5c-106.2,49.2-215.8,60.4-300.4,38.1v-70.6
					c81.1,15.2,181.1,1.9,278.2-43.1C3480,1398.6,3544,1347.3,3587.3,1291z"/>
				<path class="st8" d="M3587.3,1497.5v102.1c-41.8,45.8-97.6,86.9-163.7,117.5c-106.2,49.2-215.8,60.4-300.4,38.1v-70.6
					c81.1,15.2,181.1,1.9,278.2-43.1C3480,1605.1,3544,1553.8,3587.3,1497.5z"/>
				<path class="st8" d="M3587.3,1704v102.1c-41.8,45.8-97.6,86.9-163.7,117.5c-10.8,5-21.5,9.6-32.3,13.8
					c-11.7,0.4-23.7,0.6-36,0.6c-64.1,0-122.1-5.7-164.1-14.8c-38.1-8.3-63-19.5-67.3-31.9c80.9,15,180.7,1.6,277.5-43.2
					C3480,1811.6,3544,1760.3,3587.3,1704z"/>
			</g>
			<ellipse class="st9" cx="3355.2" cy="1001.1" rx="232.1" ry="50.7"/>
			<path class="st10" d="M3555.7,1001.1c0,3.9-2.3,7.6-6.6,11.2c-22.6,18.8-100.9,32.6-193.9,32.6s-171.3-13.8-193.9-32.6
				c-4.3-3.6-6.6-7.3-6.6-11.2c0-24.2,89.8-43.8,200.5-43.8C3465.9,957.3,3555.7,976.9,3555.7,1001.1z"/>
			<path class="st11" d="M3549.1,1012.3c-22.6,18.8-100.9,32.6-193.9,32.6s-171.3-13.8-193.9-32.6c22.6-18.8,100.9-32.6,193.9-32.6
				S3526.5,993.5,3549.1,1012.3z"/>
			<g>
				<path class="st12" d="M3336.2,880.2c-26.8-1.2-51.3-15.4-66.5-37.5c-25.4-37-64-110.5-33-181.8c44-101,106.1-306.3,99.2-404.7
					c-6.9-98.4,58.7-21.6,66.4,107C3409.5,480.9,3485.9,886.9,3336.2,880.2z"/>
				<path class="st13" d="M3341.8,869.5c-0.6,0-1.2,0-1.9,0c-14.1-0.6-27.6-8.3-36-20.6c-21-30.7-52.8-90.1-29.3-144
					c27.9-63.9,71.1-190.3,91.5-299.6c1.6,19.6,4.4,44.3,7.5,72.1c7.6,67.2,17.1,150.9,17.4,227c0.4,106.8-18.3,143.8-29.5,156.3
					C3355.9,866.9,3350.2,869.5,3341.8,869.5z M3377.2,261"/>
				<path class="st14" d="M3341.8,849.7c-0.3,0-0.5,0-0.8,0c-6.5-0.3-13.1-4.2-17.2-10.1c-18.2-26.5-46-77.5-27.1-120.7
					c15.7-36.1,39.3-99.4,60.1-170.2c5.3,51.8,10,107.9,10.2,160.1c0.4,108.1-19.4,135.7-23.4,140.1c-0.3,0.4-0.6,0.6-0.7,0.8
					C3342.6,849.7,3342.2,849.7,3341.8,849.7z"/>
				<linearGradient id="SVGID_2_" gradientUnits="userSpaceOnUse" x1="3347.8296" y1="793.7454" x2="3347.8296" y2="1012.2869">
					<stop  offset="0" style="stop-color:#EB2325"/>
					<stop  offset="0.3017" style="stop-color:#2D2A2A"/>
					<stop  offset="0.4999" style="stop-color:#302B2A"/>
					<stop  offset="0.6221" style="stop-color:#38302A"/>
					<stop  offset="0.7237" style="stop-color:#47382A"/>
					<stop  offset="0.814" style="stop-color:#5B432A"/>
					<stop  offset="0.8969" style="stop-color:#765129"/>
					<stop  offset="0.9732" style="stop-color:#966329"/>
					<stop  offset="1" style="stop-color:#A36A29"/>
				</linearGradient>
				<path class="st16" d="M3369,947.5c0.3-2,0.7-4,1-5.9c3.2-17.7,6.4-36,0.7-54.3c-2.7-8.4-7.1-16.2-11.4-23.8
					c-2.1-3.7-4-7.1-5.8-10.7c-9.2-18.2-12.9-38.1-10.9-57.5l-20.2-1.6c-2.3,21.8,2,44.1,12.3,64.6c1.9,3.9,4.1,7.6,6.2,11.3
					c4.1,7.2,8,14,10.2,21.1c4.8,15.3,2,31.4-1.1,48.3c-0.4,2-0.7,4-1.1,6c-3.8,22.1-5.8,44.3-6.1,66.6l20.3,0.6
					C3363.4,990.6,3365.3,968.9,3369,947.5z"/>
			</g>
		</g>
	</g>
	<g>
		<ellipse class="st6" cx="6110.7" cy="1890.9" rx="280.2" ry="73.1"/>
		<g>
			<path class="st7" d="M6342.7,994.5v886c0,25.3-85,46.3-196.1,50.1c-11.7,0.4-23.7,0.6-36,0.6c-64.1,0-122.1-5.7-164.1-14.8
				c-38.1-8.3-63-19.5-67.3-31.9v0c-0.5-1.3-0.7-2.6-0.7-3.9v-886H6342.7z"/>
			<g>
				<path class="st8" d="M6321.9,994.5c-38.8,37.2-87.2,70.4-142.9,96.2c-106.2,49.2-215.8,60.4-300.4,38.1v-70.6
					c81.1,15.2,181.1,1.9,278.2-43.1c13.9-6.4,27.3-13.3,40.3-20.6H6321.9z"/>
				<path class="st8" d="M6342.7,1077.6v102.1c-41.8,45.8-97.6,86.9-163.7,117.5c-106.2,49.2-215.8,60.4-300.4,38.1v-70.6
					c81.1,15.2,181.1,1.9,278.2-43.1C6235.5,1185.2,6299.5,1133.8,6342.7,1077.6z"/>
				<path class="st8" d="M6342.7,1284.1v102.1c-41.8,45.8-97.6,86.9-163.7,117.5c-106.2,49.2-215.8,60.4-300.4,38.1v-70.6
					c81.1,15.2,181.1,1.9,278.2-43.1C6235.5,1391.7,6299.5,1340.4,6342.7,1284.1z"/>
				<path class="st8" d="M6342.7,1490.6v102.1c-41.8,45.8-97.6,86.9-163.7,117.5c-106.2,49.2-215.8,60.4-300.4,38.1v-70.6
					c81.1,15.2,181.1,1.9,278.2-43.1C6235.5,1598.2,6299.5,1546.9,6342.7,1490.6z"/>
				<path class="st8" d="M6342.7,1697.1v102.1c-41.8,45.8-97.6,86.9-163.7,117.5c-10.8,5-21.5,9.6-32.3,13.8
					c-11.7,0.4-23.7,0.6-36,0.6c-64.1,0-122.1-5.7-164.1-14.8c-38.1-8.3-63-19.5-67.3-31.9c80.9,15,180.7,1.6,277.5-43.2
					C6235.5,1804.7,6299.5,1753.4,6342.7,1697.1z"/>
			</g>
			<ellipse class="st9" cx="6110.6" cy="994.2" rx="232.1" ry="50.7"/>
			<path class="st10" d="M6311.2,994.2c0,3.9-2.3,7.6-6.6,11.2c-22.6,18.8-100.9,32.6-193.9,32.6s-171.3-13.8-193.9-32.6
				c-4.3-3.6-6.6-7.3-6.6-11.2c0-24.2,89.8-43.8,200.5-43.8C6221.4,950.4,6311.2,970,6311.2,994.2z"/>
			<path class="st11" d="M6304.6,1005.4c-22.6,18.8-100.9,32.6-193.9,32.6s-171.3-13.8-193.9-32.6c22.6-18.8,100.9-32.6,193.9-32.6
				S6281.9,986.6,6304.6,1005.4z"/>
			<g>
				<path class="st12" d="M6091.6,873.3c-26.8-1.2-51.3-15.4-66.5-37.5c-25.4-37-64-110.5-33-181.8c44-101,106.1-306.3,99.2-404.7
					c-6.9-98.4,58.7-21.6,66.4,107C6164.9,474,6241.4,880,6091.6,873.3z"/>
				<path class="st13" d="M6097.2,862.6c-0.6,0-1.2,0-1.9,0c-14.1-0.6-27.6-8.3-36-20.6c-21-30.7-52.8-90.1-29.3-144
					c27.9-63.9,71.1-190.3,91.5-299.6c1.6,19.6,4.4,44.3,7.5,72.1c7.6,67.2,17.1,150.9,17.4,227c0.4,106.8-18.3,143.8-29.5,156.3
					C6111.3,860,6105.6,862.6,6097.2,862.6z M6132.7,254.1"/>
				<path class="st14" d="M6097.2,842.8c-0.3,0-0.5,0-0.8,0c-6.5-0.3-13.1-4.2-17.2-10.1c-18.2-26.5-46-77.5-27.1-120.7
					c15.7-36.1,39.3-99.4,60.1-170.2c5.3,51.8,10,107.9,10.2,160.1c0.4,108.1-19.4,135.7-23.4,140.1c-0.3,0.4-0.6,0.6-0.7,0.8
					C6098,842.8,6097.7,842.8,6097.2,842.8z"/>
				<linearGradient id="SVGID_3_" gradientUnits="userSpaceOnUse" x1="6103.3003" y1="786.8541" x2="6103.3003" y2="1005.3956">
					<stop  offset="0" style="stop-color:#EB2325"/>
					<stop  offset="0.3017" style="stop-color:#2D2A2A"/>
					<stop  offset="0.4999" style="stop-color:#302B2A"/>
					<stop  offset="0.6221" style="stop-color:#38302A"/>
					<stop  offset="0.7237" style="stop-color:#47382A"/>
					<stop  offset="0.814" style="stop-color:#5B432A"/>
					<stop  offset="0.8969" style="stop-color:#765129"/>
					<stop  offset="0.9732" style="stop-color:#966329"/>
					<stop  offset="1" style="stop-color:#A36A29"/>
				</linearGradient>
				<path class="st17" d="M6124.5,940.6c0.3-2,0.7-4,1-5.9c3.2-17.7,6.4-36,0.7-54.3c-2.7-8.4-7.1-16.2-11.4-23.8
					c-2.1-3.7-4-7.1-5.8-10.7c-9.2-18.2-12.9-38.1-10.9-57.5l-20.2-1.6c-2.3,21.8,2,44.1,12.3,64.6c1.9,3.9,4.1,7.6,6.2,11.3
					c4.1,7.2,8,14,10.2,21.1c4.8,15.3,2,31.4-1.1,48.3c-0.4,2-0.7,4-1.1,6c-3.8,22.1-5.8,44.3-6.1,66.6l20.3,0.6
					C6118.8,983.7,6120.8,962,6124.5,940.6z"/>
			</g>
		</g>
	</g>
	<g>
		<ellipse class="st6" cx="7644.1" cy="2021.3" rx="280.2" ry="73.1"/>
		<g>
			<path class="st7" d="M7876.2,1124.9v886c0,25.3-85,46.3-196.1,50.1c-11.7,0.4-23.7,0.6-36,0.6c-64.1,0-122.1-5.7-164.1-14.8
				c-38.1-8.3-63-19.5-67.3-31.9v0c-0.5-1.3-0.7-2.6-0.7-3.9v-886H7876.2z"/>
			<g>
				<path class="st8" d="M7855.3,1124.9c-38.8,37.2-87.2,70.4-142.9,96.2c-106.2,49.2-215.8,60.4-300.4,38.1v-70.6
					c81.1,15.2,181.1,1.9,278.2-43.1c13.9-6.4,27.3-13.3,40.3-20.6H7855.3z"/>
				<path class="st8" d="M7876.2,1207.9V1310c-41.8,45.8-97.6,86.9-163.7,117.5c-106.2,49.2-215.8,60.4-300.4,38.1v-70.6
					c81.1,15.2,181.1,1.9,278.2-43.1C7768.9,1315.6,7832.9,1264.2,7876.2,1207.9z"/>
				<path class="st8" d="M7876.2,1414.5v102.1c-41.8,45.8-97.6,86.9-163.7,117.5c-106.2,49.2-215.8,60.4-300.4,38.1v-70.6
					c81.1,15.2,181.1,1.9,278.2-43.1C7768.9,1522.1,7832.9,1470.8,7876.2,1414.5z"/>
				<path class="st8" d="M7876.2,1621v102.1c-41.8,45.8-97.6,86.9-163.7,117.5c-106.2,49.2-215.8,60.4-300.4,38.1v-70.6
					c81.1,15.2,181.1,1.9,278.2-43.1C7768.9,1728.6,7832.9,1677.3,7876.2,1621z"/>
				<path class="st8" d="M7876.2,1827.5v102.1c-41.8,45.8-97.6,86.9-163.7,117.5c-10.8,5-21.5,9.6-32.3,13.8
					c-11.7,0.4-23.7,0.6-36,0.6c-64.1,0-122.1-5.7-164.1-14.8c-38.1-8.3-63-19.5-67.3-31.9c80.9,15,180.7,1.6,277.5-43.2
					C7768.9,1935.1,7832.9,1883.8,7876.2,1827.5z"/>
			</g>
			<ellipse class="st9" cx="7644.1" cy="1124.6" rx="232.1" ry="50.7"/>
			<path class="st10" d="M7844.6,1124.6c0,3.9-2.3,7.6-6.6,11.2c-22.6,18.8-100.9,32.6-193.9,32.6s-171.3-13.8-193.9-32.6
				c-4.3-3.6-6.6-7.3-6.6-11.2c0-24.2,89.8-43.8,200.5-43.8C7754.8,1080.8,7844.6,1100.4,7844.6,1124.6z"/>
			<path class="st11" d="M7838,1135.8c-22.6,18.8-100.9,32.6-193.9,32.6s-171.3-13.8-193.9-32.6c22.6-18.8,100.9-32.6,193.9-32.6
				S7815.4,1117,7838,1135.8z"/>
			<g>
				<path class="st12" d="M7625.1,1003.7c-26.8-1.2-51.3-15.4-66.5-37.5c-25.4-37-64-110.5-33-181.8c44-101,106.1-306.3,99.2-404.7
					c-6.9-98.4,58.7-21.6,66.4,107C7698.4,604.4,7774.8,1010.4,7625.1,1003.7z"/>
				<path class="st13" d="M7630.7,993c-0.6,0-1.2,0-1.9,0c-14.1-0.6-27.6-8.3-36-20.6c-21-30.7-52.8-90.1-29.3-144
					c27.9-63.9,71.1-190.3,91.5-299.6c1.6,19.6,4.4,44.3,7.5,72.1c7.6,67.2,17.1,150.9,17.4,227c0.4,106.8-18.3,143.8-29.5,156.3
					C7644.8,990.4,7639.1,993,7630.7,993z M7666.1,384.5"/>
				<path class="st14" d="M7630.7,973.2c-0.3,0-0.5,0-0.8,0c-6.5-0.3-13.1-4.2-17.2-10.1c-18.2-26.5-46-77.5-27.1-120.7
					c15.7-36.1,39.3-99.4,60.1-170.2c5.3,51.8,10,107.9,10.2,160.1c0.4,108.1-19.4,135.7-23.4,140.1c-0.3,0.4-0.6,0.6-0.7,0.8
					C7631.5,973.2,7631.1,973.2,7630.7,973.2z"/>
				<linearGradient id="SVGID_4_" gradientUnits="userSpaceOnUse" x1="7636.7236" y1="917.2464" x2="7636.7236" y2="1135.7878">
					<stop  offset="0" style="stop-color:#EB2325"/>
					<stop  offset="0.3017" style="stop-color:#2D2A2A"/>
					<stop  offset="0.4999" style="stop-color:#302B2A"/>
					<stop  offset="0.6221" style="stop-color:#38302A"/>
					<stop  offset="0.7237" style="stop-color:#47382A"/>
					<stop  offset="0.814" style="stop-color:#5B432A"/>
					<stop  offset="0.8969" style="stop-color:#765129"/>
					<stop  offset="0.9732" style="stop-color:#966329"/>
					<stop  offset="1" style="stop-color:#A36A29"/>
				</linearGradient>
				<path class="st18" d="M7657.9,1071c0.3-2,0.7-4,1-5.9c3.2-17.7,6.4-36,0.7-54.3c-2.7-8.4-7.1-16.2-11.4-23.8
					c-2.1-3.7-4-7.1-5.8-10.7c-9.2-18.2-12.9-38.1-10.9-57.5l-20.2-1.6c-2.3,21.8,2,44.1,12.3,64.6c1.9,3.9,4.1,7.6,6.2,11.3
					c4.1,7.2,8,14,10.2,21.1c4.8,15.3,2,31.4-1.1,48.3c-0.4,2-0.7,4-1.1,6c-3.8,22.1-5.8,44.3-6.1,66.6l20.3,0.6
					C7652.2,1114.1,7654.2,1092.4,7657.9,1071z"/>
			</g>
		</g>
	</g>
	<g>
		<ellipse class="st6" cx="4729.8" cy="1877.5" rx="280.2" ry="73.1"/>
		<g>
			<path class="st7" d="M4961.9,981.1v886c0,25.3-85,46.3-196.1,50.1c-11.7,0.4-23.7,0.6-36,0.6c-64.1,0-122.1-5.7-164.1-14.8
				c-38.1-8.3-63-19.5-67.3-31.9v0c-0.5-1.3-0.7-2.6-0.7-3.9v-886H4961.9z"/>
			<g>
				<path class="st8" d="M4941,981.1c-38.8,37.2-87.2,70.4-142.9,96.2c-106.2,49.2-215.8,60.4-300.4,38.1v-70.6
					c81.1,15.2,181.1,1.9,278.2-43.1c13.9-6.4,27.3-13.3,40.3-20.6H4941z"/>
				<path class="st8" d="M4961.9,1064.2v102.1c-41.8,45.8-97.6,86.9-163.7,117.5c-106.2,49.2-215.8,60.4-300.4,38.1v-70.6
					c81.1,15.2,181.1,1.9,278.2-43.1C4854.6,1171.9,4918.7,1120.5,4961.9,1064.2z"/>
				<path class="st8" d="M4961.9,1270.7v102.1c-41.8,45.8-97.6,86.9-163.7,117.5c-106.2,49.2-215.8,60.4-300.4,38.1v-70.6
					c81.1,15.2,181.1,1.9,278.2-43.1C4854.6,1378.4,4918.7,1327,4961.9,1270.7z"/>
				<path class="st8" d="M4961.9,1477.3v102.1c-41.8,45.8-97.6,86.9-163.7,117.5c-106.2,49.2-215.8,60.4-300.4,38.1v-70.6
					c81.1,15.2,181.1,1.9,278.2-43.1C4854.6,1584.9,4918.7,1533.6,4961.9,1477.3z"/>
				<path class="st8" d="M4961.9,1683.8v102.1c-41.8,45.8-97.6,86.9-163.7,117.5c-10.8,5-21.5,9.6-32.3,13.8
					c-11.7,0.4-23.7,0.6-36,0.6c-64.1,0-122.1-5.7-164.1-14.8c-38.1-8.3-63-19.5-67.3-31.9c80.9,15,180.7,1.6,277.5-43.2
					C4854.6,1791.4,4918.7,1740.1,4961.9,1683.8z"/>
			</g>
			<ellipse class="st9" cx="4729.8" cy="980.9" rx="232.1" ry="50.7"/>
			<path class="st10" d="M4930.3,980.9c0,3.9-2.3,7.6-6.6,11.2c-22.6,18.8-100.9,32.6-193.9,32.6s-171.3-13.8-193.9-32.6
				c-4.3-3.6-6.6-7.3-6.6-11.2c0-24.2,89.8-43.8,200.5-43.8C4840.6,937.1,4930.3,956.7,4930.3,980.9z"/>
			<path class="st11" d="M4923.7,992.1c-22.6,18.8-100.9,32.6-193.9,32.6s-171.3-13.8-193.9-32.6c22.6-18.8,100.9-32.6,193.9-32.6
				S4901.1,973.3,4923.7,992.1z"/>
			<g>
				<path class="st12" d="M4710.8,860c-26.8-1.2-51.3-15.4-66.5-37.5c-25.4-37-64-110.5-33-181.8c44-101,106.1-306.3,99.2-404.7
					c-6.9-98.4,58.7-21.6,66.4,107C4784.1,460.7,4860.6,866.7,4710.8,860z"/>
				<path class="st13" d="M4716.4,849.2c-0.6,0-1.2,0-1.9,0c-14.1-0.6-27.6-8.3-36-20.6c-21-30.7-52.8-90.1-29.3-144
					c27.9-63.9,71.1-190.3,91.5-299.6c1.6,19.6,4.4,44.3,7.5,72.1c7.6,67.2,17.1,150.9,17.4,227c0.4,106.8-18.3,143.8-29.5,156.3
					C4730.5,846.7,4724.8,849.2,4716.4,849.2z M4751.9,240.8"/>
				<path class="st14" d="M4716.4,829.5c-0.3,0-0.5,0-0.8,0c-6.5-0.3-13.1-4.2-17.2-10.1c-18.2-26.5-46-77.5-27.1-120.7
					c15.7-36.1,39.3-99.4,60.1-170.2c5.3,51.8,10,107.9,10.2,160.1c0.4,108.1-19.4,135.7-23.4,140.1c-0.3,0.4-0.6,0.6-0.7,0.8
					C4717.2,829.5,4716.9,829.5,4716.4,829.5z"/>
				<linearGradient id="SVGID_5_" gradientUnits="userSpaceOnUse" x1="4722.4512" y1="773.5246" x2="4722.4512" y2="992.066">
					<stop  offset="0" style="stop-color:#EB2325"/>
					<stop  offset="0.3017" style="stop-color:#2D2A2A"/>
					<stop  offset="0.4999" style="stop-color:#302B2A"/>
					<stop  offset="0.6221" style="stop-color:#38302A"/>
					<stop  offset="0.7237" style="stop-color:#47382A"/>
					<stop  offset="0.814" style="stop-color:#5B432A"/>
					<stop  offset="0.8969" style="stop-color:#765129"/>
					<stop  offset="0.9732" style="stop-color:#966329"/>
					<stop  offset="1" style="stop-color:#A36A29"/>
				</linearGradient>
				<path class="st19" d="M4743.6,927.2c0.3-2,0.7-4,1-5.9c3.2-17.7,6.4-36,0.7-54.3c-2.7-8.4-7.1-16.2-11.4-23.8
					c-2.1-3.7-4-7.1-5.8-10.7c-9.2-18.2-12.9-38.1-10.9-57.5l-20.2-1.6c-2.3,21.8,2,44.1,12.3,64.6c1.9,3.9,4.1,7.6,6.2,11.3
					c4.1,7.2,8,14,10.2,21.1c4.8,15.3,2,31.4-1.1,48.3c-0.4,2-0.7,4-1.1,6c-3.8,22.1-5.8,44.3-6.1,66.6l20.3,0.6
					C4738,970.4,4739.9,948.7,4743.6,927.2z"/>
			</g>
		</g>
	</g>
	<g>
		<ellipse class="st6" cx="516.7" cy="2413.4" rx="280.2" ry="73.1"/>
		<g>
			<path class="st7" d="M748.7,1517v886c0,25.3-85,46.3-196.1,50.1c-11.7,0.4-23.7,0.6-36,0.6c-64.1,0-122.1-5.7-164.1-14.8
				c-38.1-8.3-63-19.5-67.3-31.9v0c-0.5-1.3-0.7-2.6-0.7-3.9v-886H748.7z"/>
			<g>
				<path class="st8" d="M727.9,1517c-38.8,37.2-87.2,70.4-142.9,96.2c-106.2,49.2-215.8,60.4-300.4,38.1v-70.6
					c81.1,15.2,181.1,1.9,278.2-43.1c13.9-6.4,27.3-13.3,40.3-20.6H727.9z"/>
				<path class="st8" d="M748.7,1600v102.1c-41.8,45.8-97.6,86.9-163.7,117.5c-106.2,49.2-215.8,60.4-300.4,38.1v-70.6
					c81.1,15.2,181.1,1.9,278.2-43.1C641.5,1707.7,705.5,1656.3,748.7,1600z"/>
				<path class="st8" d="M748.7,1806.6v102.1c-41.8,45.8-97.6,86.9-163.7,117.5c-106.2,49.2-215.8,60.4-300.4,38.1v-70.6
					c81.1,15.2,181.1,1.9,278.2-43.1C641.5,1914.2,705.5,1862.9,748.7,1806.6z"/>
				<path class="st8" d="M748.7,2013.1v102.1c-41.8,45.8-97.6,86.9-163.7,117.5c-106.2,49.2-215.8,60.4-300.4,38.1v-70.6
					c81.1,15.2,181.1,1.9,278.2-43.1C641.5,2120.7,705.5,2069.4,748.7,2013.1z"/>
				<path class="st8" d="M748.7,2219.6v102.1c-41.8,45.8-97.6,86.9-163.7,117.5c-10.8,5-21.5,9.6-32.3,13.8
					c-11.7,0.4-23.7,0.6-36,0.6c-64.1,0-122.1-5.7-164.1-14.8c-38.1-8.3-63-19.5-67.3-31.9c80.9,15,180.7,1.6,277.5-43.2
					C641.5,2327.2,705.5,2275.9,748.7,2219.6z"/>
			</g>
			<ellipse class="st9" cx="516.7" cy="1516.7" rx="232.1" ry="50.7"/>
			<path class="st10" d="M717.2,1516.7c0,3.9-2.3,7.6-6.6,11.2c-22.6,18.8-100.9,32.6-193.9,32.6s-171.3-13.8-193.9-32.6
				c-4.3-3.6-6.6-7.3-6.6-11.2c0-24.2,89.8-43.8,200.5-43.8C627.4,1472.9,717.2,1492.5,717.2,1516.7z"/>
			<path class="st11" d="M710.6,1527.9c-22.6,18.8-100.9,32.6-193.9,32.6s-171.3-13.8-193.9-32.6c22.6-18.8,100.9-32.6,193.9-32.6
				S688,1509.1,710.6,1527.9z"/>
			<g>
				<path class="st12" d="M497.6,1395.8c-26.8-1.2-51.3-15.4-66.5-37.5c-25.4-37-64-110.5-33-181.8c44-101,106.1-306.3,99.2-404.7
					c-6.9-98.4,58.7-21.6,66.4,107C570.9,996.5,647.4,1402.5,497.6,1395.8z"/>
				<path class="st13" d="M503.2,1385.1c-0.6,0-1.2,0-1.9,0c-14.1-0.6-27.6-8.3-36-20.6c-21-30.7-52.8-90.1-29.3-144
					c27.9-63.9,71.1-190.3,91.5-299.6c1.6,19.6,4.4,44.3,7.5,72.1c7.6,67.2,17.1,150.9,17.4,227c0.4,106.8-18.3,143.8-29.5,156.3
					C517.4,1382.5,511.6,1385.1,503.2,1385.1z M538.7,776.6"/>
				<path class="st14" d="M503.3,1365.3c-0.3,0-0.5,0-0.8,0c-6.5-0.3-13.1-4.2-17.2-10.1c-18.2-26.5-46-77.5-27.1-120.7
					c15.7-36.1,39.3-99.4,60.1-170.2c5.3,51.8,10,107.9,10.2,160.1c0.4,108.1-19.4,135.7-23.4,140.1c-0.3,0.4-0.6,0.6-0.7,0.8
					C504,1365.3,503.7,1365.3,503.3,1365.3z"/>
				<linearGradient id="SVGID_6_" gradientUnits="userSpaceOnUse" x1="509.3124" y1="1309.347" x2="509.3124" y2="1527.8885">
					<stop  offset="0" style="stop-color:#EB2325"/>
					<stop  offset="0.3017" style="stop-color:#2D2A2A"/>
					<stop  offset="0.4999" style="stop-color:#302B2A"/>
					<stop  offset="0.6221" style="stop-color:#38302A"/>
					<stop  offset="0.7237" style="stop-color:#47382A"/>
					<stop  offset="0.814" style="stop-color:#5B432A"/>
					<stop  offset="0.8969" style="stop-color:#765129"/>
					<stop  offset="0.9732" style="stop-color:#966329"/>
					<stop  offset="1" style="stop-color:#A36A29"/>
				</linearGradient>
				<path class="st20" d="M530.5,1463.1c0.3-2,0.7-4,1-5.9c3.2-17.7,6.4-36,0.7-54.3c-2.7-8.4-7.1-16.2-11.4-23.8
					c-2.1-3.7-4-7.1-5.8-10.7c-9.2-18.2-12.9-38.1-10.9-57.5l-20.2-1.6c-2.3,21.8,2,44.1,12.3,64.6c1.9,3.9,4.1,7.6,6.2,11.3
					c4.1,7.2,8,14,10.2,21.1c4.8,15.3,2,31.4-1.1,48.3c-0.4,2-0.7,4-1.1,6c-3.8,22.1-5.8,44.3-6.1,66.6l20.3,0.6
					C524.8,1506.2,526.8,1484.5,530.5,1463.1z"/>
			</g>
		</g>
	</g>
	<g>
		<ellipse class="st6" cx="8942.9" cy="2420.2" rx="280.2" ry="73.1"/>
		<g>
			<path class="st7" d="M9175,1523.8v886c0,25.3-85,46.3-196.1,50.1c-11.7,0.4-23.8,0.6-36,0.6c-64.1,0-122.1-5.7-164.1-14.8
				c-38.1-8.3-63-19.5-67.3-31.9v0c-0.5-1.3-0.7-2.6-0.7-3.9v-886H9175z"/>
			<g>
				<path class="st8" d="M9154.2,1523.8c-38.8,37.2-87.2,70.4-142.9,96.2c-106.2,49.2-215.8,60.4-300.4,38.1v-70.6
					c81.1,15.2,181.1,1.9,278.2-43.1c13.9-6.4,27.3-13.3,40.3-20.6H9154.2z"/>
				<path class="st8" d="M9175,1606.9V1709c-41.8,45.8-97.6,86.9-163.8,117.5c-106.2,49.2-215.8,60.4-300.4,38.1V1794
					c81.1,15.2,181.1,1.9,278.2-43.1C9067.7,1714.5,9131.8,1663.1,9175,1606.9z"/>
				<path class="st8" d="M9175,1813.4v102.1c-41.8,45.8-97.6,86.9-163.8,117.5c-106.2,49.2-215.8,60.4-300.4,38.1v-70.6
					c81.1,15.2,181.1,1.9,278.2-43.1C9067.7,1921,9131.8,1869.7,9175,1813.4z"/>
				<path class="st8" d="M9175,2019.9V2122c-41.8,45.8-97.6,86.9-163.8,117.5c-106.2,49.2-215.8,60.4-300.4,38.1V2207
					c81.1,15.2,181.1,1.9,278.2-43.1C9067.7,2127.5,9131.8,2076.2,9175,2019.9z"/>
				<path class="st8" d="M9175,2226.4v102.1c-41.8,45.8-97.6,86.9-163.7,117.5c-10.8,5-21.5,9.6-32.3,13.8
					c-11.7,0.4-23.8,0.6-36,0.6c-64.1,0-122.1-5.7-164.1-14.8c-38.1-8.3-63-19.5-67.3-31.9c80.9,15,180.7,1.6,277.5-43.2
					C9067.7,2334,9131.8,2282.7,9175,2226.4z"/>
			</g>
			<ellipse class="st9" cx="8942.9" cy="1523.5" rx="232.1" ry="50.7"/>
			<path class="st10" d="M9143.5,1523.5c0,3.9-2.3,7.6-6.6,11.2c-22.6,18.8-100.9,32.6-193.9,32.6s-171.3-13.8-193.9-32.6
				c-4.3-3.6-6.6-7.3-6.6-11.2c0-24.2,89.8-43.8,200.5-43.8C9053.7,1479.7,9143.5,1499.3,9143.5,1523.5z"/>
			<path class="st11" d="M9136.9,1534.7c-22.6,18.8-100.9,32.6-193.9,32.6s-171.3-13.8-193.9-32.6c22.6-18.8,100.9-32.6,193.9-32.6
				S9114.2,1515.9,9136.9,1534.7z"/>
			<g>
				<path class="st12" d="M8923.9,1402.6c-26.8-1.2-51.3-15.4-66.5-37.5c-25.4-37-64-110.5-33-181.8c44-101,106.1-306.3,99.2-404.7
					c-6.9-98.4,58.7-21.6,66.4,107C8997.2,1003.3,9073.7,1409.4,8923.9,1402.6z"/>
				<path class="st13" d="M8929.5,1391.9c-0.6,0-1.2,0-1.9,0c-14.1-0.6-27.6-8.3-36-20.6c-21-30.7-52.8-90.1-29.3-144
					c27.9-63.9,71.1-190.3,91.5-299.6c1.6,19.6,4.4,44.3,7.5,72.1c7.6,67.2,17.1,150.9,17.4,227c0.4,106.8-18.3,143.8-29.5,156.3
					C8943.6,1389.3,8937.9,1391.9,8929.5,1391.9z M8965,783.4"/>
				<path class="st14" d="M8929.5,1372.1c-0.3,0-0.5,0-0.8,0c-6.5-0.3-13.1-4.2-17.2-10.1c-18.2-26.5-46-77.5-27.1-120.7
					c15.7-36.1,39.3-99.4,60.1-170.2c5.3,51.8,10,107.9,10.2,160.1c0.4,108.1-19.4,135.7-23.4,140.1c-0.3,0.4-0.6,0.6-0.7,0.8
					C8930.3,1372.1,8930,1372.1,8929.5,1372.1z"/>
				<linearGradient id="SVGID_7_" gradientUnits="userSpaceOnUse" x1="8935.5898" y1="1316.1575" x2="8935.5898" y2="1534.6989">
					<stop  offset="0" style="stop-color:#EB2325"/>
					<stop  offset="0.3017" style="stop-color:#2D2A2A"/>
					<stop  offset="0.4999" style="stop-color:#302B2A"/>
					<stop  offset="0.6221" style="stop-color:#38302A"/>
					<stop  offset="0.7237" style="stop-color:#47382A"/>
					<stop  offset="0.814" style="stop-color:#5B432A"/>
					<stop  offset="0.8969" style="stop-color:#765129"/>
					<stop  offset="0.9732" style="stop-color:#966329"/>
					<stop  offset="1" style="stop-color:#A36A29"/>
				</linearGradient>
				<path class="st21" d="M8956.8,1469.9c0.3-2,0.7-4,1-5.9c3.2-17.7,6.4-36,0.7-54.3c-2.7-8.4-7.1-16.2-11.4-23.8
					c-2.1-3.7-4-7.1-5.8-10.7c-9.2-18.2-12.9-38.1-10.9-57.5l-20.2-1.6c-2.3,21.8,2,44.1,12.3,64.6c1.9,3.9,4.1,7.6,6.2,11.3
					c4.1,7.2,8,14,10.2,21.1c4.8,15.3,2,31.4-1.1,48.3c-0.4,2-0.7,4-1.1,6c-3.8,22.1-5.8,44.3-6.1,66.6l20.3,0.6
					C8951.1,1513,8953.1,1491.4,8956.8,1469.9z"/>
			</g>
		</g>
	</g>
	<g>
		<ellipse class="st6" cx="1890.1" cy="2943.5" rx="280.2" ry="73.1"/>
		<g>
			<path class="st7" d="M2122.2,2047.1v886c0,25.3-85,46.3-196.1,50.1c-11.7,0.4-23.7,0.6-36,0.6c-64.1,0-122.1-5.7-164.1-14.8
				c-38.1-8.3-63-19.5-67.3-31.9v0c-0.5-1.3-0.7-2.6-0.7-3.9v-886H2122.2z"/>
			<g>
				<path class="st8" d="M2101.3,2047.1c-38.8,37.2-87.2,70.4-142.9,96.2c-106.2,49.2-215.8,60.4-300.4,38.1v-70.6
					c81.1,15.2,181.1,1.9,278.2-43.1c13.9-6.4,27.3-13.3,40.3-20.6H2101.3z"/>
				<path class="st8" d="M2122.2,2130.2v102.1c-41.8,45.8-97.6,86.9-163.7,117.5c-106.2,49.2-215.8,60.4-300.4,38.1v-70.6
					c81.1,15.2,181.1,1.9,278.2-43.1C2014.9,2237.8,2078.9,2186.5,2122.2,2130.2z"/>
				<path class="st8" d="M2122.2,2336.7v102.1c-41.8,45.8-97.6,86.9-163.7,117.5c-106.2,49.2-215.8,60.4-300.4,38.1v-70.6
					c81.1,15.2,181.1,1.9,278.2-43.1C2014.9,2444.3,2078.9,2393,2122.2,2336.7z"/>
				<path class="st8" d="M2122.2,2543.2v102.1c-41.8,45.8-97.6,86.9-163.7,117.5c-106.2,49.2-215.8,60.4-300.4,38.1v-70.6
					c81.1,15.2,181.1,1.9,278.2-43.1C2014.9,2650.9,2078.9,2599.5,2122.2,2543.2z"/>
				<path class="st8" d="M2122.2,2749.7v102.1c-41.8,45.8-97.6,86.9-163.7,117.5c-10.8,5-21.5,9.6-32.3,13.8
					c-11.7,0.4-23.7,0.6-36,0.6c-64.1,0-122.1-5.7-164.1-14.8c-38.1-8.3-63-19.5-67.3-31.9c80.9,15,180.7,1.6,277.5-43.2
					C2014.9,2857.4,2078.9,2806,2122.2,2749.7z"/>
			</g>
			<ellipse class="st9" cx="1890.1" cy="2046.8" rx="232.1" ry="50.7"/>
			<path class="st10" d="M2090.6,2046.8c0,3.9-2.3,7.6-6.6,11.2c-22.6,18.8-100.9,32.6-193.9,32.6s-171.3-13.8-193.9-32.6
				c-4.3-3.6-6.6-7.3-6.6-11.2c0-24.2,89.8-43.8,200.5-43.8C2000.8,2003,2090.6,2022.6,2090.6,2046.8z"/>
			<path class="st11" d="M2084,2058c-22.6,18.8-100.9,32.6-193.9,32.6s-171.3-13.8-193.9-32.6c22.6-18.8,100.9-32.6,193.9-32.6
				S2061.4,2039.3,2084,2058z"/>
			<g>
				<path class="st12" d="M1871.1,1926c-26.8-1.2-51.3-15.4-66.5-37.5c-25.4-37-64-110.5-33-181.8c44-101,106.1-306.3,99.2-404.7
					c-6.9-98.4,58.7-21.6,66.4,107C1944.4,1526.7,2020.8,1932.7,1871.1,1926z"/>
				<path class="st13" d="M1876.7,1915.2c-0.6,0-1.2,0-1.9,0c-14.1-0.6-27.6-8.3-36-20.6c-21-30.7-52.8-90.1-29.3-144
					c27.9-63.9,71.1-190.3,91.5-299.6c1.6,19.6,4.4,44.3,7.5,72.1c7.6,67.2,17.1,150.9,17.4,227c0.4,106.8-18.3,143.8-29.5,156.3
					C1890.8,1912.6,1885.1,1915.2,1876.7,1915.2z M1912.1,1306.7"/>
				<path class="st14" d="M1876.7,1895.4c-0.3,0-0.5,0-0.8,0c-6.5-0.3-13.1-4.2-17.2-10.1c-18.2-26.5-46-77.5-27.1-120.7
					c15.7-36.1,39.3-99.4,60.1-170.2c5.3,51.8,10,107.9,10.2,160.1c0.4,108.1-19.4,135.7-23.4,140.1c-0.3,0.4-0.6,0.6-0.7,0.8
					C1877.5,1895.4,1877.1,1895.4,1876.7,1895.4z"/>
				<linearGradient id="SVGID_8_" gradientUnits="userSpaceOnUse" x1="1882.7301" y1="1839.4816" x2="1882.7301" y2="2058.0229">
					<stop  offset="0" style="stop-color:#EB2325"/>
					<stop  offset="0.3017" style="stop-color:#2D2A2A"/>
					<stop  offset="0.4999" style="stop-color:#302B2A"/>
					<stop  offset="0.6221" style="stop-color:#38302A"/>
					<stop  offset="0.7237" style="stop-color:#47382A"/>
					<stop  offset="0.814" style="stop-color:#5B432A"/>
					<stop  offset="0.8969" style="stop-color:#765129"/>
					<stop  offset="0.9732" style="stop-color:#966329"/>
					<stop  offset="1" style="stop-color:#A36A29"/>
				</linearGradient>
				<path class="st22" d="M1903.9,1993.2c0.3-2,0.7-4,1-5.9c3.2-17.7,6.4-36,0.7-54.3c-2.7-8.4-7.1-16.2-11.4-23.8
					c-2.1-3.7-4-7.1-5.8-10.7c-9.2-18.2-12.9-38.1-10.9-57.5l-20.2-1.6c-2.3,21.8,2,44.1,12.3,64.6c1.9,3.9,4.1,7.6,6.2,11.3
					c4.1,7.2,8,14,10.2,21.1c4.8,15.3,2,31.4-1.1,48.3c-0.4,2-0.7,4-1.1,6c-3.8,22.1-5.8,44.3-6.1,66.6l20.3,0.6
					C1898.3,2036.3,1900.2,2014.7,1903.9,1993.2z"/>
			</g>
		</g>
	</g>
	<g>
		<ellipse class="st6" cx="3377.2" cy="3079.1" rx="280.2" ry="73.1"/>
		<g>
			<path class="st7" d="M3609.3,2182.7v886c0,25.3-85,46.3-196.1,50.1c-11.7,0.4-23.7,0.6-36,0.6c-64.1,0-122.1-5.7-164.1-14.8
				c-38.1-8.3-63-19.5-67.3-31.9v0c-0.5-1.3-0.7-2.6-0.7-3.9v-886H3609.3z"/>
			<g>
				<path class="st8" d="M3588.5,2182.7c-38.8,37.2-87.2,70.4-142.9,96.2c-106.2,49.2-215.8,60.4-300.4,38.1v-70.6
					c81.1,15.2,181.1,1.9,278.2-43.1c13.9-6.4,27.3-13.3,40.3-20.6H3588.5z"/>
				<path class="st8" d="M3609.3,2265.8v102.1c-41.8,45.8-97.6,86.9-163.7,117.5c-106.2,49.2-215.8,60.4-300.4,38.1v-70.6
					c81.1,15.2,181.1,1.9,278.2-43.1C3502,2373.4,3566.1,2322,3609.3,2265.8z"/>
				<path class="st8" d="M3609.3,2472.3v102.1c-41.8,45.8-97.6,86.9-163.7,117.5c-106.2,49.2-215.8,60.4-300.4,38.1v-70.6
					c81.1,15.2,181.1,1.9,278.2-43.1C3502,2579.9,3566.1,2528.6,3609.3,2472.3z"/>
				<path class="st8" d="M3609.3,2678.8v102.1c-41.8,45.8-97.6,86.9-163.7,117.5c-106.2,49.2-215.8,60.4-300.4,38.1v-70.6
					c81.1,15.2,181.1,1.9,278.2-43.1C3502,2786.4,3566.1,2735.1,3609.3,2678.8z"/>
				<path class="st8" d="M3609.3,2885.3v102.1c-41.8,45.8-97.6,86.9-163.7,117.5c-10.8,5-21.5,9.6-32.3,13.8
					c-11.7,0.4-23.7,0.6-36,0.6c-64.1,0-122.1-5.7-164.1-14.8c-38.1-8.3-63-19.5-67.3-31.9c80.9,15,180.7,1.6,277.5-43.2
					C3502,2992.9,3566.1,2941.6,3609.3,2885.3z"/>
			</g>
			<ellipse class="st9" cx="3377.2" cy="2182.4" rx="232.1" ry="50.7"/>
			<path class="st10" d="M3577.8,2182.4c0,3.9-2.3,7.6-6.6,11.2c-22.6,18.8-100.9,32.6-193.9,32.6s-171.3-13.8-193.9-32.6
				c-4.3-3.6-6.6-7.3-6.6-11.2c0-24.2,89.8-43.8,200.5-43.8C3488,2138.6,3577.8,2158.2,3577.8,2182.4z"/>
			<path class="st11" d="M3571.2,2193.6c-22.6,18.8-100.9,32.6-193.9,32.6s-171.3-13.8-193.9-32.6c22.6-18.8,100.9-32.6,193.9-32.6
				S3548.5,2174.8,3571.2,2193.6z"/>
			<g>
				<path class="st12" d="M3358.2,2061.5c-26.8-1.2-51.3-15.4-66.5-37.5c-25.4-37-64-110.5-33-181.8c44-101,106.1-306.3,99.2-404.7
					c-6.9-98.4,58.7-21.6,66.4,107C3431.5,1662.2,3508,2068.2,3358.2,2061.5z"/>
				<path class="st13" d="M3363.8,2050.8c-0.6,0-1.2,0-1.9,0c-14.1-0.6-27.6-8.3-36-20.6c-21-30.7-52.8-90.1-29.3-144
					c27.9-63.9,71.1-190.3,91.5-299.6c1.6,19.6,4.4,44.3,7.5,72.1c7.6,67.2,17.1,150.9,17.4,227c0.4,106.8-18.3,143.8-29.5,156.3
					C3377.9,2048.2,3372.2,2050.8,3363.8,2050.8z M3399.3,1442.3"/>
				<path class="st14" d="M3363.8,2031c-0.3,0-0.5,0-0.8,0c-6.5-0.3-13.1-4.2-17.2-10.1c-18.2-26.5-46-77.5-27.1-120.7
					c15.7-36.1,39.3-99.4,60.1-170.2c5.3,51.8,10,107.9,10.2,160.1c0.4,108.1-19.4,135.7-23.4,140.1c-0.3,0.4-0.6,0.6-0.7,0.8
					C3364.6,2031,3364.3,2031,3363.8,2031z"/>
				<linearGradient id="SVGID_9_" gradientUnits="userSpaceOnUse" x1="3369.8843" y1="1975.0498" x2="3369.8843" y2="2193.5913">
					<stop  offset="0" style="stop-color:#EB2325"/>
					<stop  offset="0.3017" style="stop-color:#2D2A2A"/>
					<stop  offset="0.4999" style="stop-color:#302B2A"/>
					<stop  offset="0.6221" style="stop-color:#38302A"/>
					<stop  offset="0.7237" style="stop-color:#47382A"/>
					<stop  offset="0.814" style="stop-color:#5B432A"/>
					<stop  offset="0.8969" style="stop-color:#765129"/>
					<stop  offset="0.9732" style="stop-color:#966329"/>
					<stop  offset="1" style="stop-color:#A36A29"/>
				</linearGradient>
				<path class="st23" d="M3391.1,2128.8c0.3-2,0.7-4,1-5.9c3.2-17.7,6.4-36,0.7-54.3c-2.7-8.4-7.1-16.2-11.4-23.8
					c-2.1-3.7-4-7.1-5.8-10.7c-9.2-18.2-12.9-38.1-10.9-57.5l-20.2-1.6c-2.3,21.8,2,44.1,12.3,64.6c1.9,3.9,4.1,7.6,6.2,11.3
					c4.1,7.2,8,14,10.2,21.1c4.8,15.3,2,31.4-1.1,48.3c-0.4,2-0.7,4-1.1,6c-3.8,22.1-5.8,44.3-6.1,66.6l20.3,0.6
					C3385.4,2171.9,3387.4,2150.2,3391.1,2128.8z"/>
			</g>
		</g>
	</g>
	<g>
		<ellipse class="st6" cx="7636.7" cy="2926.2" rx="280.2" ry="73.1"/>
		<g>
			<path class="st7" d="M7868.8,2029.8v886c0,25.3-85,46.3-196.1,50.1c-11.7,0.4-23.7,0.6-36,0.6c-64.1,0-122.1-5.7-164.1-14.8
				c-38.1-8.3-63-19.5-67.3-31.9v0c-0.5-1.3-0.7-2.6-0.7-3.9v-886H7868.8z"/>
			<g>
				<path class="st8" d="M7848,2029.8c-38.8,37.2-87.2,70.4-142.9,96.2c-106.2,49.2-215.8,60.4-300.4,38.1v-70.6
					c81.1,15.2,181.1,1.9,278.2-43.1c13.9-6.4,27.3-13.3,40.3-20.6H7848z"/>
				<path class="st8" d="M7868.8,2112.9V2215c-41.8,45.8-97.6,86.9-163.8,117.5c-106.2,49.2-215.8,60.4-300.4,38.1V2300
					c81.1,15.2,181.1,1.9,278.2-43.1C7761.5,2220.6,7825.6,2169.2,7868.8,2112.9z"/>
				<path class="st8" d="M7868.8,2319.4v102.1c-41.8,45.8-97.6,86.9-163.8,117.5c-106.2,49.2-215.8,60.4-300.4,38.1v-70.6
					c81.1,15.2,181.1,1.9,278.2-43.1C7761.5,2427.1,7825.6,2375.7,7868.8,2319.4z"/>
				<path class="st8" d="M7868.8,2526v102.1c-41.8,45.8-97.6,86.9-163.8,117.5c-106.2,49.2-215.8,60.4-300.4,38.1v-70.6
					c81.1,15.2,181.1,1.9,278.2-43.1C7761.5,2633.6,7825.6,2582.2,7868.8,2526z"/>
				<path class="st8" d="M7868.8,2732.5v102.1c-41.8,45.8-97.6,86.9-163.7,117.5c-10.8,5-21.5,9.6-32.3,13.8
					c-11.7,0.4-23.7,0.6-36,0.6c-64.1,0-122.1-5.7-164.1-14.8c-38.1-8.3-63-19.5-67.3-31.9c80.9,15,180.7,1.6,277.5-43.2
					C7761.5,2840.1,7825.6,2788.8,7868.8,2732.5z"/>
			</g>
			<ellipse class="st9" cx="7636.7" cy="2029.6" rx="232.1" ry="50.7"/>
			<path class="st10" d="M7837.3,2029.6c0,3.9-2.3,7.6-6.6,11.2c-22.6,18.8-100.9,32.6-193.9,32.6s-171.3-13.8-193.9-32.6
				c-4.3-3.6-6.6-7.3-6.6-11.2c0-24.2,89.8-43.8,200.5-43.8C7747.5,1985.8,7837.3,2005.4,7837.3,2029.6z"/>
			<path class="st11" d="M7830.7,2040.8c-22.6,18.8-100.9,32.6-193.9,32.6s-171.3-13.8-193.9-32.6c22.6-18.8,100.9-32.6,193.9-32.6
				S7808,2022,7830.7,2040.8z"/>
			<g>
				<path class="st12" d="M7617.7,1908.7c-26.8-1.2-51.3-15.4-66.5-37.5c-25.4-37-64-110.5-33-181.8c44-101,106.1-306.3,99.2-404.7
					c-6.9-98.4,58.7-21.6,66.4,107C7691,1509.4,7767.5,1915.4,7617.7,1908.7z"/>
				<path class="st13" d="M7623.3,1897.9c-0.6,0-1.2,0-1.9,0c-14.1-0.6-27.6-8.3-36-20.6c-21-30.7-52.8-90.1-29.3-144
					c27.9-63.9,71.1-190.3,91.5-299.6c1.6,19.6,4.4,44.3,7.5,72.1c7.6,67.2,17.1,150.9,17.4,227c0.4,106.8-18.3,143.8-29.5,156.3
					C7637.4,1895.4,7631.7,1897.9,7623.3,1897.9z M7658.8,1289.5"/>
				<path class="st14" d="M7623.3,1878.2c-0.3,0-0.5,0-0.8,0c-6.5-0.3-13.1-4.2-17.2-10.1c-18.2-26.5-46-77.5-27.1-120.7
					c15.7-36.1,39.3-99.4,60.1-170.2c5.3,51.8,10,107.9,10.2,160.1c0.4,108.1-19.4,135.7-23.4,140.1c-0.3,0.4-0.6,0.6-0.7,0.8
					C7624.1,1878.1,7623.8,1878.2,7623.3,1878.2z"/>
				<linearGradient id="SVGID_10_" gradientUnits="userSpaceOnUse" x1="7629.374" y1="1822.2235" x2="7629.374" y2="2040.7649">
					<stop  offset="0" style="stop-color:#EB2325"/>
					<stop  offset="0.3017" style="stop-color:#2D2A2A"/>
					<stop  offset="0.4999" style="stop-color:#302B2A"/>
					<stop  offset="0.6221" style="stop-color:#38302A"/>
					<stop  offset="0.7237" style="stop-color:#47382A"/>
					<stop  offset="0.814" style="stop-color:#5B432A"/>
					<stop  offset="0.8969" style="stop-color:#765129"/>
					<stop  offset="0.9732" style="stop-color:#966329"/>
					<stop  offset="1" style="stop-color:#A36A29"/>
				</linearGradient>
				<path class="st24" d="M7650.6,1975.9c0.3-2,0.7-4,1-5.9c3.2-17.7,6.4-36,0.7-54.3c-2.7-8.4-7.1-16.2-11.4-23.8
					c-2.1-3.7-4-7.1-5.8-10.7c-9.2-18.2-12.9-38.1-10.9-57.5l-20.2-1.6c-2.3,21.8,2,44.1,12.3,64.6c1.9,3.9,4.1,7.6,6.2,11.3
					c4.1,7.2,8,14,10.2,21.1c4.8,15.3,2,31.4-1.1,48.3c-0.4,2-0.7,4-1.1,6c-3.8,22.1-5.8,44.3-6.1,66.6l20.3,0.6
					C7644.9,2019.1,7646.9,1997.4,7650.6,1975.9z"/>
			</g>
		</g>
	</g>
	<g>
		<ellipse class="st6" cx="6126.2" cy="3085.9" rx="280.2" ry="73.1"/>
		<g>
			<path class="st7" d="M6358.3,2189.5v886c0,25.3-85,46.3-196.1,50.1c-11.7,0.4-23.7,0.6-36,0.6c-64.1,0-122.1-5.7-164.1-14.8
				c-38.1-8.3-63-19.5-67.3-31.9v0c-0.5-1.3-0.7-2.6-0.7-3.9v-886H6358.3z"/>
			<g>
				<path class="st8" d="M6337.5,2189.5c-38.8,37.2-87.2,70.4-142.9,96.2c-106.2,49.2-215.8,60.4-300.4,38.1v-70.6
					c81.1,15.2,181.1,1.9,278.2-43.1c13.9-6.4,27.3-13.3,40.3-20.6H6337.5z"/>
				<path class="st8" d="M6358.3,2272.6v102.1c-41.8,45.8-97.6,86.9-163.7,117.5c-106.2,49.2-215.8,60.4-300.4,38.1v-70.6
					c81.1,15.2,181.1,1.9,278.2-43.1C6251,2380.2,6315.1,2328.8,6358.3,2272.6z"/>
				<path class="st8" d="M6358.3,2479.1v102.1c-41.8,45.8-97.6,86.9-163.7,117.5c-106.2,49.2-215.8,60.4-300.4,38.1v-70.6
					c81.1,15.2,181.1,1.9,278.2-43.1C6251,2586.7,6315.1,2535.4,6358.3,2479.1z"/>
				<path class="st8" d="M6358.3,2685.6v102.1c-41.8,45.8-97.6,86.9-163.7,117.5c-106.2,49.2-215.8,60.4-300.4,38.1v-70.6
					c81.1,15.2,181.1,1.9,278.2-43.1C6251,2793.2,6315.1,2741.9,6358.3,2685.6z"/>
				<path class="st8" d="M6358.3,2892.1v102.1c-41.8,45.8-97.6,86.9-163.7,117.5c-10.8,5-21.5,9.6-32.3,13.8
					c-11.7,0.4-23.7,0.6-36,0.6c-64.1,0-122.1-5.7-164.1-14.8c-38.1-8.3-63-19.5-67.3-31.9c80.9,15,180.7,1.6,277.5-43.2
					C6251,2999.7,6315.1,2948.4,6358.3,2892.1z"/>
			</g>
			<ellipse class="st9" cx="6126.2" cy="2189.2" rx="232.1" ry="50.7"/>
			<path class="st10" d="M6326.8,2189.2c0,3.9-2.3,7.6-6.6,11.2c-22.6,18.8-100.9,32.6-193.9,32.6s-171.3-13.8-193.9-32.6
				c-4.3-3.6-6.6-7.3-6.6-11.2c0-24.2,89.8-43.8,200.5-43.8C6237,2145.4,6326.8,2165,6326.8,2189.2z"/>
			<path class="st11" d="M6320.1,2200.4c-22.6,18.8-100.9,32.6-193.9,32.6s-171.3-13.8-193.9-32.6c22.6-18.8,100.9-32.6,193.9-32.6
				S6297.5,2181.6,6320.1,2200.4z"/>
			<g>
				<path class="st12" d="M6107.2,2068.3c-26.8-1.2-51.3-15.4-66.5-37.5c-25.4-37-64-110.5-33-181.8c44-101,106.1-306.3,99.2-404.7
					c-6.9-98.4,58.7-21.6,66.4,107C6180.5,1669,6257,2075.1,6107.2,2068.3z"/>
				<path class="st13" d="M6112.8,2057.6c-0.6,0-1.2,0-1.9,0c-14.1-0.6-27.6-8.3-36-20.6c-21-30.7-52.8-90.1-29.3-144
					c27.9-63.9,71.1-190.3,91.5-299.6c1.6,19.6,4.4,44.3,7.5,72.1c7.6,67.2,17.1,150.9,17.4,227c0.4,106.8-18.3,143.8-29.5,156.3
					C6126.9,2055,6121.2,2057.6,6112.8,2057.6z M6148.3,1449.1"/>
				<path class="st14" d="M6112.8,2037.8c-0.3,0-0.5,0-0.8,0c-6.5-0.3-13.1-4.2-17.2-10.1c-18.2-26.5-46-77.5-27.1-120.7
					c15.7-36.1,39.3-99.4,60.1-170.2c5.3,51.8,10,107.9,10.2,160.1c0.4,108.1-19.4,135.7-23.4,140.1c-0.3,0.4-0.6,0.6-0.7,0.8
					C6113.6,2037.8,6113.3,2037.8,6112.8,2037.8z"/>
				<linearGradient id="SVGID_11_" gradientUnits="userSpaceOnUse" x1="6118.8662" y1="1981.8601" x2="6118.8662" y2="2200.4016">
					<stop  offset="0" style="stop-color:#EB2325"/>
					<stop  offset="0.3017" style="stop-color:#2D2A2A"/>
					<stop  offset="0.4999" style="stop-color:#302B2A"/>
					<stop  offset="0.6221" style="stop-color:#38302A"/>
					<stop  offset="0.7237" style="stop-color:#47382A"/>
					<stop  offset="0.814" style="stop-color:#5B432A"/>
					<stop  offset="0.8969" style="stop-color:#765129"/>
					<stop  offset="0.9732" style="stop-color:#966329"/>
					<stop  offset="1" style="stop-color:#A36A29"/>
				</linearGradient>
				<path class="st25" d="M6140,2135.6c0.3-2,0.7-4,1-5.9c3.2-17.7,6.4-36,0.7-54.3c-2.7-8.4-7.1-16.2-11.4-23.8
					c-2.1-3.7-4-7.1-5.8-10.7c-9.2-18.2-12.9-38.1-10.9-57.5l-20.2-1.6c-2.3,21.8,2,44.1,12.3,64.6c1.9,3.9,4.1,7.6,6.2,11.3
					c4.1,7.2,8,14,10.2,21.1c4.8,15.3,2,31.4-1.1,48.3c-0.4,2-0.7,4-1.1,6c-3.8,22.1-5.8,44.3-6.1,66.6l20.3,0.6
					C6134.4,2178.7,6136.4,2157.1,6140,2135.6z"/>
			</g>
		</g>
	</g>
	<g>
		<path class="st7" d="M4997.1,2242.6v886c0,25.3-85,46.3-196.1,50.1c-11.7,0.4-23.7,0.6-36,0.6c-64.1,0-122.1-5.7-164.1-14.8
			c-38.1-8.3-63-19.5-67.3-31.9v0c-0.5-1.3-0.7-2.6-0.7-3.9v-886H4997.1z"/>
		<g>
			<path class="st8" d="M4976.3,2242.6c-38.8,37.2-87.2,70.4-142.9,96.2c-106.2,49.2-215.8,60.4-300.4,38.1v-70.6
				c81.1,15.2,181.1,1.9,278.2-43.1c13.9-6.4,27.3-13.3,40.3-20.6H4976.3z"/>
			<path class="st8" d="M4997.1,2325.7v102.1c-41.8,45.8-97.6,86.9-163.7,117.5c-106.2,49.2-215.8,60.4-300.4,38.1v-70.6
				c81.1,15.2,181.1,1.9,278.2-43.1C4889.8,2433.4,4953.9,2382,4997.1,2325.7z"/>
			<path class="st8" d="M4997.1,2532.3v102.1c-41.8,45.8-97.6,86.9-163.7,117.5c-106.2,49.2-215.8,60.4-300.4,38.1v-70.6
				c81.1,15.2,181.1,1.9,278.2-43.1C4889.8,2639.9,4953.9,2588.5,4997.1,2532.3z"/>
			<path class="st8" d="M4997.1,2738.8v102.1c-41.8,45.8-97.6,86.9-163.7,117.5c-106.2,49.2-215.8,60.4-300.4,38.1v-70.6
				c81.1,15.2,181.1,1.9,278.2-43.1C4889.8,2846.4,4953.9,2795.1,4997.1,2738.8z"/>
			<path class="st8" d="M4997.1,2945.3v102.1c-41.8,45.8-97.6,86.9-163.7,117.5c-10.8,5-21.5,9.6-32.3,13.8
				c-11.7,0.4-23.7,0.6-36,0.6c-64.1,0-122.1-5.7-164.1-14.8c-38.1-8.3-63-19.5-67.3-31.9c80.9,15,180.7,1.6,277.5-43.2
				C4889.8,3052.9,4953.9,3001.6,4997.1,2945.3z"/>
		</g>
		<ellipse class="st9" cx="4765" cy="2242.4" rx="232.1" ry="50.7"/>
		<path class="st10" d="M4965.6,2242.4c0,3.9-2.3,7.6-6.6,11.2c-22.6,18.8-100.9,32.6-193.9,32.6s-171.3-13.8-193.9-32.6
			c-4.3-3.6-6.6-7.3-6.6-11.2c0-24.2,89.8-43.8,200.5-43.8C4875.8,2198.6,4965.6,2218.2,4965.6,2242.4z"/>
		<path class="st11" d="M4959,2253.6c-22.6,18.8-100.9,32.6-193.9,32.6s-171.3-13.8-193.9-32.6c22.6-18.8,100.9-32.6,193.9-32.6
			S4936.3,2234.8,4959,2253.6z"/>
		<g>
			<path class="st12" d="M4746,2121.5c-26.8-1.2-51.3-15.4-66.5-37.5c-25.4-37-64-110.5-33-181.8c44-101,106.1-306.3,99.2-404.7
				c-6.9-98.4,58.7-21.6,66.4,107C4819.3,1722.2,4895.8,2128.2,4746,2121.5z"/>
			<path class="st13" d="M4751.6,2110.7c-0.6,0-1.2,0-1.9,0c-14.1-0.6-27.6-8.3-36-20.6c-21-30.7-52.8-90.1-29.3-144
				c27.9-63.9,71.1-190.3,91.5-299.6c1.6,19.6,4.4,44.3,7.5,72.1c7.6,67.2,17.1,150.9,17.4,227c0.4,106.8-18.3,143.8-29.5,156.3
				C4765.7,2108.2,4760,2110.7,4751.6,2110.7z M4787.1,1502.3"/>
			<path class="st14" d="M4751.6,2091c-0.3,0-0.5,0-0.8,0c-6.5-0.3-13.1-4.2-17.2-10.1c-18.2-26.5-46-77.5-27.1-120.7
				c15.7-36.1,39.3-99.4,60.1-170.2c5.3,51.8,10,107.9,10.2,160.1c0.4,108.1-19.4,135.7-23.4,140.2c-0.3,0.4-0.6,0.6-0.7,0.8
				C4752.4,2091,4752.1,2091,4751.6,2091z"/>
			<linearGradient id="SVGID_12_" gradientUnits="userSpaceOnUse" x1="4757.6768" y1="2035.0331" x2="4757.6768" y2="2253.5745">
				<stop  offset="0" style="stop-color:#EB2325"/>
				<stop  offset="0.3017" style="stop-color:#2D2A2A"/>
				<stop  offset="0.4999" style="stop-color:#302B2A"/>
				<stop  offset="0.6221" style="stop-color:#38302A"/>
				<stop  offset="0.7237" style="stop-color:#47382A"/>
				<stop  offset="0.814" style="stop-color:#5B432A"/>
				<stop  offset="0.8969" style="stop-color:#765129"/>
				<stop  offset="0.9732" style="stop-color:#966329"/>
				<stop  offset="1" style="stop-color:#A36A29"/>
			</linearGradient>
			<path class="st26" d="M4778.9,2188.7c0.3-2,0.7-3.9,1-5.9c3.2-17.7,6.4-36,0.7-54.3c-2.7-8.4-7.1-16.2-11.4-23.8
				c-2.1-3.7-4-7.1-5.8-10.7c-9.2-18.2-12.9-38.1-10.9-57.5l-20.2-1.6c-2.3,21.8,2,44.1,12.3,64.6c1.9,3.9,4.1,7.6,6.2,11.3
				c4.1,7.2,8,14,10.2,21.1c4.8,15.3,2,31.4-1.1,48.3c-0.4,2-0.7,4-1.1,6c-3.8,22.1-5.8,44.3-6.1,66.6l20.3,0.6
				C4773.2,2231.9,4775.2,2210.2,4778.9,2188.7z"/>
		</g>
	</g>
</g>
</svg>
