<?xml version="1.0" encoding="utf-8"?>
<!-- Generator: Adobe Illustrator 24.1.2, SVG Export Plug-In . SVG Version: 6.00 Build 0)  -->
<svg version="1.1" xmlns="http://www.w3.org/2000/svg" xmlns:xlink="http://www.w3.org/1999/xlink" x="0px" y="0px"
	 viewBox="0 0 185.5 157.9" style="enable-background:new 0 0 185.5 157.9;" xml:space="preserve">
<style type="text/css">
	.st0{fill:#FFAFB8;}
	.st1{fill:#541408;}
	.st2{fill:#722006;}
	.st3{opacity:0.7;fill:#9E2D0A;}
	.st4{opacity:0.7;fill:#B13316;}
	.st5{opacity:0.5;fill:#B13316;}
	.st6{opacity:0.3;fill:#FFFFFF;}
	.st7{opacity:0.4;fill:#FFFFFF;}
	.st8{fill:url(#SVGID_1_);}
	.st9{fill:url(#SVGID_2_);}
	.st10{fill:url(#SVGID_3_);}
	.st11{fill:url(#SVGID_4_);}
	.st12{fill:url(#SVGID_5_);}
	.st13{fill:url(#SVGID_6_);}
	.st14{fill:url(#SVGID_7_);}
	.st15{fill:url(#SVGID_8_);}
	.st16{fill:url(#SVGID_9_);}
	.st17{fill:url(#SVGID_10_);}
	.st18{fill:url(#SVGID_11_);}
	.st19{fill:url(#SVGID_12_);}
	.st20{fill:url(#SVGID_13_);}
	.st21{fill:url(#SVGID_14_);}
	.st22{fill:url(#SVGID_15_);}
	.st23{fill:#FFFFFF;}
	.st24{opacity:0.25;}
	.st25{fill:url(#SVGID_16_);}
	.st26{opacity:0.2;fill:#FFDB0D;}
	.st27{opacity:0.3;}
	.st28{opacity:0.2;}
	.st29{fill:url(#SVGID_17_);}
	.st30{opacity:0.2;fill:#FFF7EF;}
	.st31{fill:#FF9E0C;}
	.st32{fill:#3B8D14;}
	.st33{fill:#D50506;}
	.st34{opacity:0.4;fill:#FF9E0C;}
	.st35{opacity:0.7;}
	.st36{fill:#622510;}
	.st37{fill:#FF999F;}
	.st38{opacity:0.5;fill:#FFFFFF;}
	.st39{opacity:0.7;fill:#FFFFFF;}
	.st40{opacity:0.25;fill:#070001;}
	.st41{fill:#E50316;}
	.st42{opacity:0.6;fill:#FFFFFF;}
	.st43{fill:#511F14;}
	.st44{opacity:0.3;fill:#070001;}
	.st45{opacity:0.2;fill:#FFFFFF;}
	.st46{fill:url(#SVGID_18_);}
	.st47{fill:url(#SVGID_19_);}
	.st48{fill:url(#SVGID_20_);}
	.st49{fill:url(#SVGID_21_);}
	.st50{fill:url(#SVGID_22_);}
	.st51{fill:url(#SVGID_23_);}
	.st52{fill:url(#SVGID_24_);}
	.st53{fill:url(#SVGID_25_);}
	.st54{fill:url(#SVGID_26_);}
	.st55{fill:url(#SVGID_27_);}
	.st56{fill:url(#SVGID_28_);}
	.st57{fill:url(#SVGID_29_);}
	.st58{fill:url(#SVGID_30_);}
	.st59{fill:url(#SVGID_31_);}
	.st60{fill:url(#SVGID_32_);}
	.st61{fill:url(#SVGID_33_);}
	.st62{fill:url(#SVGID_34_);}
	.st63{opacity:0.2;fill:#070001;}
	.st64{fill:#B4050C;}
	.st65{opacity:0.2;fill:#020000;}
	.st66{opacity:0.3;fill:#020000;}
	.st67{fill:url(#SVGID_35_);}
	.st68{fill:#FFCACF;}
	.st69{fill:url(#SVGID_36_);}
	.st70{fill:#702717;}
	.st71{fill:#531406;}
	.st72{fill:#8E3C2A;}
	.st73{opacity:0.4;fill:#FFA4E7;}
</style>
<g id="Слой_20">
	<rect y="0.1" class="st0" width="185.5" height="157.7"/>
</g>
<g id="Слой_19">
	<g id="Layer_31">
		<g id="Layer_30">
		</g>
		<g id="Layer_25">
		</g>
		<g id="Layer_29">
		</g>
		<g id="Layer_28">
		</g>
		<g id="Layer_26">
			<g id="Layer_27">
			</g>
			<g>
				<path class="st1" d="M9.8,54.5c0.1,0.2,0,0,0.1,0.2C15,71.9,31.3,80.4,47.8,75.8c16.5-4.6,27-21.4,22.1-36.1
					C69.8,39.2,9.8,54.5,9.8,54.5z"/>
				<path class="st2" d="M69.7,43.3c0-0.9,0.8-2.1,0.6-2.9c-0.6-2.3-1.8-2.2-3.6-3.9c-6.2-5.6-18.3-8.6-31.2-5
					c-11.2,3.1-20.2,10.7-23.8,17.6c-1,1.9-1.9,3.4-1.9,4.9c0,0,0,0,0,0c0,0.1,0,0.2,0,0.4c0,0,0,0,0,0c0.3,1.6,1.9,6.6,3.1,7.5
					c0,0,0,0,0,0c0,0,0,0.1,0.1,0.1c0.2,0.6,0.8,1.5,1.8,2.8c0.9,1.1,3.6,4.3,4,4.1c0.3-0.2-4.1-4.9-3.2-6.3
					c0.1-0.1,0.3-0.1,0.5-0.1c0.2,0.1,0.4,0.1,0.6,0.3c0.6,0.5,0.5,1.5,0.7,2.3c-0.2,0.7,0.4,2.1,4.3,5.6c1.9,1.7,5,4.2,5.6,3.7
					c0.5-0.5-3.4-3.6-5.7-7.5c-0.3-0.4,0.7-0.5,0.9-0.8c0.3-0.1,0.5-0.2,0.6-0.1c0.4,0.4,0.6,1,0.9,1.6c0.2,1,1.4,2.6,5.4,5.9
					c2.5,2,6.1,3.7,6.9,3.2c0.6-0.4-4.9-2.9-7.4-8c-0.1-0.2,0.1-0.6,0.4-1c0.8-0.7,1.5-1.4,2.2-1.6c0.7-0.1,1.1,1.6,1.9,2.7
					c0.3,1,1.4,2.5,4.3,5.1c2.2,2,4.9,3.2,5.8,2.4c0.9-0.8,0-1.8-1.5-4.4c-0.9-1.5-2.3-2.6-1.8-4c0.1-0.2,0.1-0.4,0.1-0.6
					c0.6-0.7,0.9-1.3,1.5-1.4c0.5-0.1,1.2,0.7,2.1,1.3c0.6,0.8,0.9,2.1,1.3,3c1.1,2.7,3.4,4.9,4.5,4.5c1.2-0.4,1.8-3.3,1-6.1
					c-0.5-1.7-1-2.3-0.6-4.1c0-0.1,0-0.1,0-0.1c0.2-0.8,0.4-1.4,1-1.6c1-0.4,2-0.1,3.1,0.2c0,0,0,0,0,0c1.2,0.8,0.9,2.1,1.2,3.9
					c0.5,2.9,0.4,4.2,1.6,4.3c1.2,0.1,2.6-2.6,3-5.5c0.5-3.4,0.5-5.2,0.2-6.3c0.3-1.3,0.4-2.6,1.2-3.7c0.4-0.5,1.1-0.4,1.8-0.3
					c0.2,0.2,0.4,0.4,0.4,0.6c1.2,5-1.1,9.5-0.3,9.6c0.8,0.1,2.1-2.5,2.6-5.3c0.6-3.1,0.7-4.9,0.6-5.9c0.4-1.6-0.3-3.5,0.3-4.4
					c0.3-0.4,0.6-0.8,1-1.1c0.3-0.1,0.6-0.2,0.6,0.1c0.4,4.5-0.7,8.9,0,9c0.8,0.1,1.7-3.3,2.2-5.8c1-4.7,0.8-6.4,0.4-7
					C70.6,44.9,69.7,44,69.7,43.3z M12.5,59.3c-0.3-0.8-0.7-1.6-1-2.3c0.1,0.1,0.3,0.2,0.4,0.4C12.4,57.7,12.5,58.4,12.5,59.3z"/>
				<g>
					<path class="st3" d="M10.9,51.8c0-0.1,0.1-0.3,0.1-0.4C11,51.4,11,51.6,10.9,51.8z"/>
					<path class="st4" d="M63.4,52.6c-2.2,3.6-11.3,8.3-16,9.9c-4.7,1.6-15,4.6-27,0.9c-7.7-2.4-9.4-6.6-9.7-9.3c0-0.2,0-0.4,0-0.6
						c0-0.7,0.1-1.3,0.1-1.6c-0.1,0.3-0.1,0.5-0.2,0.8c0-0.1,0-0.1,0-0.1c-1.9,1.5,1.8,8.6,1.2,7.4c-0.4-0.9-0.5-2-0.6-2.6
						c0.5,1.1,1.2,2.1,2.2,3c-0.1,0.6-0.4,2,0.7,3.6c1.4,2,3.5,3.9,3.5,3.9s-4-4.5-2.6-6.2c0.6,0.5,1.3,0.9,2,1.3c0,0,0,0,0,0
						c0,0,0.8,1.5,0.7,2.5c-0.1,1,3.5,5.5,6.6,7.6c3.2,2-1.3-2-2.5-3.5c-1.2-1.6-2.2-3.8,0.8-3.8c1.1,0,2,2.5,2.6,3.4
						c0.6,1,4.6,5.2,8,7c3.4,1.8-5.2-5.4-5.6-6.4c-0.3-1,0.5-2.5,2.2-3.2c0,0,1.6-0.7,2.4,0.3c0.8,1,1.4,3,2.5,4.1
						c1.4,1.4,5.2,4.8,6.8,5.4c1.6,0.5-6.3-7.7-2.5-9.9c3.8-2.2,0,0,0,0c4.5-1.6,6,1.2,6.1,2.1c0.1,1.1,2.5,5.2,3.7,5.9
						c1.2,0.7-0.6-4.6-0.9-5.6c-0.3-0.8-0.7-3.8,0.5-4.6c3.6-2.5,7.5-1.7,7.5,0.9c0.1,2.5,0.6,6.1,0.9,5.7c0.3-0.4,2.1-7.4-0.2-10.5
						C65.2,54.9,65.2,49.7,63.4,52.6z"/>
				</g>
				<path class="st5" d="M65.2,55c0.6,1,0.9,4.8-0.4,7.6c-1.3,2.9,0.4-4.6-0.7-6.5C63.1,54.2,64.6,54.1,65.2,55z"/>
				<path class="st4" d="M68.2,38.3c0,0,1.9,1,1.4,3.1C69,43.6,67.5,38.3,68.2,38.3z"/>
				<path class="st5" d="M70.2,47.6c0.4,1,0.5,4.6-0.8,7.8c-1.1,2.7,0.6-4.8-0.2-6.8C68.5,46.4,69.8,46.5,70.2,47.6z"/>
				<path class="st6" d="M65.1,55.8c0.3,0.8,0.4,3.9-0.2,5.9c-0.6,2,0.2-3.5-0.3-5.2C64.1,54.8,64.8,55,65.1,55.8z"/>
				<path class="st6" d="M68.3,38.2c0,0,1.1,0.6,0.8,1.9C68.8,41.4,67.9,38.3,68.3,38.2z"/>
				<path class="st7" d="M53.7,60.8c-0.1,0-0.2,0-0.3,0c2-1.2,3.1-2.2,3.1-2.2c-24.3,13.9-41.2,2.4-41.2,2.4
					c-2.4-1.7-3.6-3.6-4.2-5.1c0-0.2-0.1-0.4-0.2-0.5c0,0,0-0.1-0.1-0.1c-0.1-0.3-0.1-0.5-0.2-0.7c-0.1-0.7-0.2-1.4-0.2-1.4
					c-0.5,1.4,0.8,4.9,0.8,4.9c-0.2-0.6-0.2-1.2-0.2-1.6c0.7,1.5,1.8,2.8,2.7,3.7c-1.2,2,2.5,6.1,2.5,6.1c-2.5-3.4-1.7-5-1.1-4.8
					c2.5,0.8,2.5,3.1,2.7,3.9c1.3,4,6.8,7.6,6.6,7.2c-0.1-0.2-2.9-2.5-4.3-4.9c-0.9-1.6,0.6-2.3,1.9-2.5c1.3-0.2,2.3,2.2,2.8,3.1
					c2.1,4,7.7,7.2,7.6,6.8c-0.1-0.2-4-2.8-5.5-5.1c-1.2-1.8,1-3.3,1.6-3.6c0.6-0.3,2.9-0.6,3.6,0.1c0.7,0.7,1.3,2.2,2.1,3.4
					c0.9,1.3,5.7,5.2,6.3,5.4c0.5,0.3-3.9-4-4.5-5.4c-0.6-1.4,0-3.2,0.7-3.6c1.1-0.5,5.3-1.4,6.1-1.1c0.7,0.3,2.1,0.7,2.5,1.9
					c0.8,2.7,2.7,6.4,3.2,6c0.7-0.6-5.2-8.5,2.2-10.8c1.2-0.3,5.6-0.7,5.6,2.8C56.4,68.5,58.6,60.3,53.7,60.8z"/>
				<path class="st6" d="M20.6,64.8c-0.2,0.4-0.9,0.7-1.5,0.3c-0.7-0.5-1-0.8-0.8-1.2c0.2-0.4,0.6-0.4,1.5-0.3
					C20.4,63.7,20.8,64.4,20.6,64.8z"/>
				
					<linearGradient id="SVGID_1_" gradientUnits="userSpaceOnUse" x1="8.9668" y1="38.9553" x2="65.5839" y2="38.9553" gradientTransform="matrix(0.9632 -0.2687 0.2687 0.9632 -9.7303 11.862)">
					<stop  offset="0" style="stop-color:#FFC8BE"/>
					<stop  offset="1" style="stop-color:#C0989C"/>
				</linearGradient>
				<path class="st8" d="M32.7,16.5c0.4-0.2,1,5.6,2.3,5.2c1.3-0.4,3.2,0.6,3.6,1.2c0.4,0.6,2.3-0.5,3.5,0.1
					c1.2,0.6,11.5-1.8,14.2,4c2.7,5.8,5.2,4.9,5.2,4.9s2.6-3.5,4.2,7.1c1.6,10.6-19.7,23.5-32.5,24.8c-10,1-20.8-2.9-21.7-9.9
					c-0.1-1-0.7-2.8-0.2-3.9c0.7-1.8,1.3-1.5,2.1-2.6l1.6-4.4c0,0,1.7-3.5,0.9-6c-0.3-0.9,0.2-3.1,3-2.8c8.4,0.7,3.6,3,3.6,3
					s-1.9-10.6,5-8.6c6.9,2.1,2.3-0.1,2.3-0.1S26.6,20,32.7,16.5z"/>
				
					<linearGradient id="SVGID_2_" gradientUnits="userSpaceOnUse" x1="25.84" y1="50.4356" x2="67.6114" y2="50.4356" gradientTransform="matrix(0.9632 -0.2687 0.2687 0.9632 -9.7303 11.862)">
					<stop  offset="0" style="stop-color:#FF6754"/>
					<stop  offset="0.2949" style="stop-color:#EC574A"/>
					<stop  offset="0.8909" style="stop-color:#BB2E2F"/>
					<stop  offset="1" style="stop-color:#B1262A"/>
				</linearGradient>
				<path class="st9" d="M31.6,64c0,0,27.7-4.7,32.6-21.7c1.4-5.1-1.4-9-2.8-10.3c-2-2,8.6-2.3,5.8,12.8
					C64.3,60.3,31.8,66.1,31.6,64z"/>
				
					<linearGradient id="SVGID_3_" gradientUnits="userSpaceOnUse" x1="15.0325" y1="39.8095" x2="62.7824" y2="39.8095" gradientTransform="matrix(0.9632 -0.2687 0.2687 0.9632 -9.7303 11.862)">
					<stop  offset="0" style="stop-color:#FF6754"/>
					<stop  offset="0.2949" style="stop-color:#EC574A"/>
					<stop  offset="0.8909" style="stop-color:#BB2E2F"/>
					<stop  offset="1" style="stop-color:#B1262A"/>
				</linearGradient>
				<path class="st10" d="M14.5,42c0.1-1,5.3,11.9,29.9,1.7c19.8-8.2,10.8-17.4,10.9-18.1c0.2-0.7,6.3,0.7,5.5,7.9
					C59.6,42.6,43.4,49,34.5,49.9C22.5,51.1,14,45.4,14.5,42z"/>
				
					<linearGradient id="SVGID_4_" gradientUnits="userSpaceOnUse" x1="33.8298" y1="22.632" x2="43.3781" y2="22.632" gradientTransform="matrix(0.9632 -0.2687 0.2687 0.9632 -9.7303 11.862)">
					<stop  offset="0" style="stop-color:#FFCAC7"/>
					<stop  offset="1" style="stop-color:#D992AA"/>
				</linearGradient>
				<path class="st11" d="M32.4,29.1c0,0-4-1-3.2-6c0.8-5,2.8-5.8,3-5.7c0.2,0.1-0.5,5.6,1.5,6.6c2,1,0.1-1.3,1.3-1.8
					c1.2-0.5,5,0.5,3.6,4C37.1,29.7,32.7,29.5,32.4,29.1z"/>
				
					<linearGradient id="SVGID_5_" gradientUnits="userSpaceOnUse" x1="22.887" y1="32.0888" x2="55.6487" y2="32.0888" gradientTransform="matrix(0.9632 -0.2687 0.2687 0.9632 -9.7303 11.862)">
					<stop  offset="0" style="stop-color:#FF6754"/>
					<stop  offset="0.2949" style="stop-color:#EC574A"/>
					<stop  offset="0.8909" style="stop-color:#BB2E2F"/>
					<stop  offset="1" style="stop-color:#B1262A"/>
				</linearGradient>
				<path class="st12" d="M21.7,31.9c1-0.1-0.7,4,1.9,5.3c3.7,1.9,10.8,2.7,18.3-2.8c11.3-8.4-1.5-10.5,1.1-11.4
					c10-3.5,14.2,8.3,0.6,14.6c-8.7,4-16.7,3.8-20.9,1.1C19.3,36.2,20.7,32,21.7,31.9z"/>
				
					<linearGradient id="SVGID_6_" gradientUnits="userSpaceOnUse" x1="15.2673" y1="36.1679" x2="59.5398" y2="36.1679" gradientTransform="matrix(0.9632 -0.2687 0.2687 0.9632 -9.7303 11.862)">
					<stop  offset="0" style="stop-color:#FF6A71"/>
					<stop  offset="1" style="stop-color:#B73840"/>
				</linearGradient>
				<path class="st13" d="M49.8,23.1c2.6,1.7,4.1,6.4-2.2,11.8c-8,6.9-21.2,7.1-20.7,7.2c2.9,0.9,18.7-0.1,25-9.4
					c1.1-1.6,1.8-3,2.1-4.1c-0.2,3.4-3.2,8.1-12.5,12.9c-15.6,8.1-27.4-1-27.4-1c0.6,4.7,8.2,8.8,18.4,6.8c10.2-2,23.2-9.6,24-17
					C57.4,22.8,49.8,23.1,49.8,23.1z M50.3,23.1c-0.1,0-0.2,0-0.3,0C50.1,23.1,50.2,23.1,50.3,23.1z"/>
				
					<linearGradient id="SVGID_7_" gradientUnits="userSpaceOnUse" x1="25.1631" y1="29.7355" x2="48.3494" y2="29.7355" gradientTransform="matrix(0.9632 -0.2687 0.2687 0.9632 -9.7303 11.862)">
					<stop  offset="0" style="stop-color:#FFE7BE"/>
					<stop  offset="0.3172" style="stop-color:#FFCA98"/>
					<stop  offset="0.7737" style="stop-color:#FFA567"/>
					<stop  offset="1" style="stop-color:#FF9654"/>
				</linearGradient>
				<path class="st14" d="M24,29.2c0,0-4.1,6.3,4.3,6.4c8.4,0.1,17.6-7.4,12.1-12.6c0,0,5.7-0.6,3.2,6.4C41,36.9,16.4,42.3,24,29.2z
					"/>
				
					<linearGradient id="SVGID_8_" gradientUnits="userSpaceOnUse" x1="30.663" y1="26.1834" x2="46.3843" y2="26.1834" gradientTransform="matrix(0.9632 -0.2687 0.2687 0.9632 -9.7303 11.862)">
					<stop  offset="0" style="stop-color:#FF6754"/>
					<stop  offset="0.3453" style="stop-color:#EE5448"/>
					<stop  offset="1" style="stop-color:#C5262A"/>
				</linearGradient>
				<path class="st15" d="M38.5,23c0.5,0.7,0.6,1.3,0.5,1.9c-0.7,2-2.5,1.9-3.3,1.8c-3.6-0.7-5.5-4.5-5.5-4.5
					c-0.5,5.1,1.4,6.3,2.6,6.8c-1.6,0.1-3.1-0.7-3.7-2.3c0,0-3.3,0.8-1.5,4.3c1,2,5.4,2.1,8.7,0.6c3.1-1.3,5.4-4.1,5.7-6.2
					C42.4,22.3,38.5,23,38.5,23z"/>
				<g>
					
						<linearGradient id="SVGID_9_" gradientUnits="userSpaceOnUse" x1="9.1459" y1="47.1625" x2="64.992" y2="47.1625" gradientTransform="matrix(0.9632 -0.2687 0.2687 0.9632 -9.7303 11.862)">
						<stop  offset="0" style="stop-color:#FF6A71"/>
						<stop  offset="1" style="stop-color:#B73840"/>
					</linearGradient>
					<path class="st16" d="M60.2,29.2c0.1,0.4,5,12.2-15.8,23.8c-21.7,12.1-32.8-1.3-33-0.1c-0.3,1.2,2.3,6,11,8
						c8.7,1.9,33.1-3,39.8-19.5C66.8,30.5,60.1,28.8,60.2,29.2z"/>
					
						<linearGradient id="SVGID_10_" gradientUnits="userSpaceOnUse" x1="12.9323" y1="43.6665" x2="61.9763" y2="43.6665" gradientTransform="matrix(0.9632 -0.2687 0.2687 0.9632 -9.7303 11.862)">
						<stop  offset="0" style="stop-color:#FF6A71"/>
						<stop  offset="1" style="stop-color:#B73840"/>
					</linearGradient>
					<path class="st17" d="M38,50.9c15.5-4.3,22.5-10.4,22.6-17.3c0,0-1.4,11.5-23.8,15.9c0,0-15.2,2.9-22.2-6.2
						c0,0-2.4,0.7-1.2,3.4C14.7,49.7,22.6,55.2,38,50.9z"/>
				</g>
				
					<linearGradient id="SVGID_11_" gradientUnits="userSpaceOnUse" x1="10.1115" y1="52.0487" x2="64.2076" y2="52.0487" gradientTransform="matrix(0.9632 -0.2687 0.2687 0.9632 -9.7303 11.862)">
					<stop  offset="0" style="stop-color:#FFE7BE"/>
					<stop  offset="0.3172" style="stop-color:#FFCA98"/>
					<stop  offset="0.7737" style="stop-color:#FFA567"/>
					<stop  offset="1" style="stop-color:#FF9654"/>
				</linearGradient>
				<path class="st18" d="M13.2,56.3c0,0,6.8,7.8,23.2,3.7c16.4-4,24.3-8.8,27.5-23.4c0,0,1.4,6.9-9,16.3C44.4,62.3,21,67,13.2,56.3
					z"/>
				
					<linearGradient id="SVGID_12_" gradientUnits="userSpaceOnUse" x1="18.7697" y1="34.1825" x2="40.8088" y2="34.1825" gradientTransform="matrix(0.9632 -0.2687 0.2687 0.9632 -9.7303 11.862)">
					<stop  offset="0" style="stop-color:#FFE7BE"/>
					<stop  offset="0.3172" style="stop-color:#FFCA98"/>
					<stop  offset="0.7737" style="stop-color:#FFA567"/>
					<stop  offset="1" style="stop-color:#FF9654"/>
				</linearGradient>
				<path class="st19" d="M20.6,34.1c0,0-3.4-1.3-4,1.3c-0.7,2.6,6.6,10.4,23.6,3.5C40.2,38.9,20.7,43.8,20.6,34.1z"/>
				
					<linearGradient id="SVGID_13_" gradientUnits="userSpaceOnUse" x1="15.2445" y1="37.28" x2="57.4621" y2="37.28" gradientTransform="matrix(0.9632 -0.2687 0.2687 0.9632 -9.7303 11.862)">
					<stop  offset="0" style="stop-color:#FFE7BE"/>
					<stop  offset="0.3172" style="stop-color:#FFCA98"/>
					<stop  offset="0.7737" style="stop-color:#FFA567"/>
					<stop  offset="1" style="stop-color:#FF9654"/>
				</linearGradient>
				<path class="st20" d="M15.7,37c0,0,5.6,8.6,18,6.1c12.3-2.5,19.8-11.7,19.5-16c-0.4-4.6,4,2.2-2.2,9.2
					c-6.2,7-19.9,12.7-31.3,8.3C10.1,40.9,14.7,34.7,15.7,37z"/>
				
					<linearGradient id="SVGID_14_" gradientUnits="userSpaceOnUse" x1="11.833" y1="45.8831" x2="63.9837" y2="45.8831" gradientTransform="matrix(0.9632 -0.2687 0.2687 0.9632 -9.7303 11.862)">
					<stop  offset="0" style="stop-color:#FFE7BE"/>
					<stop  offset="0.3172" style="stop-color:#FFCA98"/>
					<stop  offset="0.7737" style="stop-color:#FFA567"/>
					<stop  offset="1" style="stop-color:#FF9654"/>
				</linearGradient>
				<path class="st21" d="M60.2,29.2c0,0,2.5,2.6-0.8,8.7C55.9,43.1,47,49.7,34.3,51.8c-14,2.3-20.8-5-20.8-5
					c-3.9,2.7,7.7,11.1,25.9,5.9c6.6-1.9,8.8-3.7,8.2-3.3c-16,10.3-29.9,4.9-29.9,4.9c-3.4-0.5-1.9,4.1,10.7,4.2
					C40.9,58.5,54.7,50,60,40.4C65.3,30.8,60.2,29.2,60.2,29.2z"/>
				
					<linearGradient id="SVGID_15_" gradientUnits="userSpaceOnUse" x1="25.7066" y1="29.1153" x2="47.0072" y2="29.1153" gradientTransform="matrix(0.9632 -0.2687 0.2687 0.9632 -9.7303 11.862)">
					<stop  offset="0" style="stop-color:#FFE7BE"/>
					<stop  offset="0.3172" style="stop-color:#FFCA98"/>
					<stop  offset="0.7737" style="stop-color:#FFA567"/>
					<stop  offset="1" style="stop-color:#FF9654"/>
				</linearGradient>
				<path class="st22" d="M26,29.6c0,0-2.1,4.8,6.5,3.6c8.6-1.2,11.4-9.1,8-10.1c0,0,2.5-0.1,2.5,3.8c0,3.9-9.2,10.3-16.7,8.6
					c-4-0.9-4.1-3.7-3.1-5.3C24.1,28.7,26,28.2,26,29.6z"/>
				<path class="st23" d="M31.3,18c0,0-2.4,3-2.2,6.2C29.3,27.3,30,20.2,31.3,18z"/>
				<path class="st23" d="M24.8,30c0,0-1.6,1.9,0.2,3c1.8,1.1,4.3,1.7,8.3,0.5c4-1.2-3.8,2.2-7.5,0.8c-3.7-1.5-2.4-3.8-1.8-4.3
					C24.5,29.6,25.3,29.3,24.8,30z"/>
				<path class="st23" d="M19,34.5c0,0-1.4,2.4,2.2,4.2C24.7,40.6,13.7,37.6,19,34.5z"/>
				<path class="st23" d="M15.4,37.7c0,0,2.3,6.4,12.2,6.7c9.9,0.3-5.4,2.1-10-1.5C13,39.1,14.4,37.4,15.4,37.7z"/>
				<path class="st23" d="M13.8,48c0,0,2.6,3.9,10.7,5.2c8.1,1.3-2.7,0.4-6.4-1.1C14.2,50.5,13.3,49.1,13.8,48z"/>
				<path class="st23" d="M14.9,53c-0.2,0.4-1.1-0.1-2-0.5c-0.9-0.5-1.3-1.6-1.1-2c0.2-0.4,0.9,0,1.8,0.5
					C14.5,51.4,15.1,52.6,14.9,53z"/>
				<path class="st23" d="M20.5,55.8c0,0,9.9,2.8,22.9-3.3c13-6.1-0.9,2.4-7.5,3.9c-6.6,1.5-9.4,1.7-14.6,0.8
					C19.5,56.9,17.8,55.3,20.5,55.8z"/>
				<path class="st23" d="M28.5,27.5c0,0-0.3,2.8,3.7,3C36.2,30.7,24.9,32.4,28.5,27.5z"/>
				<path class="st23" d="M23.4,37c0,0,4.7,3.7,13.9,0.2C37.3,37.2,29,42.5,23.4,37z"/>
				<path class="st23" d="M19,57.9c0,0,8.4,3.7,21.6-1C40.6,56.9,28.9,64,19,57.9z"/>
				<path class="st24" d="M26,32.8c0,0,5.3,2.3,10.5,0.6c5.2-1.7,5.5-2.5,6.1-2.2c0.7,0.3,2.1-0.8,2.9-0.3c0.8,0.5,12.1-4.7,7.1-6.8
					C47.6,21.9,26.2,31.2,26,32.8z"/>
				<path class="st23" d="M30.9,37.4c0,0,5.6-0.4,9.8-4C43.2,31.2,40.8,37.1,30.9,37.4z"/>
				<path class="st23" d="M32.7,41.3c0,0,9.4-1,16.3-7.8C49,33.5,44.6,41.1,32.7,41.3z"/>
				<path class="st23" d="M19.1,47.3c0,0,16.2,6,34.9-9.3C53.9,38,39.7,55.1,19.1,47.3z"/>
				<path class="st23" d="M29.2,50.6c0,0-7.9,0-14-4.7C11.6,43.2,15.5,51.2,29.2,50.6z"/>
				<path class="st23" d="M29.1,62.5c0,0,18.8-0.9,28.7-12.4C57.8,50.1,50.1,63.1,29.1,62.5z"/>
				
					<linearGradient id="SVGID_16_" gradientUnits="userSpaceOnUse" x1="-48.5371" y1="111.8675" x2="-38.3816" y2="111.3288" gradientTransform="matrix(0.967 0.255 -0.255 0.967 114.62 -71.8608)">
					<stop  offset="0" style="stop-color:#6F951A"/>
					<stop  offset="0.4892" style="stop-color:#7EAC24"/>
					<stop  offset="1" style="stop-color:#8BBF2D"/>
				</linearGradient>
				<path class="st25" d="M53.1,24.3c0,2.1-3.6,5.1-8.7,5.4c-5.1,0.3-9.7-2.6-9.7-4.2c-0.1-1.3,3.6-5.1,8.7-5.4
					C48.4,19.7,53,22.5,53.1,24.3z"/>
				<path class="st26" d="M51.9,23.5c-0.1,1.2-3,2.1-6.4,2.4c-3.6,0.3-6.7-1.3-6.6-2.3c0-0.8,2.8-2.9,6.4-2.9
					C48.8,20.6,52,22.4,51.9,23.5z"/>
				<g>
					<path class="st27" d="M34.6,25.6C34.6,25.6,34.6,25.6,34.6,25.6C34.6,25.5,34.6,25.6,34.6,25.6z"/>
					<path class="st27" d="M52.5,23.2c0.1,0.1,0.1,0.1,0.1,0.2C52.5,23.3,52.5,23.2,52.5,23.2z"/>
					<path class="st27" d="M52.6,23.4C52.6,23.4,52.6,23.4,52.6,23.4C52.6,23.4,52.6,23.4,52.6,23.4z"/>
					<path class="st28" d="M52.6,23.4c0.4,1.1-2.4,4.2-8,4.6c-3.3,0.2-7.1-1.4-8.9-2.1c-1.6-1.3,5.4-5.5,5.4-5.5
						c-5.3,1.8-6.3,4.3-6.5,5c-0.1-0.1-0.2-0.1-0.2-0.1c0.1,0.1,0.1,0.2,0.2,0.3c2.3,4.8,12.3,5.1,15.9,2.2
						C53.4,25.5,52.9,23.9,52.6,23.4z"/>
				</g>
				<path class="st7" d="M52.5,23.4c-0.3,0.5-5.2,0.8-8,0.4c0.9-0.5,3.1-1.9,4.2-1.6c1.4,0.5-0.5-0.9-2.7,0.1
					c-1.4,0.7-2,1.1-2.2,1.4c-1.3-0.1-3,0.3-4.6,0.6c0.6-0.5,1.1-1.5,1.3-1.8c1-1.3,3.3-1.3,1.6-1.3c-1.7,0-3.8,3.3-3.8,3.3l0,0
					c-1.6,0.4-2.9,0.9-2.9,0.9c0,0.8,3.1-0.7,7.6-0.9c0.2,0.6,2.9,1.4,4,1.6c1.3,0.2,3.8-0.5,3-0.5c-0.5,0-1,0.1-2.4,0
					c-1,0-2.7-0.7-3.6-1.1c0.6,0,1.3,0,2,0.1C51.8,25.3,52.8,22.9,52.5,23.4z"/>
				
					<linearGradient id="SVGID_17_" gradientUnits="userSpaceOnUse" x1="156.409" y1="-39.5584" x2="156.5697" y2="-44.2726" gradientTransform="matrix(0.7492 -0.6624 0.6624 0.7492 -51.1013 153.1723)">
					<stop  offset="0" style="stop-color:#6F951A"/>
					<stop  offset="0.4892" style="stop-color:#7EAC24"/>
					<stop  offset="1" style="stop-color:#8BBF2D"/>
				</linearGradient>
				<path class="st29" d="M41.9,12c1.3,0.9,1.7,4.6-0.2,8c-1.9,3.4-5.6,5.1-6.7,4.5c-0.9-0.5-1.7-4.6,0.2-8
					C37.1,13,40.8,11.3,41.9,12z"/>
				<path class="st26" d="M40.9,12.4c0.7,0.6,0.1,2.9-1.1,5.2c-1.3,2.4-3.6,3.8-4.2,3.3c-0.5-0.4-0.7-3.1,0.8-5.4
					C37.8,13.1,40.2,11.9,40.9,12.4z"/>
				<g>
					<path class="st27" d="M35.1,24.5C35.1,24.5,35.1,24.5,35.1,24.5C35,24.5,35.1,24.5,35.1,24.5z"/>
					<path class="st27" d="M41,11.9c0.1,0,0.1,0,0.2,0C41,11.9,41,11.9,41,11.9z"/>
					<path class="st27" d="M41.1,11.9C41.1,11.9,41.2,11.9,41.1,11.9C41.2,11.9,41.1,11.9,41.1,11.9z"/>
					<path class="st28" d="M41.2,11.9c0.9,0.2,1.7,3.4-0.4,7.2c-1.2,2.3-3.8,4-5,4.8c-1.4,0.5-1.2-5.9-1.2-5.9
						c-1.1,4.2,0.1,6,0.4,6.4c-0.1,0.1-0.2,0.1-0.2,0.1c0.1,0,0.2,0,0.3,0c3.9,0.6,8.3-5.7,8-9.4C42.8,12.3,41.6,11.9,41.2,11.9z"/>
				</g>
				<path class="st7" d="M41.1,12c0.2,0.4-1.6,3.7-3.1,5.4c0.1-0.8,0.1-2.8,0.8-3.4c0.9-0.7-0.8-0.1-1,1.8c-0.2,1.2-0.1,1.8-0.1,2
					c-0.6,0.8-1.1,2.1-1.5,3.3c-0.1-0.6-0.5-1.3-0.6-1.6c-0.4-1.2,0.6-2.7-0.2-1.6c-0.7,1.1,0.5,3.9,0.5,3.9l0,0
					c-0.4,1.3-0.7,2.3-0.7,2.3c0.5,0.4,0.8-2.3,2.6-5.3c0.4,0.1,2.1-1.3,2.6-1.9c0.6-0.7,1.3-2.7,0.9-2.1c-0.2,0.4-0.4,0.7-1,1.6
					c-0.4,0.6-1.5,1.4-2.2,1.9c0.3-0.4,0.6-0.8,0.9-1.2C42,13.3,40.9,11.5,41.1,12z"/>
				<path class="st30" d="M39.8,13c0.3,0.3-0.3,1.6-1.1,3c-0.9,1.4-2.1,2.3-2.4,2.1c-0.2-0.2,0-1.7,1-3.1
					C38.2,13.6,39.5,12.8,39.8,13z"/>
				<path class="st31" d="M24.3,30.2c-0.2,0.4-0.9,0.4-1.6,0.1c-0.7-0.3-1.2-0.8-1-1.2c0.2-0.4,0.9-0.4,1.6-0.1
					C24,29.3,24.5,29.9,24.3,30.2z"/>
				<path class="st31" d="M23,24.7c-0.2,0.3-0.9,0.3-1.6-0.1c-0.7-0.4-1.1-1-0.9-1.3c0.2-0.3,0.9-0.3,1.6,0.1
					C22.8,23.7,23.2,24.3,23,24.7z"/>
				<path class="st31" d="M28.2,22.5c-0.3,0.3-0.9,0.1-1.5-0.5c-0.6-0.5-0.8-1.2-0.6-1.5c0.3-0.3,0.9-0.1,1.5,0.5
					C28.2,21.6,28.5,22.2,28.2,22.5z"/>
				<path class="st31" d="M29.2,17.5c-0.2,0.3-0.9,0.3-1.6,0c-0.7-0.4-1.1-0.9-0.9-1.3c0.2-0.3,0.9-0.3,1.6,0
					C29,16.6,29.4,17.2,29.2,17.5z"/>
				<path class="st31" d="M28.6,27.8c-0.1,0.4-0.8,0.4-1.6,0.2c-0.7-0.3-1.2-0.8-1.1-1.2c0.1-0.4,0.8-0.4,1.6-0.2
					C28.3,26.9,28.8,27.4,28.6,27.8z"/>
				<path class="st31" d="M33.8,24.1c-0.3,0.2-0.9-0.1-1.4-0.8c-0.4-0.7-0.5-1.4-0.2-1.6c0.3-0.2,0.9,0.1,1.4,0.8
					C34.1,23.2,34.2,23.9,33.8,24.1z"/>
				<path class="st31" d="M35.2,29.4c-0.2,0.3-0.9,0.2-1.6-0.3c-0.6-0.5-1-1.1-0.7-1.4c0.2-0.3,0.9-0.2,1.6,0.3
					C35.1,28.5,35.4,29.1,35.2,29.4z"/>
				<path class="st32" d="M21,23.7c0,0-2.2,3.1-7.6-0.6c0,0,3.5-1.7,4.2-1.8c0.8-0.1-2.1-1.1-3.9-4.7c0,0,4,0.1,5,0.9
					c0,0,0.7-1.4-1.7-4.3c0,0,6.3-0.2,5.8,5.7C22.3,24.7,22.4,22.8,21,23.7z"/>
				<path class="st27" d="M20.4,23.7c0,0-3.4-0.8-4.5-0.7c-1.1,0.1,3.6-1.1,3.3-1.6c-0.3-0.5-2.8-3.5-4-3.8
					c-1.2-0.3,3.4-0.7,4.5,1.4c1.2,2.1,0.7-4-0.5-4.7C17.9,13.8,26.8,16.8,20.4,23.7z"/>
				<path class="st33" d="M37,30.4c-2.6,3.8-8.2,3.4-14.9,1.5c-5.5-1.6-3.9-8-1.3-11.8c2.6-3.8,8.2-7.3,11.6-2.7
					C36,22.2,39.6,26.5,37,30.4z"/>
				<path class="st28" d="M29.1,16.7c-0.6,1.2,7.4,9,4.4,12.5c-1.9,2.2-7.9,1-7.8,1.9c0.1,0.9,4.8,2.4,8.9,0.7
					c4.2-1.7,3.1-5.1,1.7-8.1C35,20.8,30,14.9,29.1,16.7z"/>
				<path class="st34" d="M32.4,27.2c-1.5,2.6-5.2,2.5-9.5,1.5c-3.6-0.8-2.8-5-1.2-7.5c1.5-2.6,5-5,7.4-2.1
					C31.5,22,33.9,24.6,32.4,27.2z"/>
				<path class="st30" d="M29,25.4c-1,1.6-3.3,1.6-6,0.9c-2.3-0.5-1.8-3.2-0.8-4.8c1-1.6,3.2-3.1,4.7-1.4C28.4,22.1,30,23.8,29,25.4
					z"/>
			</g>
		</g>
	</g>
	<g id="Layer_59">
		<g id="Layer_56">
		</g>
		<g id="Layer_58">
		</g>
		<g id="Layer_42" class="st35">
		</g>
		<g id="Layer_57">
			<g>
				<path class="st36" d="M73.4,142.3c1.5-2.2-20.8-28.1-24-30.1c-3.1-1.9-31.5-3-34.5-1.2c0,0,0,0,0,0c0,0,0,0,0,0
					c-0.1,0.1-0.2,0.1-0.2,0.2c0,0,0,0,0,0.1c-3.7,4.7-3.7,5.9-4.2,7.6c-0.6,2.3,20.8,33.1,23.7,34.7c2.9,1.7,31.5-0.8,33.6-3
					c0,0,0,0,0,0C72.8,145.4,73.4,142.3,73.4,142.3z M14.7,111.6C14.7,111.7,14.7,111.7,14.7,111.6
					C14.7,111.7,14.7,111.6,14.7,111.6C14.7,111.6,14.7,111.6,14.7,111.6z M68,150c0,0,0.1,0,0.1-0.1c0,0.1-0.1,0.2-0.1,0.3
					C68,150.1,68,150,68,150z"/>
				<path class="st37" d="M79.2,133.3c1.6-2.4-20.3-28.9-23.5-30.8c-3.1-1.8-32.1-2-35.2-0.1c0,0,0,0,0,0c0,0,0,0,0,0
					c-0.1,0.1-0.2,0.1-0.2,0.2c0,0,0,0,0,0.1c-4.1,4.4-5.5,7.6-5.8,8.7c0,0,0,0-0.1,0.1c0,0.1-0.1,0.2-0.1,0.3l0,0c0,0,0,0,0,0
					c0.2,3.8,21.6,33.1,24.4,34.7c2.9,1.7,32.2-1.9,34.5-4.3c0,0,0,0,0,0C78.4,136.6,79.2,133.3,79.2,133.3z M20.2,103.1
					C20.2,103.1,20.1,103.2,20.2,103.1C20.1,103.1,20.1,103.1,20.2,103.1C20.2,103.1,20.2,103.1,20.2,103.1z M73.3,141.6
					c0,0,0.1-0.1,0.1-0.1c0,0.1-0.1,0.2-0.1,0.3C73.3,141.7,73.3,141.7,73.3,141.6z"/>
				<path class="st6" d="M67.8,121.1c1.3-2.8-9.9-14.6-14.4-16.9c-4.5-2.3-29.8-3.2-29.6-0.1c0.2,1.9,15.6-0.6,29.7,6.4
					C62.3,115,67.2,122.5,67.8,121.1z M68.2,137c0,0,0.1,0,0.1-0.1c0,0.1-0.1,0.2-0.1,0.2C68.2,137.2,68.2,137.1,68.2,137z"/>
				<path class="st6" d="M27.1,110.8c4.1,6.7,15.7,21.1,19.2,23.4c3.1,2.1,15.2-0.2,15.2-0.2c1.5-1.5-5.6-3.1-13.8-7.5
					C38.3,121.5,26.1,109.2,27.1,110.8z M35.3,108.4C35.3,108.4,35.2,108.4,35.3,108.4C35.2,108.4,35.3,108.4,35.3,108.4
					C35.3,108.4,35.3,108.4,35.3,108.4z M66.9,131.3C66.9,131.3,67,131.3,66.9,131.3c0.1,0,0,0.1,0,0.1
					C66.9,131.4,66.9,131.3,66.9,131.3z"/>
				<path class="st38" d="M26.5,117.9c-0.3-0.5-4.6-2.4-5.2-2.4l0,0l0,0c0,0,0,0,0,0c0,0,0,0,0,0c-0.9,0.4-0.5,7.3-0.2,7.7
					C21.3,123.7,26.8,118.4,26.5,117.9z M26.5,124.9C26.5,124.9,26.5,124.9,26.5,124.9C26.5,124.9,26.5,124.9,26.5,124.9
					C26.5,124.9,26.5,124.9,26.5,124.9z"/>
				<path class="st39" d="M40.9,104c0,0.4-2.9,0.8-6.5,0.7c-3.6,0-6.5-0.4-6.5-0.9c0-0.4,2.9-0.8,6.5-0.7
					C38,103.1,41,103.5,40.9,104z"/>
				<path class="st40" d="M62.6,127.2c-2.1,3.2-7,3.1-13.5-0.8c-9.6-5.9-13.4-11.4-11.3-14.6c2.1-3.2,8.9-2.3,15.2,1.9
					C59.3,117.9,64.7,124,62.6,127.2z"/>
				<path class="st41" d="M23.9,116.2c0.1-0.8-1.1-1.7-2.7-2c0,0,0,0-0.1,0c0,0,0,0,0-0.1c0.8-1.5,0.8-3,0-3.4
					c-0.7-0.4-2,0.5-2.7,1.9c-0.6,1.2-0.8,2.3-0.4,3c0.3,0.7,1.3,1.3,2.7,1.5C22.3,117.5,23.7,117,23.9,116.2z"/>
				<path class="st41" d="M31.4,131c-0.4,1,0.8,2.4,2.8,3.2c0,0,0,0,0.1,0c0,0,0,0-0.1,0.1c-1.4,1.6-1.8,3.4-1,4.2
					c0.8,0.7,2.6,0,4-1.6c1.1-1.3,1.6-2.7,1.4-3.6c-0.1-0.9-1.3-2-2.9-2.7C33.7,129.8,31.8,130,31.4,131z"/>
				<path class="st41" d="M32.7,127.7c-0.8,1.2-2.5,1.4-3.7,0.5c-1.3-0.9-1.7-2.5-0.9-3.7c0.8-1.2,2.5-1.4,3.7-0.5
					C33.1,124.9,33.5,126.5,32.7,127.7z"/>
				<path class="st41" d="M25.5,125.2c-0.4,0.6-1.2,0.8-1.8,0.4c-0.6-0.4-0.7-1.2-0.3-1.8c0.4-0.6,1.2-0.8,1.8-0.4
					C25.8,123.8,25.9,124.6,25.5,125.2z"/>
				<path class="st41" d="M38.8,142.1c-0.4,0.6-1.3,0.8-1.9,0.4c-0.6-0.4-0.8-1.3-0.4-1.9c0.4-0.6,1.3-0.8,1.9-0.4
					C39.1,140.6,39.2,141.5,38.8,142.1z"/>
				<path class="st41" d="M49.5,145.5c0.8-0.2,1.9-1.9,1.5-3.5c0,0,0.1,0.3,0.1,0.3c0,0-0.1-0.3-0.1-0.3c1.7,0.1,3.2-0.1,3.3-1
					c0.1-0.8-1.2-1.6-2.9-1.8c-1.3-0.1-2.5,0.2-2.9,0.8c-0.5,0.5-0.9,1.6-0.9,3C47.6,144.7,48.7,145.7,49.5,145.5z"/>
				<path class="st41" d="M62.5,141.3c-0.5,0.7-1.5,1.4-2,1c-0.5-0.3-0.8-1.1,0.2-2.3c0.7-0.8,1.3-1.1,1.8-0.8
					C63,139.7,62.9,140.6,62.5,141.3z"/>
				<path class="st41" d="M71.1,141.3c-0.5,0.7-1.2,1-1.6,0.7c-0.4-0.3-0.4-1.1,0-1.8c0.5-0.7,1.2-1,1.6-0.7
					C71.6,139.9,71.6,140.7,71.1,141.3z"/>
				<path class="st41" d="M64.9,143.1c-0.3,0.4-0.9,0.9-1.1,0.8c-0.2-0.2,0-1.1,0.3-1.5c0.3-0.4,0.7-0.5,1-0.4
					C65.2,142.2,65.2,142.6,64.9,143.1z"/>
				<path class="st42" d="M20.5,112.4c-0.1,0.1-0.2,0.1-0.4,0.1c-0.1-0.1-0.2-0.2-0.1-0.4c0.1-0.1,0.2-0.1,0.4-0.1
					C20.5,112.1,20.6,112.3,20.5,112.4z"/>
				<path class="st42" d="M19.7,113.5c-0.1,0.1-0.2,0.1-0.3,0c-0.1-0.1-0.2-0.2-0.1-0.3c0.1-0.1,0.2-0.1,0.3,0
					C19.7,113.3,19.8,113.4,19.7,113.5z"/>
				<path class="st42" d="M31.8,126.8c-0.1,0.1-0.2,0.2-0.3,0.2c-0.1,0-0.1-0.2,0-0.3c0.1-0.1,0.2-0.2,0.3-0.2
					C31.9,126.5,31.9,126.6,31.8,126.8z"/>
				<path class="st42" d="M36.4,135.5c-0.1,0.1-0.3,0.1-0.5-0.1c-0.2-0.1-0.3-0.3-0.3-0.4c0.1-0.1,0.3-0.1,0.5,0.1
					C36.3,135.2,36.4,135.4,36.4,135.5z"/>
				<path class="st42" d="M35.2,137.1c-0.1,0.1-0.3,0.1-0.5,0c-0.2-0.1-0.3-0.3-0.2-0.4c0.1-0.1,0.3-0.1,0.5,0
					C35.2,136.8,35.3,137,35.2,137.1z"/>
				<path class="st42" d="M37.1,132.9c-0.1,0.1-0.2,0.1-0.3,0.1c-0.1-0.1-0.1-0.2,0-0.3c0.1-0.1,0.2-0.1,0.3-0.1
					C37.1,132.7,37.1,132.8,37.1,132.9z"/>
				<path class="st23" d="M49.6,141.9c-0.1,0.1-0.2,0.1-0.4,0c-0.1-0.1-0.2-0.3-0.1-0.4c0.1-0.1,0.2-0.1,0.4,0
					C49.6,141.6,49.7,141.8,49.6,141.9z"/>
				<path class="st42" d="M56.5,141.6c-0.1,0.2-0.3,0.3-0.5,0.2c-0.1-0.1-0.2-0.3,0-0.5c0.1-0.2,0.3-0.3,0.5-0.2
					C56.7,141.2,56.7,141.4,56.5,141.6z"/>
				<path class="st42" d="M40.8,137.6c-0.2,0.3-0.4,0.4-0.6,0.2c-0.2-0.1-0.2-0.4,0-0.7c0.2-0.3,0.4-0.4,0.6-0.2
					C41,137,41,137.3,40.8,137.6z"/>
				<path class="st42" d="M38.9,138.6c-0.1,0.1-0.2,0.1-0.3,0.1c-0.1-0.1-0.1-0.2,0-0.3c0.1-0.1,0.2-0.1,0.3-0.1
					C38.9,138.4,39,138.5,38.9,138.6z"/>
				<path class="st42" d="M29.8,120.6c-0.1,0.2-0.3,0.3-0.5,0.2c-0.1-0.1-0.1-0.3,0-0.5c0.1-0.2,0.3-0.3,0.5-0.2
					C29.9,120.2,29.9,120.4,29.8,120.6z"/>
				<path class="st42" d="M23.8,111.5c-0.1,0.2-0.4,0.2-0.6,0.1c-0.2-0.1-0.3-0.4-0.2-0.6c0.1-0.2,0.4-0.2,0.6-0.1
					C23.9,111,24,111.3,23.8,111.5z"/>
				<path class="st42" d="M20.3,107.6c-0.1,0.2-0.4,0.3-0.5,0.2c-0.2-0.1-0.2-0.3-0.1-0.5c0.1-0.2,0.4-0.3,0.5-0.2
					C20.4,107.1,20.4,107.4,20.3,107.6z"/>
				<path class="st39" d="M51.3,136.4c-5.5,0.4-7.1-1.2-9.5-4.2c-19.7-24.6-21.4-27.4-18.5-22.9c3,4.4,20.1,27.8,20.9,28.2
					c0.8,0.4-2.9,5.9-2.9,5.9c0.4,0.3,4.4-4.8,4.7-5.3C51.8,138.7,66.5,135.2,51.3,136.4z"/>
				<path class="st40" d="M72.9,142.6C72.9,142.6,72.9,142.6,72.9,142.6c0.1-0.1,0.3-0.3,0.4-0.4l0,0c1.6-1.5,5.2-7.3,5.7-8.7
					c0.6-2.5-10-16.2-11.2-16.1c-1.9,0.2,8.3,10.8,7,14.9c-1.5,4.7-28.6,5.4-22.9,6.9c3.2,0.9,13.8-1.2,14,0.1
					c0.2,1.3-24.6,8.2-27.1,7.3c-2.5-0.9-12.2-15-12.4-15.3c-0.2-0.3,11.1,16.3,11.8,16.9c0.7,0.6-1.2,3.8-1.7,4.4
					c-0.5,0.6,20-4.8,20.9-3.1c0.9,1.6-5.9,4-5.9,4c8.4-0.6,16.3-2.9,16.3-2.9C72,146,72.9,142.6,72.9,142.6z"/>
				<path class="st6" d="M25.5,142.5c7-8.2,6.6-20,1-24.6c-5.2-4.3-11.4-1.9-14.8,4.1C13.7,125.6,24.5,141.2,25.5,142.5z"/>
				<path class="st39" d="M49.1,131.2c-0.7,0.9-2.5,2.4-4.4,0.8c-2-1.6-6.7-7.6-6-8.5c0.7-0.9,3.7,1.6,5.6,3.2
					C46.2,128.3,49.8,130.3,49.1,131.2z"/>
				<path class="st6" d="M25.5,142.2c5.1-5.9,4.8-14.3,0.7-17.6c-3.7-3.1-8.2-1.4-10.6,2.9C17,130.1,24.8,141.2,25.5,142.2z"/>
				<path class="st32" d="M62.1,113.4c0,0,2-3.8,7.5-1.7c0,0-3.3,2.8-4,3.1c-0.7,0.3,2.1,0.5,4.1,3.6c0,0-3.9,1.1-5,0.6
					c0,0-0.6,1.6,1.9,3.9c0,0-6.2,2-6-4.1C60.8,112.7,60.7,114.8,62.1,113.4z"/>
				<path class="st27" d="M62.7,113.2c0,0,3.3-0.2,4.4-0.6c1.1-0.4-3.4,2.2-3.1,2.6c0.3,0.4,3,2.8,4.1,2.8c1.2,0-3.2,1.7-4.5-0.1
					c-1.3-1.8-0.5,4.4,0.8,4.6C65.7,122.7,56.8,122.2,62.7,113.2z"/>
				<path class="st33" d="M60.1,123c-3,4.4-8.2,4.7-14.1-0.5c-5-4.4-11.8-6.7-7.6-12.2c3.2-4.2,15-7.8,20.6-4.1
					C64.5,109.9,63,118.6,60.1,123z"/>
				<path class="st31" d="M55.6,107.8c-0.1,0.4-0.7,0.7-1.4,0.6c-0.7-0.1-1.2-0.5-1.1-0.9c0.1-0.4,0.7-0.7,1.4-0.6
					C55.2,107,55.7,107.4,55.6,107.8z"/>
				<path class="st31" d="M51.7,111.8c-0.1,0.4-0.7,0.6-1.3,0.5c-0.6-0.1-1.1-0.4-1-0.8c0.1-0.4,0.7-0.6,1.3-0.6
					C51.3,111.1,51.8,111.4,51.7,111.8z"/>
				<path class="st31" d="M44.7,109.6c-0.1,0.4-0.7,0.6-1.3,0.5c-0.6-0.1-1.1-0.4-1-0.8c0.1-0.4,0.7-0.6,1.3-0.5
					C44.4,108.9,44.8,109.2,44.7,109.6z"/>
				<path class="st31" d="M49.3,116.2c-0.1,0.4-0.7,0.6-1.3,0.6c-0.6-0.1-1.1-0.4-1-0.8c0.1-0.4,0.7-0.6,1.3-0.5
					C48.9,115.5,49.4,115.9,49.3,116.2z"/>
				<path class="st31" d="M56.8,116.3c-0.1,0.4-0.7,0.6-1.3,0.5c-0.6-0.1-1.1-0.4-1-0.8c0.1-0.4,0.7-0.6,1.3-0.5
					C56.4,115.6,56.9,115.9,56.8,116.3z"/>
				<path class="st31" d="M49.9,107.6c-0.1,0.4-0.7,0.6-1.3,0.6c-0.6-0.1-1.1-0.4-1-0.8c0.1-0.4,0.7-0.6,1.3-0.5
					C49.6,106.8,50,107.2,49.9,107.6z"/>
				<path class="st31" d="M43.2,115.1c-0.2,0.4-0.8,0.4-1.4,0.2c-0.6-0.2-0.9-0.7-0.8-1.1c0.2-0.4,0.8-0.4,1.4-0.2
					C43,114.3,43.3,114.8,43.2,115.1z"/>
				<path class="st31" d="M52.7,121.7c-0.1,0.4-0.7,0.6-1.3,0.6c-0.6-0.1-1.1-0.4-1-0.8c0.1-0.4,0.7-0.6,1.3-0.5
					C52.3,121,52.8,121.4,52.7,121.7z"/>
				<path class="st31" d="M46.9,120c-0.1,0.4-0.7,0.5-1.3,0.4c-0.6-0.2-1-0.6-0.9-1c0.1-0.4,0.7-0.5,1.3-0.4
					C46.6,119.2,47,119.6,46.9,120z"/>
				<path class="st31" d="M59.2,120.2c0.1,0.2-0.3,0.7-0.9,1c-0.6,0.4-1.2,0.5-1.3,0.3c-0.1-0.2,0.3-0.7,0.9-1
					C58.5,120.1,59.1,120,59.2,120.2z"/>
				<path class="st34" d="M57.2,115.4c-1.4,2.5-4.1,2.8-7.7,0.9c-3.6-1.9-7.7-4.8-6.3-7.3c1.4-2.5,8.3-4.8,11.9-2.9
					C58.8,108,58.6,112.9,57.2,115.4z"/>
				<path class="st30" d="M54.8,111.7c-0.8,1.5-2.4,1.7-4.6,0.5c-2.1-1.1-4.6-2.9-3.7-4.4c0.8-1.5,5-2.9,7.1-1.7
					C55.8,107.2,55.7,110.1,54.8,111.7z"/>
				<path class="st28" d="M55.2,104.8c0,0,4.1,4,1,8.2c-3.1,4.2-7.8,6-6.8,1.4c0,0,4,0,5.2-1.6C55.6,111.1,55.2,104.8,55.2,104.8z"
					/>
				<path class="st28" d="M62,113c0.2-1.2,0.1-2.8,0.1-2.8c-0.1-0.2-0.4-0.1-0.9,0.3c-0.7-1.5-1.6-2.5-2.3-2.7c0,0,0.7,1.8,0.8,3.9
					c-1.4,1.2-3,2.8-4,3.8c-1.1,1.2-0.9,2.7-0.1,3.6c-0.3,0.1-0.6,0.2-0.9,0.3c-7.7,2.3-16.2-7.1-14.9-9.3c1.2-2.2-4.7,2.1-0.3,7.1
					c1.4,1.7,4.3,2.2,6.3,4.3c3.9,4,10,7,13.6,2.4C62.3,120.2,62.7,116.1,62,113z"/>
				<path class="st28" d="M47,107.1c0,0-0.1,1.2,0.4,1.7c0.5,0.6,0.3,4.8-2.5,5.4c-2.8,0.5-3.4-2.9-2.6-3.5
					C43.2,110.1,45.5,106.5,47,107.1z"/>
				<path class="st43" d="M46.2,107.2c0,0,1.8-0.4,2.7,0c0.9,0.3,2.3,2.8,2.4,4.3c0.1,1.6-0.3,1.2-0.9,1.6c-0.6,0.4-1.9,1.4-0.5,2.8
					c1.4,1.4,5-1.3,6.6-4.3c1.5-3-1.4-10.8-6.1-6.9c0,0,2.7,0.2,3.5,1.6c0.7,1.4,0,5-0.6,5c-0.6,0-0.2-4.3-2.5-5.5
					c-2.4-1.2-4.7-1-5.3-0.2c-0.6,0.8-2.6-1.4-4.4,2.3c0,0,1.5,0.2,1.5,1.1c0,0.8-1.4,3,0.8,4.1C45.6,114.3,48.4,110.9,46.2,107.2z"
					/>
				<path class="st43" d="M55.6,105c0,0,3.8,3.3,3,5.8c-0.8,2.4-3.9,4.7-3.2,6.7c0.8,2,2.8,1.6,4.1-0.9c1.3-2.5,0.8-3.9,2.1-5.7
					c1.2-1.8,0.1-5.1-2.6-5.8C56.3,104.5,55.6,104.6,55.6,105z"/>
				<path class="st44" d="M55.7,104.8c0,0,4.8,3.4,3.2,6.4c-1.5,3-1.9,4.3-1.2,4.2c0.7-0.1,1.7-2.1,2.5-3.2c0.6-0.9,1.9-3.8,1.6-4.4
					c-0.2-0.5,1,1.1-0.5,3.4c-1.5,2.3-0.2,2.6-2,5.7c-1.8,3.1-3.6,1.2-3.8,0.9c-0.1-0.3-0.7-1.2,1.2-4
					C58.7,111,60.2,109.5,55.7,104.8z"/>
				<path class="st44" d="M55.8,105.7c0,0,1.4,4.4-0.6,6.4c-2,2-2,0.7-2.3,0.1c-0.3-0.6-1.4-3.6-1.8-3.6c-0.4,0,1.1,3.5,0.7,4.2
					c-0.4,0.7-1.8,0.8-2,1.3c-0.2,0.6-0.3,2.2,1.1,2C52.3,116,59,112.6,55.8,105.7z"/>
				<path class="st44" d="M45.8,106.2c0,0,2.8-0.4,3.8,0.9c1.1,1.4-0.1-0.5-1.8-0.2C46.2,107.2,45.1,106.3,45.8,106.2z"/>
				<path class="st44" d="M44,108.3c-1.9,1.9-0.3,5.4,1.3,4.5C47,111.8,47.1,105.1,44,108.3z"/>
				<path class="st45" d="M60.5,110.3c-0.3,0.3-0.4-2.3-1.4-3.2c-1-0.9-1.6-1.4-1.4-1.7c0.3-0.3,1.8,0,2.7,0.9
					C62,107.9,61.1,109.7,60.5,110.3z"/>
				<path class="st7" d="M60.2,108.3c-0.1,0.2-0.3-1.2-0.9-1.6c-0.6-0.4-0.9-0.7-0.8-0.8c0.1-0.2,1-0.1,1.5,0.4
					C60.9,107,60.5,108,60.2,108.3z"/>
				<path class="st45" d="M51.9,104.3c0,0,0.9-0.9,2.2-0.1c1.2,0.7,2.4,3.4,1.8,5.7c-0.6,2.2-2.2,1.9-1.7,1c0.5-1,0.6-3.3,0-4.5
					C53.5,105.2,51.1,104.7,51.9,104.3z"/>
				<path class="st7" d="M54.4,105.3c-0.2,0.2-0.6,0.2-1.1-0.1c-0.4-0.3-0.7-0.7-0.5-1c0.2-0.2,0.6-0.2,1.1,0.1
					C54.3,104.7,54.5,105.1,54.4,105.3z"/>
				<path class="st45" d="M51.6,108.1c-0.2,0.3-1-1-2.1-1.7c-1-0.7-2.8-0.6-2.6-0.9c0.2-0.3,2-0.4,3.1,0.3
					C51.1,106.5,51.8,107.9,51.6,108.1z"/>
				<path class="st7" d="M50.9,107.2c-0.1,0.2-0.8-0.5-1.5-1c-0.7-0.5-1.9-0.4-1.8-0.6c0.1-0.2,1.4-0.3,2.1,0.2
					C50.4,106.3,51,107,50.9,107.2z"/>
				<path class="st45" d="M45.3,106.7c0,0.4-0.6,0.3-1.4,0.3c-0.8,0-1.6,0.6-1.6,0.2c0-0.4,0.5-1.1,1.3-1.1
					C44.4,106,45.3,106.4,45.3,106.7z"/>
				<path class="st7" d="M44.1,106.6c0,0.2-0.2,0.3-0.5,0.3c-0.3,0-0.5-0.1-0.5-0.2c0-0.2,0.2-0.3,0.5-0.3
					C43.8,106.3,44.1,106.4,44.1,106.6z"/>
			</g>
		</g>
	</g>
	<g id="Layer_14">
		<g id="Layer_12">
		</g>
		<g id="Layer_13">
			<path class="st23" d="M114,112.9c-0.2,0.4-1.1,0.1-2-0.3c-1-0.3-1.4-1.4-1.3-1.8c0.2-0.4,0.9-0.1,1.9,0.3
				C113.4,111.4,114.1,112.5,114,112.9z"/>
			<g>
				
					<linearGradient id="SVGID_18_" gradientUnits="userSpaceOnUse" x1="116.3901" y1="137.7871" x2="158.0298" y2="137.7871" gradientTransform="matrix(0.9225 -0.3859 0.3859 0.9225 -34.2464 60.9841)">
					<stop  offset="0" style="stop-color:#D66C1A"/>
					<stop  offset="0.5698" style="stop-color:#BF4910"/>
					<stop  offset="1" style="stop-color:#B03409"/>
				</linearGradient>
				<path class="st46" d="M164.7,127.1c3.9,9.3,1.2,19.3-12.2,24.9c-13,5.4-22.4,0.5-26.2-8.8c-3.9-9.3,1.6-20.4,12.2-24.9
					C149.1,113.9,160.8,117.8,164.7,127.1z"/>
				<path class="st27" d="M164.5,124.5c2.4,5.8-4.6,14.3-15.6,18.9c-11.1,4.6-22,3.7-24.4-2.1c-2.4-5.8,4.6-14.3,15.6-18.9
					C151.1,117.7,162.1,118.7,164.5,124.5z"/>
				
					<linearGradient id="SVGID_19_" gradientUnits="userSpaceOnUse" x1="110.8501" y1="129.6607" x2="163.4227" y2="129.6607" gradientTransform="matrix(0.9225 -0.3859 0.3859 0.9225 -34.2464 60.9841)">
					<stop  offset="0" style="stop-color:#D66C1A"/>
					<stop  offset="0.5698" style="stop-color:#BF4910"/>
					<stop  offset="1" style="stop-color:#B03409"/>
				</linearGradient>
				<path class="st47" d="M166.6,117.5c3.1,7.4-5.3,17.9-18.7,23.5c-13.4,5.6-26.8,4.2-29.8-3.2c-3.1-7.4,5.3-17.9,18.7-23.5
					C150.1,108.7,163.5,110.2,166.6,117.5z"/>
				<path class="st27" d="M164.2,113.3c2.4,5.8-5.3,15.4-18.5,20.9c-4.5,1.9-9.8,2.6-13.8,3.2c-7.7,1.1-13.7-0.3-15.3-4.2
					c-2.4-5.8,6.3-15,19.4-20.5C149.1,107.2,161.7,107.5,164.2,113.3z"/>
				<path class="st6" d="M145,137.8c0.4,2.3-5.1,4.6-12.3,5c-6.4,0.3-11.9-1.3-12.3-3.6c-0.4-2.3,4.6,0.2,11.5-0.5
					C139,138,144.6,135.5,145,137.8z"/>
				<path class="st6" d="M140.3,148c0.2,1.9-0.4,4.3-2.2,4.5c-2,0.2-5.7-2.8-6.4-4.1C130.9,146.9,140.1,146.8,140.3,148z"/>
				<path class="st7" d="M132.3,140.5c0.1,0.9-2.5,1-5.4,0.9c-2.6-0.1-5.2-1-5-1.9c0.2-1,2.1,0.1,4.8,0.2
					C129.7,139.9,132.2,139.6,132.3,140.5z"/>
				
					<linearGradient id="SVGID_20_" gradientUnits="userSpaceOnUse" x1="108.1532" y1="111.1191" x2="164.2265" y2="111.1191" gradientTransform="matrix(0.9225 -0.3859 0.3859 0.9225 -34.2464 60.9841)">
					<stop  offset="0" style="stop-color:#FFB19C"/>
					<stop  offset="1" style="stop-color:#FF989C"/>
				</linearGradient>
				<path class="st48" d="M127.6,89c0.4-0.3,1.6,5.4,2.9,4.9c1.2-0.5,3.2,0.2,3.6,0.8s2.2-0.8,3.5-0.4c1.3,0.4,11.1-3.2,14.4,2.2
					c3.4,5.4,5.7,4.2,5.7,4.2s2.1-3.8,5,6.4c2.8,10.2-16.5,25.5-28.9,28.4c-9.7,2.3-20.8-0.3-22.5-7.1c-0.2-1-1-2.7-0.7-3.8
					c0.5-1.9,1.1-1.6,1.7-2.8l1-4.6c0,0,1.3-3.6,0.1-6c-0.4-0.8-0.1-3,2.6-3.2c8.3-0.4,3.9,2.5,3.9,2.5s-3.2-10.2,3.9-9
					c7.1,1.2,2.3-0.3,2.3-0.3S122,93.1,127.6,89z"/>
				
					<linearGradient id="SVGID_21_" gradientUnits="userSpaceOnUse" x1="124.8633" y1="122.4891" x2="166.2342" y2="122.4891" gradientTransform="matrix(0.9225 -0.3859 0.3859 0.9225 -34.2464 60.9841)">
					<stop  offset="0" style="stop-color:#FA3840"/>
					<stop  offset="1" style="stop-color:#B00F13"/>
				</linearGradient>
				<path class="st49" d="M132.4,135.8c0,0,26.7-8,29.4-25.3c0.8-5.2-2.5-8.6-4-9.8c-2.2-1.7,8.2-3.4,7.2,11.9
					C164,128.1,132.8,137.8,132.4,135.8z"/>
				
					<linearGradient id="SVGID_22_" gradientUnits="userSpaceOnUse" x1="114.1602" y1="111.9653" x2="161.451" y2="111.9653" gradientTransform="matrix(0.9225 -0.3859 0.3859 0.9225 -34.2464 60.9841)">
					<stop  offset="0" style="stop-color:#FA3840"/>
					<stop  offset="1" style="stop-color:#B00F13"/>
				</linearGradient>
				<path class="st50" d="M112.8,116.2c0-1,6.7,11,29.6-1.9c18.5-10.5,8.4-18.4,8.5-19.1c0.1-0.7,6.3-0.1,6.4,7.1
					c0,9.1-15.1,17.3-23.8,19.3C121.8,124.2,112.7,119.6,112.8,116.2z"/>
				
					<linearGradient id="SVGID_23_" gradientUnits="userSpaceOnUse" x1="132.7773" y1="94.9521" x2="142.2333" y2="94.9521" gradientTransform="matrix(0.9225 -0.3859 0.3859 0.9225 -34.2464 60.9841)">
					<stop  offset="0" style="stop-color:#FFCAC7"/>
					<stop  offset="1" style="stop-color:#D992AA"/>
				</linearGradient>
				<path class="st51" d="M128.9,101.4c0,0-4.1-0.5-3.8-5.5c0.2-5,2-6,2.2-5.9c0.2,0.1,0.2,5.6,2.2,6.4c2.1,0.8-0.1-1.3,1-1.9
					c1.1-0.7,5-0.1,4,3.5C133.5,101.4,129.2,101.7,128.9,101.4z"/>
				
					<linearGradient id="SVGID_24_" gradientUnits="userSpaceOnUse" x1="121.9388" y1="104.3176" x2="154.3875" y2="104.3176" gradientTransform="matrix(0.9225 -0.3859 0.3859 0.9225 -34.2464 60.9841)">
					<stop  offset="0" style="stop-color:#FA3840"/>
					<stop  offset="1" style="stop-color:#B00F13"/>
				</linearGradient>
				<path class="st52" d="M118.7,105.4c0.9-0.3-0.2,4,2.6,4.9c3.9,1.4,10.9,1.4,17.6-5c10.1-9.7-2.8-10.2-0.4-11.4
					c9.4-4.7,15,6.4,2.4,14.2c-8.1,5-15.9,5.8-20.4,3.6C116.8,110,117.7,105.7,118.7,105.4z"/>
				
					<linearGradient id="SVGID_25_" gradientUnits="userSpaceOnUse" x1="114.3929" y1="108.358" x2="158.2402" y2="108.358" gradientTransform="matrix(0.9225 -0.3859 0.3859 0.9225 -34.2464 60.9841)">
					<stop  offset="0" style="stop-color:#FF6A71"/>
					<stop  offset="1" style="stop-color:#B73840"/>
				</linearGradient>
				<path class="st53" d="M145.2,93.3c2.7,1.3,4.8,5.8-0.7,11.8c-7.1,7.8-20,9.5-19.5,9.6c3,0.6,18.4-2.4,23.4-12.3
					c0.9-1.8,1.4-3.2,1.5-4.3c0.2,3.4-2.2,8.4-10.7,14.2c-14.3,9.9-27,2.3-27,2.3c1.1,4.6,9.1,7.6,18.9,4.4
					c9.8-3.2,21.6-12.3,21.5-19.7C152.6,92.1,145.2,93.3,145.2,93.3z M145.7,93.3c-0.1,0-0.2,0-0.3,0
					C145.5,93.3,145.6,93.3,145.7,93.3z"/>
				
					<linearGradient id="SVGID_26_" gradientUnits="userSpaceOnUse" x1="124.1941" y1="101.9866" x2="147.1579" y2="101.9866" gradientTransform="matrix(0.9225 -0.3859 0.3859 0.9225 -34.2464 60.9841)">
					<stop  offset="0" style="stop-color:#FF6A71"/>
					<stop  offset="1" style="stop-color:#B73840"/>
				</linearGradient>
				<path class="st54" d="M120.6,102.5c0,0-3.2,6.7,5,5.8c8.3-0.9,16.4-9.5,10.4-13.9c0,0,5.6-1.3,3.9,5.9
					C138.3,107.9,114.8,116.3,120.6,102.5z"/>
				
					<linearGradient id="SVGID_27_" gradientUnits="userSpaceOnUse" x1="129.6406" y1="98.4697" x2="145.2116" y2="98.4697" gradientTransform="matrix(0.9225 -0.3859 0.3859 0.9225 -34.2464 60.9841)">
					<stop  offset="0" style="stop-color:#FA3840"/>
					<stop  offset="1" style="stop-color:#B00F13"/>
				</linearGradient>
				<path class="st55" d="M134.1,94.6c0.6,0.6,0.8,1.2,0.7,1.8c-0.4,2-2.2,2.2-3,2.2c-3.6-0.3-6-3.7-6-3.7c0.1,5.1,2.1,6,3.4,6.4
					c-1.6,0.3-3.1-0.3-3.9-1.8c0,0-3.1,1.2-1,4.4c1.3,1.8,5.5,1.4,8.6-0.5c2.8-1.6,4.8-4.7,4.8-6.8
					C137.8,93.5,134.1,94.6,134.1,94.6z"/>
				<g>
					
						<linearGradient id="SVGID_28_" gradientUnits="userSpaceOnUse" x1="108.3288" y1="119.2468" x2="163.6411" y2="119.2468" gradientTransform="matrix(0.9225 -0.3859 0.3859 0.9225 -34.2464 60.9841)">
						<stop  offset="0" style="stop-color:#FF6A71"/>
						<stop  offset="1" style="stop-color:#B73840"/>
					</linearGradient>
					<path class="st56" d="M156.2,98.1c0.2,0.4,6.4,11.4-12.6,25.3c-19.9,14.6-32.4,2.7-32.5,4c-0.1,1.2,3,5.7,11.8,6.5
						c8.8,0.8,32.1-7,36.8-24C162.8,98.5,156,97.7,156.2,98.1z"/>
					
						<linearGradient id="SVGID_29_" gradientUnits="userSpaceOnUse" x1="112.0798" y1="115.7855" x2="160.6527" y2="115.7855" gradientTransform="matrix(0.9225 -0.3859 0.3859 0.9225 -34.2464 60.9841)">
						<stop  offset="0" style="stop-color:#FF6A71"/>
						<stop  offset="1" style="stop-color:#B73840"/>
					</linearGradient>
					<path class="st57" d="M137.1,122.1c14.7-6.1,20.8-13,20.1-19.8c0,0,0,11.5-21.5,18.6c0,0-14.6,4.7-22.5-3.4c0,0-2.2,1-0.8,3.5
						C114,123.8,122.4,128.2,137.1,122.1z"/>
				</g>
				
					<linearGradient id="SVGID_30_" gradientUnits="userSpaceOnUse" x1="109.2853" y1="124.0859" x2="162.8638" y2="124.0859" gradientTransform="matrix(0.9225 -0.3859 0.3859 0.9225 -34.2464 60.9841)">
					<stop  offset="0" style="stop-color:#FFCAC7"/>
					<stop  offset="1" style="stop-color:#D992AA"/>
				</linearGradient>
				<path class="st58" d="M113.3,130.5c0,0,7.6,6.8,23.2,0.8c15.7-6,22.8-11.6,24.1-26.4c0,0,2.2,6.6-6.9,17.1
					C144.7,132.6,122.3,140,113.3,130.5z"/>
				
					<linearGradient id="SVGID_31_" gradientUnits="userSpaceOnUse" x1="117.8615" y1="106.3924" x2="139.6902" y2="106.3924" gradientTransform="matrix(0.9225 -0.3859 0.3859 0.9225 -34.2464 60.9841)">
					<stop  offset="0" style="stop-color:#FFCAC7"/>
					<stop  offset="1" style="stop-color:#D992AA"/>
				</linearGradient>
				<path class="st59" d="M117.9,107.7c0,0-3.5-0.9-3.8,1.8c-0.3,2.7,7.8,9.4,23.7,0.5C137.7,110,119.2,117.3,117.9,107.7z"/>
				
					<linearGradient id="SVGID_32_" gradientUnits="userSpaceOnUse" x1="114.3698" y1="109.4593" x2="156.1825" y2="109.4593" gradientTransform="matrix(0.9225 -0.3859 0.3859 0.9225 -34.2464 60.9841)">
					<stop  offset="0" style="stop-color:#FFCAC7"/>
					<stop  offset="1" style="stop-color:#D992AA"/>
				</linearGradient>
				<path class="st60" d="M113.4,111.2c0,0,6.6,7.8,18.4,3.8c11.8-4,18-13.9,17.2-18.1c-0.9-4.5,4.2,1.7-1,9.3
					c-5.2,7.6-18,14.9-29.7,12C108.4,115.7,112.1,109.1,113.4,111.2z"/>
				
					<linearGradient id="SVGID_33_" gradientUnits="userSpaceOnUse" x1="110.9906" y1="117.9802" x2="162.6425" y2="117.9802" gradientTransform="matrix(0.9225 -0.3859 0.3859 0.9225 -34.2464 60.9841)">
					<stop  offset="0" style="stop-color:#FFCAC7"/>
					<stop  offset="1" style="stop-color:#D992AA"/>
				</linearGradient>
				<path class="st61" d="M156.2,98.1c0,0,2.7,2.3,0.3,8.7c-2.8,5.5-10.7,13.1-23,16.7c-13.4,4-21-2.3-21-2.3
					c-3.5,3.2,9,10,26.2,2.6c6.2-2.7,8.2-4.7,7.7-4.3c-14.5,12.1-28.8,8.5-28.8,8.5c-3.4,0-1.3,4.3,11,2.9
					c12.3-1.4,24.9-11.6,28.9-21.6C161.4,99,156.2,98.1,156.2,98.1z"/>
				
					<linearGradient id="SVGID_34_" gradientUnits="userSpaceOnUse" x1="124.732" y1="101.3724" x2="145.827" y2="101.3724" gradientTransform="matrix(0.9225 -0.3859 0.3859 0.9225 -34.2464 60.9841)">
					<stop  offset="0" style="stop-color:#FFCAC7"/>
					<stop  offset="1" style="stop-color:#D992AA"/>
				</linearGradient>
				<path class="st62" d="M122.6,102.7c0,0-1.5,5,6.9,2.7c8.3-2.2,10.1-10.3,6.6-10.9c0,0,2.5-0.4,2.9,3.4
					c0.4,3.9-7.8,11.3-15.3,10.5c-4-0.4-4.5-3.1-3.7-4.9C120.7,102,122.5,101.2,122.6,102.7z"/>
				<path class="st23" d="M126.4,90.6c0,0-2,3.3-1.4,6.3C125.6,100,125.4,92.9,126.4,90.6z"/>
				<path class="st23" d="M121.5,103.2c0,0-1.4,2.1,0.5,2.9c1.9,0.8,4.4,1.1,8.2-0.5c3.8-1.6-3.5,2.7-7.3,1.7c-3.8-1-2.9-3.5-2.3-4
					C121.1,102.8,121.9,102.5,121.5,103.2z"/>
				<path class="st23" d="M116.3,108.3c0,0-1.1,2.5,2.6,3.9C122.7,113.6,111.5,112,116.3,108.3z"/>
				<path class="st23" d="M113.2,111.9c0,0,3.1,6,12.8,5.1c9.7-0.9-5.1,2.8-10-0.3C111,113.6,112.2,111.8,113.2,111.9z"/>
				<path class="st23" d="M112.9,122.2c0,0,3,3.5,11.2,3.8c8.1,0.3-2.6,0.7-6.4-0.3C113.6,124.6,112.5,123.4,112.9,122.2z"/>
				<path class="st23" d="M120.4,129.1c0,0,10.1,1.6,22.1-6c12-7.6-0.6,2.4-6.9,4.7c-6.3,2.3-9.1,2.9-14.2,2.6
					C119.6,130.3,117.7,128.9,120.4,129.1z"/>
				<path class="st23" d="M124.8,100.2c0,0,0,2.8,4,2.5C132.7,102.5,121.9,105.5,124.8,100.2z"/>
				<path class="st23" d="M116.2,120.9c0,0,7.4,4.1,17,1.3C133.2,122.2,123.8,126.9,116.2,120.9z"/>
				<path class="st23" d="M121,110.3c0,0,5.1,3.1,13.7-1.5C134.7,108.7,127.2,114.9,121,110.3z"/>
				<path class="st23" d="M119.2,131.3c0,0,8.7,2.6,21.1-3.7C140.3,127.7,129.7,136.1,119.2,131.3z"/>
			</g>
		</g>
	</g>
	<g id="Layer_9">
		<g id="Layer_11">
		</g>
		<g>
			<path class="st44" d="M104,53.9C104,53.9,104,53.9,104,53.9C104,53.9,104,53.9,104,53.9z"/>
			<path class="st63" d="M176.9,43.7c-7.6-5.9-19.6-12-19.6-12c8,4.8,12.9,9,14.7,10.7c0.4,0.4,0.7,0.8,0.9,1.1
				c-1.4,0.2-3.3,0.4-5.8,0.5c-0.8-0.9-4.7-5.5-5.7-5.9c-1.1-0.4-4-4-4.5-4c-0.5,0.1-2,0.7-1.6,1.5c0.4,0.9,5.2,6,6.1,6.1
				c0.5,0.1,1.1,1.5,1.7,2.3c-2.9,0-6.5-0.1-10.7-0.3c0.2-0.6,0.2-1.4-0.5-2.1c-1.2-1.3-2.4-2.7-1.7-2.6c0.7,0.2,4.5,0.9,5,0.6
				c0.4-0.3-6.6-3-6.9-2.2c-0.2,0.6,1.6,4.4,2.4,6.2c-1-0.1-2-0.2-3.1-0.3c-1.5-0.1-2.1-0.2-3.6-0.4c-0.5-2.9-3.7-4.7-4.9-5.7
				c-1.2-1.1-1.7-2.2-2.2-3.7c-0.5-1.4-2.9-2-2.9-2.1c-1.1-0.4-0.8,2.9-1.5,2.4c-0.7-0.5-1.9-1.1-1.7-0.8c0.1,0.3,0.6,0.2,0.6,1.2
				c0,1,3.6,5.9,3.6,5.9s0.3,0.9,0.5,1.6c-2-0.3-3-0.6-4.8-1c-0.6-0.8-1.6-1.5-2.4-3.2c-1.3-2.7-3.9-3.9-3.9-3.9
				c-0.1-0.1,1.6,4.4,2.4,6.5c-2.5-0.6-4.7-1.1-6.6-1.7c0.2-1.1-0.8-1.6-1.1-1.7c-0.4-0.1-0.2-1.6-0.2-1.6c-0.7-0.2-0.6,1.4-0.9,1.9
				c-0.1,0.2-0.1,0.5,0,0.8c-1.6-0.5-2.9-0.9-4-1.3c-0.1-0.7-0.8-1.3-0.8-1.3l-0.3,0.9c-1.1-0.4-1.8-0.6-2.1-0.6
				c-1.6-0.1-4.2,7.8-4.2,7.8c0.5-0.9,2-1.3,4.3-1.5l-4,11.5c0,0-0.8,2.3-1.5,3.7c-1.5-1.7-1.4-3-1.4-3.3c-0.7,3.8-0.5,4.9,1.5,5.9
				c2,1,5.9,2.2,11.5,3.8c7.3,2.2,19.8,5,29.1,6.8c6,1.2,10.7,1.8,12,1.9c3.2,0.4,8.2,0.9,9.9,0.2c0.9-0.4,1.7-1.8,2.9-3.9
				C174,63.3,178.4,44.9,176.9,43.7z M158.8,70.9c-8.2-1-28-4.8-40.7-7.9c-5.6-1.3-9-2.9-11.1-4.4c0.2-0.7,0.2-1.6,0.2-2
				c0-0.9,3.7-10.7,4.2-12.4c0.2-0.5,0.5-1.3,0.8-2.3c3.3,0,7.9,0.5,12.8,1.3c-1.4,3.1-4.1,10.6-4.2,10.9c0,0.4-1.1,3.4-2.6,5.4
				c-1.5,2,0.5,2.7,1.8,1.7c1.3-1,1.8-5.7,2.4-7.6c0.6-1.9,2-4.8,3.1-6.3c0.9-1.3,1.6-3.1,1.8-3.8c3.9,0.7,8,1.4,11.9,2.2
				c-1.8,2.1-3.4,6.9-3.4,6.9s-3.5,7-4.2,8c-0.7,1-0.7,2.8,1.4,2.3c2-0.5,1.8-2.5,1.8-3.9c0-1.3,0.7-2.1,1-3c0.3-0.9,2.3-3.3,3.3-4
				c1.1-0.8,1.1-2.9,1.3-4.2c0.1-0.7,0.6-1.3,1.1-1.7c8.1,1.6,15.4,3,18.5,3c0.5,0,0.9,0.1,1.2,0.2c-1.1,1.4-2,5.4-2.2,6
				c-0.3,0.9-4.7,7.7-5.7,9.1c-1,1.4-0.7,3.1,1.2,3.1c2,0,2.5-4.1,3.1-5.8c0.7-1.7,1.9-4.3,2.8-5.9c0.7-1.2,1.9-3.8,2.4-5.1
				C165.4,55.2,160.6,66.8,158.8,70.9z"/>
			<path class="st39" d="M114.6,34.5c0,0,22.1-4.1,32.4-3.5c10.3,0.6,9.6,0.1,15.9,5.1c4.1,3.3,0.1-1-7-3c-3.7-1.1-8-0.4-12.7-0.2
				C129.9,33.8,107.7,36.4,114.6,34.5z"/>
			<path class="st42" d="M120.6,38.5c0.2,0.1,4,1,4.3,1c0.3,0-1-0.6-2.2-0.9C121.5,38.3,119.9,38.3,120.6,38.5z"/>
			<path class="st42" d="M158,43.6c0,0.3-1.2,0.4-2.6,0.3c-1.4-0.1-2.5-0.4-2.5-0.7c0-0.3,1.2-0.4,2.6-0.3
				C156.9,43,158.1,43.3,158,43.6z"/>
			<path class="st7" d="M128.8,65.3c0.7-1,1.2-2,1.6-3.2c2.5-7.7-1.1-13.1-7.5-14.5c-6.2-1.3-12.5,1.4-14.5,7.5
				c-0.4,1.4-0.6,2.8-0.5,4.2C113,62.5,123.5,64.3,128.8,65.3z"/>
			<path class="st7" d="M119.4,50.9c0.2,1.3-1,2.6-2.7,2.9c-1.7,0.3-3.3-0.6-3.5-1.9c-0.2-1.3,1-2.6,2.7-2.9
				C117.6,48.7,119.2,49.6,119.4,50.9z"/>
			<path class="st6" d="M170.5,41c0.1-1-11.7-8.7-13.2-9.3c-1.5-0.7-45.7,3.3-45.7,3.3C149.7,45.7,170.4,42,170.5,41z"/>
			<path class="st64" d="M158.5,31.9c-1.2,3.6-5,5.6-8.7,4.5s-5.6-5-4.5-8.7c1.2-3.6,5-5.6,8.7-4.5
				C157.6,24.4,159.6,28.2,158.5,31.9z"/>
			<path class="st65" d="M155.7,24.8c0,0,3.9,4.5-0.9,8.3c-2.9,2.3-6.6,0.9-8.3-0.4c-1.2-0.9,1,4.4,6.3,3.4
				C158.2,35.2,160.5,28.1,155.7,24.8z"/>
			<g>
				<path class="st6" d="M155.4,25.5c-0.5,1.2-1,1.8-2.8,2c-1.9,0.3-3.8-0.6-4-1.8c-0.2-1.2,1-2.2,2.9-2.5c-0.2,0-0.4,0-0.6,0.1
					c-2.3,0.4-4,1.5-3.7,3c0.2,1.5,2.7,2.8,5,2.5C154.5,28.3,155.6,26.9,155.4,25.5z"/>
			</g>
			<path class="st6" d="M147.8,30.5c-0.2,0.9-0.5,1.7-1,1.5c-0.6-0.1-0.9-1-0.7-1.9c0.2-0.9,0.8-1.6,1.4-1.5
				C148.1,28.7,148,29.6,147.8,30.5z"/>
			<path class="st42" d="M148.6,27.4c-0.1,0.1-0.6-0.2-0.9-0.7c-0.3-0.5-0.3-1.1-0.2-1.2c0.1-0.1,0.2,0.5,0.5,1
				C148.3,27,148.7,27.3,148.6,27.4z"/>
			<path class="st64" d="M152.1,26.1c0,0,0.5-4.9,0.7-7c0.1-2.2,0.5-5.7,0.8-6.2c0.3-0.5-1.5-0.7-1.4-0.1c0.1,0.6-0.9,4.8-0.7,6.8
				C151.6,21.7,150.9,27.6,152.1,26.1z"/>
			<path class="st66" d="M154.6,25.7c-0.2-0.3-1.1,0.4-2.5,0.1c0-0.3,0.5-4.9,0.5-5.1c0-0.2,0.4-5.8,0.5-6.1c0.1-0.3,0.1-1,0.3-1.3
				c0.2-0.3-0.3-0.4-0.3-0.4c0.3,0.1,0.3,0.3-0.3,0.3c-0.6,0-0.7-0.2-0.7-0.2c-0.2,0.2,0.2,0.4,0.3,0.5c0.1,0.1,0.1,0.7,0.1,1.2
				c0,0.5-0.4,3.8-0.3,4.5c0,0.7-0.1,2.2-0.3,3.4c-0.2,1-0.4,2.5-0.5,3c-0.1,0-0.2-0.1-0.3-0.2c-1.1-0.6-0.6-1.3-0.6-1.3
				c0.4-1-2.8,1.1-0.1,2.4C152.8,27.7,154.8,26,154.6,25.7z"/>
			<path class="st45" d="M152.3,13.3c0,0,0.1,0.8-0.1,2.1c-0.2,1.2-0.3,3.5-0.3,4.2c0,0.7-0.2,4.5-0.5,5.2c-0.2,0.4,0.4-3.2,0.2-4.7
				C151.5,19.3,151.2,18.7,152.3,13.3z"/>
			<path class="st45" d="M154.5,30.4c-1.3,2.7-3.3,3.8-6.1,2.8c-4.6-1.7-2-7-1.7-6.5c0.3,0.5,1,1.8,3,2.5
				C152.7,30.2,155.7,28,154.5,30.4z"/>
			
				<linearGradient id="SVGID_35_" gradientUnits="userSpaceOnUse" x1="109.9408" y1="45.439" x2="178.8453" y2="45.439" gradientTransform="matrix(0.9529 0.3033 -0.3033 0.9529 17.8507 -38.7189)">
				<stop  offset="5.376340e-03" style="stop-color:#FF775E"/>
				<stop  offset="1" style="stop-color:#ED0018"/>
			</linearGradient>
			<path class="st67" d="M168.3,72.4c-4.7,3.3-62-10-64.2-13.6c-2.3-3.8,6-22.2,6-22.2s45-7.2,48.5-6.1c3.5,1,17.7,11,18.6,13.6
				C178,46.7,172.6,69.5,168.3,72.4z"/>
			<path class="st68" d="M165.7,67.5c-1.9,1.4-60.9-10.5-61.4-12.3c-0.5-1.8,3.6-17.2,6.3-19.9c1.5-1.5,14.4-3.6,26.1-4.4
				c9.2-0.7,17.7-0.3,18.7-0.1c2.2,0.4,17.3,10.6,17.8,13.2C173.6,46.6,167.5,66.2,165.7,67.5z"/>
			
				<linearGradient id="SVGID_36_" gradientUnits="userSpaceOnUse" x1="109.7359" y1="47.6542" x2="175.1811" y2="47.6542" gradientTransform="matrix(0.9529 0.3033 -0.3033 0.9529 17.8507 -38.7189)">
				<stop  offset="0" style="stop-color:#FF979D"/>
				<stop  offset="0.9946" style="stop-color:#FF979D"/>
			</linearGradient>
			<path class="st69" d="M110.4,35.9c1.1-0.4,11.2,4.3,33.4,7.1c22.3,2.8,28.9-0.3,29.5,1c1,2.5-3.7,22-7.4,24.2
				c-3.2,1.9-61.1-10.7-61.7-13C103.6,52.9,108.4,36.7,110.4,35.9z"/>
			<path class="st70" d="M110.6,35.2c0.5-0.4,0.5-0.9,1.9-0.6c1.3,0.3,0.4,1.2,0.8,1.7c0.3,0.5,0,1.8-0.6,3c-0.6,1.2-1.9,5-2.3,5.8
				c-0.4,0.8-3.1,9.2-3.4,10.6c-0.2,1.4-0.6,3.7-1.5,3.4c-0.9-0.3-1.2-1.2-0.7-2.2c0.6-1,1.3-4.6,1.9-6.3c0.6-1.7,2.6-8.5,3.4-9.6
				c0.8-1.1,2.1-3.6,1.8-4.2C111.4,36.2,110.1,35.6,110.6,35.2z"/>
			<path class="st70" d="M116.6,34.6c0.2-0.1,1.9-0.1,2.1,0.7c0.2,0.7-0.3,1.7,0,1.9c0.3,0.2,0.9,0.2,0.9,0.8c0,0.6-0.6,3.2-1.5,3.4
				c-1,0.2-1.4-0.2-0.8-1c0.6-0.8,1.3-1.7,0.9-2.2c-0.4-0.5-1.8-1.8-2-2.3C116,35.6,115.8,35.1,116.6,34.6z"/>
			<path class="st70" d="M158.3,33.4c0,0,2.5,0.9,3,2.1c0.5,1.2,3.2,4.1,4.1,4.5c0.9,0.4,5.1,2.8,4.9,3.7c-0.2,0.9-1.8,3.7-2.4,5
				c-0.7,1.3-1.7,6-2.4,5.1c-0.7-0.9-0.4-2.8-0.1-3.5c0.3-0.6,1.1-2.9,1.7-3.9c0.6-1.1,0.9-1.5-0.4-2.1c-1.3-0.6-1.6-0.5-2.2-1.8
				c-0.6-1.3-3-3.9-4.1-4.2c-1.1-0.3-2.2-0.9-2.6-1.8C157.2,35.7,155.6,33.1,158.3,33.4z"/>
			<path class="st70" d="M155.6,33.8c0.3,0.1,2.7,6.1,4.6,6.2c1.1,0.1,4.1,3.1,3.4,4.3c-0.8,1.2-1,2.5-1.4,4.5
				c-0.4,2-2.1,4.8-2.8,7.2c-0.7,2.5-4.6,10.6-5.7,10.2c-1.1-0.5,0-2.6,3.2-8.6c0.7-1.4,0.8-4,1-6.7c0.2-2.7,3.8-5.1,3-5.8
				c-1.1-0.9-3.6-2.2-3.9-3.9c-0.4-2.3-4.9-1-6.3-2.8c-1.3-1.8-3.9-2.9-3.2-3.8C148.3,33.7,151.1,32.2,155.6,33.8z"/>
			<path class="st70" d="M141,30.8c1.5-1.4,2.6,0.2,3.4,1.1c1.2,1.3,3.1,2.7,4.1,3.1c1,0.4,3.2,3.2,2,3c-1.2-0.1-3.2-0.3-2.4,0.3
				c0.8,0.6,3,3.7,3.5,4.7c0.5,1-0.6,3.3-1.4,3.4c-0.8,0.2-3.9-0.6-2.8-2.1c0.9-1.3,0.3-2.5-0.9-3.5c-1.2-0.9-1.2-2.7-1.8-3.8
				c-0.6-1.1-2.1-1.3-1.8-2.2C143.3,33.4,139.6,32,141,30.8z"/>
			<path class="st70" d="M132,31.4c0.6-1,1.3-0.1,2.9,0.7c2.7,1.4,1.5,4.6,4.5,6.5c1.4,0.9,2.9,3.3,2,4.5c-0.9,1.2-1,2.1-2,2.9
				c-1.1,0.8-0.6,2-1,3c-0.4,1.1-2.4,3.7-3,4.7c-0.6,1-2,6.5-2.8,7.3c-0.8,0.7-0.9,0.3-0.8-0.6c0.2-1,0.6-3.4,1.1-4.6
				c0.5-1.1,2.7-3.8,2.6-5.2c-0.1-1.3,0.1-3.3,0.9-4.7c0.8-1.4,1.3-2.3,1.3-3.2c0.1-1.8-2.3-2-2.5-3.4c-0.2-1.3-1.3-3.9-1.8-4.6
				C132.8,34.1,131.4,32.3,132,31.4z"/>
			<path class="st70" d="M128.8,32.2c0.8-0.1,1,0.2,2.5,1.2c1.5,1.1,1.4,2.5,2.2,3.2c0.8,0.7,3.6,4.9,2.3,7.2
				c-1.4,2.3-3.3,0.5-3-0.9c0.3-1.4-1.3-3.6-1.4-4c-0.2-0.5-2.5-3.9-2.6-4.5C128.5,33.9,127.9,32.3,128.8,32.2z"/>
			<path class="st70" d="M122.9,33.7c0,0,0.7-0.5,2.2,0.4c1.5,0.9,3.1,4.5,3.1,5.1c0,0.6,0.7,1.2-0.4,2.6c-1.1,1.4-1.5,0.6-1.7,1.7
				c-0.2,1.1-2.1,5.2-2.6,6.5c-0.6,1.3-2.4,4.9-2.6,6c-0.2,1.1-0.7,4.3-1.4,4.5c-0.7,0.3-1.6,0.1-0.9-1.4c0.7-1.5,1.3-2.9,1.4-3.8
				c0.2-0.9,1.4-7.4,2.9-9.2c1.6-1.8,1.8-2.6,1.9-3.8c0.1-1.2,0.2-1.6,0.5-2.2c0.3-0.6,0.9-1.2,0.1-1.6
				C124.4,38.3,121.1,34.6,122.9,33.7z"/>
			<path class="st71" d="M156.9,33.1c0,0-0.5,1.4,0.5,2.3c0.7,0.6,2.7,1.7,3.3,1.9c1.1,0.4,2.7,3.4,5.6,4.3c1.9,0.6,2.6,2.6,1.1,2.6
				c-0.6,0,0.4,0.9,0.1,1.6c-0.3,0.7-2.1,3.7-2.3,4.7c-0.2,1-0.3,3.3,0.2,3.3s0.6,0,1.5-2.5c0.9-2.5,2.1-4.8,2.4-5.4
				c0.3-0.6,2.1-2.6,0.1-3.7c-2-1.1-3.7-2.2-4.6-2.6c-0.9-0.5-2.9-2.6-3.1-3.4C161.1,34.5,159.1,33.3,156.9,33.1z"/>
			<path class="st71" d="M143.5,30.9c0,0,1.8,2.5,3.2,2.8c1.4,0.3,4.4,3.4,5.7,2.8c1.3-0.6,3.6-1.9,3.9-1.5c0.3,0.4,1.9,3.3,2.3,3.8
				c0.4,0.5,2.1,1.4,2.8,1.6c0.7,0.3,3,2.7,2.2,4.1c-0.7,1.3-1.1,2.7-1.1,3.5c0,0.8-1.9,6.1-2.5,7.2c-0.7,1.1-2.2,4.9-2.9,6.3
				c-0.7,1.4-1,3.5-1.9,4.7c-0.9,1.2-3-0.4-1.1-1.8c1.9-1.3,1.1-2.3,1.9-3.6c0.9-1.3,2.2-5.6,2-6.6c-0.2-1,0.4-4.1,2.1-6.3
				c1.7-2.2,1.8-2.8,1-3.5c-0.9-0.7,0.2-1.2-0.9-2c-1-0.8-2.4-2.5-4-2.8c-1.6-0.3-2.4,0.2-4.5-0.4c-2.1-0.6-2.5-1.2-2.8-1.2
				c-0.3,0-0.6,0.7,0,1.5c0.6,0.8,3.4,3.6,2.5,5.2c-0.9,1.6-0.7,2.2-3.1,1.7c-2.4-0.6-0.6-1.8-0.5-2.3c0.2-0.5,2.7-0.3,1.5-1.9
				c-0.8-1.1-3-3.1-3.5-4.4c-0.4-1.2-1-2-1.7-2.8c-0.7-0.8-0.3-1.5-0.6-2.1C143.4,32.3,141.7,29.3,143.5,30.9z"/>
			<path class="st71" d="M135.8,32.8c0.6,0.5,1.3,3.3,1.8,3.6c0.5,0.3,0.5,1.6,2.7,2.8c2.2,1.2,2.2,3.3,1.8,4
				c-0.4,0.6-0.9,2.5-1.6,2.8c-0.6,0.3-1.5,0.9-1.4,2.1c0.1,1.2,0,2.8-1,3.8c-1,1-2.9,3.1-2.9,4.4c0,1.3-1.3,3.9-1.2,5
				c0.1,1.1-2.2,1.9-2.2,0.2c0-1.8,0.8-1.5,1.3-2.3c0.6-0.9,0.7-1.7,0.9-2.5c0.4-1.7,1.8-3.5,2.2-4.3c0.4-0.8-0.1-3.7,0.4-4.6
				c0.5-1,2.3-3.4,2-4.2c-0.3-0.8,1.8-0.6,1.9-1.3c0.1-0.7-3-3.7-3.4-4.8c-0.5-1-1.1-3.1-1.4-3.7C135.2,33.1,135.3,32.3,135.8,32.8z
				"/>
			<path class="st71" d="M131.4,35.2c-0.7-0.9,0.6-1.7,1.3,0.6c0.5,1.5,1.4,0.5,3.1,4.7c0.6,1.4,0.9,1.6,0.6,2.5
				c-0.3,0.9-1.1,2.1-2.2,2.1c-1.1,0-2-1.4-1.5-2.8c0.5-1.4,0.2-2.3-0.2-3.3C132.2,38,131.7,35.7,131.4,35.2z"/>
			<path class="st71" d="M124.4,34.1c0,0,1.5,0.9,2.6,2.3c1.1,1.5,1.2,2.8,1.3,3.4c0.1,0.6,0.3,1.2-0.6,2c-0.9,0.8-1.7,1.1-1.7,1.7
				c0,0.7-2,5-2.3,5.8c-0.4,0.8-2.5,5.2-2.7,6.6c-0.2,1.4-0.6,4.2-1.1,4.8c-0.5,0.5-2.2,0.2-1.7-0.7c0.5-0.9,1.3-2.9,1.6-3.9
				c0.4-1,1.6-8.2,2.5-8.9c0.9-0.7,2.7-3.1,2.6-3.7c0-0.7,0-2.5,0.4-3c0.4-0.5,2.2-0.6,1.8-1.3c-0.5-0.8-1.1-2.9-1.6-3.3
				C125,35.6,123.6,33.6,124.4,34.1z"/>
			<path class="st71" d="M118.7,35.9c0,0-0.2,1-0.1,1.1c0.1,0.2-0.5,0-0.4-0.4C118.3,36.2,118.7,35.3,118.7,35.9z"/>
			<path class="st71" d="M119,37.3c0.1,0,0.8,0.1,0.6,1.1c-0.2,0.9-0.3,1.9-0.9,2.8c-0.6,0.9-2,0.5-1.7-0.1c0.3-0.6,1.4-1.8,1.4-2.2
				c-0.1-0.4,0-0.8-0.3-0.9C117.8,37.8,118.1,37.3,119,37.3z"/>
			<path class="st71" d="M112.7,36.4c0,0,1-0.1,0.5,1.2c-0.5,1.3-2.1,5.4-2.6,6.7c-0.5,1.3-2,5.7-2.2,6.3c-0.2,0.6-1.9,5.3-1.7,6.2
				c0.2,0.9-0.3,2.4-1.2,2.2c-1-0.2-1.4-1.2-0.7-2c0.6-0.9,2.1-4.1,2.2-5.1c0.2-1,1.1-4.4,1.6-5.9c0.6-1.5,1-4.1,1.9-5.3
				c1-1.3,1.6-3.2,1.6-3.5C112.2,36.8,112.3,36.2,112.7,36.4z"/>
			<path class="st72" d="M111.4,34.9c0,0,0.4-0.2,0.8,0.2c0.3,0.3,0.5,0.8,0.3,0.7c-0.2,0-0.4,0.2-0.7,0.1
				C111.5,35.7,110.4,35.2,111.4,34.9z"/>
			<path class="st72" d="M116.8,34.9c0,0,0.5-0.3,1.1,0.1c0.5,0.4,0.2,0.3,0.1,0.8c-0.1,0.5,0,0.8,0.1,0.9c0.1,0-0.3,0.2-0.5,0.1
				c-0.2-0.1-1.1-0.9-1-1.2C116.6,35.3,116.4,35.1,116.8,34.9z"/>
			<path class="st6" d="M123.6,33.8c-0.1,0-0.8,0-0.8,0.6c0,0.7,1.2,2.4,2.2,3c0.9,0.6,1.2,1.2,1,1.6c-0.2,0.4,0.4,0.4,0.4-0.2
				c0-0.6-0.3-2.2-1-2.5c-0.7-0.4-1.2-1.1-1.3-1.4C123.9,34.6,124.1,33.9,123.6,33.8z"/>
			<path class="st6" d="M131.8,38.3c-0.3,0.1-1.1-1-1.8-2.4c-0.7-1.5-1.1-2.8-0.8-2.9c0.3-0.1,1.1,0.6,1.8,2.1
				C131.8,36.5,132.1,38.1,131.8,38.3z"/>
			<path class="st6" d="M136.6,39.5c-0.4,0.2-1.1-1.8-2.2-4c-1.1-2.2-2.2-3.8-1.8-4c0.4-0.2,2,1.3,3.1,3.5
				C136.8,37.2,137,39.3,136.6,39.5z"/>
			<path class="st6" d="M141.6,31c0.1,0,0.6-0.3,0.8,0.3c0.3,0.6,1,1.8,1,2.4c0,0.6,0.3,1.3,0.7,1.6c0.4,0.4,1.5,2.1,1.7,2.9
				c0.2,0.7-0.5-0.6-0.8-1c-0.3-0.4-1.6-1.4-1.8-1.6c-0.2-0.2-0.1-0.7-0.2-1.3C143,33.6,140.5,31.4,141.6,31z"/>
			<path class="st72" d="M159.8,43.1c-0.2,0.2-0.7,0-1.2-0.5c-0.5-0.4-0.8-1-0.6-1.2c0.2-0.2,0.7,0,1.2,0.5
				C159.7,42.4,160,42.9,159.8,43.1z"/>
			<path class="st72" d="M167.4,43.1c-0.1,0.3-0.7,0.4-1.4,0.2c-0.7-0.2-1.1-0.7-1-1c0.1-0.3,0.7-0.4,1.4-0.2
				C167.1,42.3,167.5,42.7,167.4,43.1z"/>
			<path class="st7" d="M130.4,35.4c-0.1,0.1-0.4-0.3-0.6-0.8c-0.2-0.5-0.3-1-0.1-1c0.1-0.1,0.4,0.3,0.6,0.8
				C130.4,34.9,130.5,35.3,130.4,35.4z"/>
			<path class="st7" d="M124.6,36.5c-0.1,0.1-1-0.6-1.2-1.1c-0.2-0.5-0.5-1.2-0.1-1.3c0.3-0.1,0.4,0.5,0.6,1.1
				C124.1,35.7,124.8,36.4,124.6,36.5z"/>
			<path class="st7" d="M117.6,35.5c-0.1,0.2-0.3,0.3-0.4,0.2c-0.2-0.1-0.3-0.3-0.2-0.4c0.1-0.2,0.3-0.3,0.4-0.2
				C117.5,35.1,117.6,35.3,117.6,35.5z"/>
			<path class="st7" d="M112,35.3c0,0.1-0.2,0.1-0.4,0c-0.2-0.1-0.4-0.2-0.3-0.3c0-0.1,0.2-0.1,0.4,0C111.9,35.1,112,35.2,112,35.3z
				"/>
		</g>
		<g id="Layer_10">
			<path class="st45" d="M134.6,5.8c0,0.1-0.2,0.1-0.4,0.1c-0.2,0-0.4-0.1-0.4-0.1c0-0.1,0.2-0.1,0.4-0.1
				C134.5,5.7,134.6,5.8,134.6,5.8z"/>
		</g>
	</g>
	<rect y="0.1" class="st73" width="185.5" height="157.7"/>
</g>
</svg>
