<svg id="Layer_1" data-name="Layer 1" xmlns="http://www.w3.org/2000/svg" xmlns:xlink="http://www.w3.org/1999/xlink" viewBox="0 0 5000 1276.59"><defs><style>.cls-1{fill:none;}.cls-2{fill:#fca150;}.cls-3{clip-path:url(#clip-path);}.cls-4{fill:#ffc840;}.cls-5{fill:#ffc740;}.cls-6{fill:#ffc641;}.cls-7{fill:#ffc541;}.cls-8{fill:#ffc441;}.cls-9{fill:#fec342;}.cls-10{fill:#fec242;}.cls-11{fill:#fec142;}.cls-12{fill:#fec043;}.cls-13{fill:#febf43;}.cls-14{fill:#febe43;}.cls-15{fill:#febd44;}.cls-16{fill:#febc44;}.cls-17{fill:#fdbb45;}.cls-18{fill:#fdba45;}.cls-19{fill:#fdb945;}.cls-20{fill:#fdb846;}.cls-21{fill:#fdb746;}.cls-22{fill:#fdb646;}.cls-23{fill:#fdb547;}.cls-24{fill:#fdb447;}.cls-25{fill:#fdb347;}.cls-26{fill:#fcb248;}.cls-27{fill:#fcb148;}.cls-28{fill:#fcb048;}.cls-29{fill:#fcaf49;}.cls-30{fill:#fcad49;}.cls-31{fill:#fcac49;}.cls-32{fill:#fcab4a;}.cls-33{fill:#fcaa4a;}.cls-34{fill:#fca94a;}.cls-35{fill:#fba84b;}.cls-36{fill:#fba74b;}.cls-37{fill:#fba64b;}.cls-38{fill:#fba54c;}.cls-39{fill:#fba44c;}.cls-40{fill:#fba34c;}.cls-41{fill:#fba24d;}.cls-42{fill:#fba14d;}.cls-43{fill:#faa04e;}.cls-44{fill:#fa9f4e;}.cls-45{fill:#fa9e4e;}.cls-46{fill:#fa9d4f;}.cls-47{fill:#fa9c4f;}.cls-48{fill:#fa9b4f;}.cls-49{fill:#fa9a50;}.cls-50{fill:#fa9950;}.cls-51{fill:#fa9850;}.cls-52{fill:#f99751;}.cls-53{fill:#f99651;}.cls-54{fill:#f99551;}.cls-55{fill:#f99452;}.cls-56{fill:#f99352;}.cls-57{fill:#fcd4bc;}.cls-58{opacity:0.17;}.cls-59{fill:#ff7940;}.cls-60{clip-path:url(#clip-path-2);}.cls-61{fill:#fc7b57;}.cls-62{clip-path:url(#clip-path-3);}.cls-63{fill:#ffa247;}.cls-64{fill:#ffa147;}.cls-65{fill:#ffa048;}.cls-66{fill:#ff9f48;}.cls-67{fill:#ff9e48;}.cls-68{fill:#fe9d49;}.cls-69{fill:#fe9c49;}.cls-70{fill:#fe9b49;}.cls-71{fill:#fe9a4a;}.cls-72{fill:#fe994a;}.cls-73{fill:#fe984a;}.cls-74{fill:#fe974b;}.cls-75{fill:#fe964b;}.cls-76{fill:#fd954c;}.cls-77{fill:#fd944c;}.cls-78{fill:#fd934c;}.cls-79{fill:#fd924d;}.cls-80{fill:#fd914d;}.cls-81{fill:#fd904d;}.cls-82{fill:#fd8f4e;}.cls-83{fill:#fd8e4e;}.cls-84{fill:#fd8d4e;}.cls-85{fill:#fc8c4f;}.cls-86{fill:#fc8b4f;}.cls-87{fill:#fc8a4f;}.cls-88{fill:#fc8950;}.cls-89{fill:#fc8750;}.cls-90{fill:#fc8650;}.cls-91{fill:#fc8551;}.cls-92{fill:#fc8451;}.cls-93{fill:#fc8351;}.cls-94{fill:#fb8252;}.cls-95{fill:#fb8152;}.cls-96{fill:#fb8052;}.cls-97{fill:#fb7f53;}.cls-98{fill:#fb7e53;}.cls-99{fill:#fb7d53;}.cls-100{fill:#fb7c54;}.cls-101{fill:#fb7b54;}.cls-102{fill:#fa7a55;}.cls-103{fill:#fa7955;}.cls-104{fill:#fa7855;}.cls-105{fill:#fa7756;}.cls-106{fill:#fa7656;}.cls-107{fill:#fa7556;}.cls-108{fill:#fa7457;}.cls-109{fill:#fa7357;}.cls-110{fill:#fa7257;}.cls-111{fill:#f97158;}.cls-112{fill:#f97058;}.cls-113{fill:#f96f58;}.cls-114{fill:#f96e59;}.cls-115{fill:#f96d59;}.cls-116{fill:#fcaec3;}.cls-117{fill:#ff5347;}</style><clipPath id="clip-path"><path class="cls-1" d="M2500,671.82v362c-12,8-22,18.14-28.53,31-9.78,19.33-15.24,45.4-36.09,51.27-30.45,8.57-46.82-33.12-65.82-58.41-27.86-37.06-84.46-44.18-126-23.64s-68.93,62.93-82.08,107.4c-9.13,30.88-12.76,64.27-30.44,91.19s-56.81,43.92-82.51,24.51c-11.6-8.75-17.77-22.74-23.48-36.11l-33.83-79.28c-14.38-33.71-47.93-74.27-78.89-54.65-21.5,13.63-22.13,49.09-45.24,59.77-20.66,9.56-43.88-7.81-56.7-26.62s-23.12-41.69-43.94-50.87c-35.49-15.65-72.22,18.23-95,49.66s-53.79,68.22-91.65,59.79c-54.26-12.09-59.48-104.47-114.35-113.36-52.36-8.48-89.68,70.39-141.69,60-31.83-6.37-49.63-44.23-81.29-51.44-46-10.46-76,45.92-89.58,91.08s-46.5,100.86-91.68,87.35c-14.91-4.46-26.46-16.14-36.53-28a367.59,367.59,0,0,1-48.37-73.12c-21.71-43.33-48.84-100.15-97-94.83-50.44,5.57-87.08,81.53-132.56,59-27.9-13.81-35.2-59.7-66.25-61.86-27.19-1.89-40.78,31.45-61.36,49.31-26.65,23.12-73.26,16.65-92.6-12.86-8.39-12.81-12.19-28.87-23.52-39.17-26.63-24.22-70.79,2.38-85.26,35.35s-14.62,71.83-34.43,101.88c-5.32,8.07-12.17,15.43-20.92,19.51-27.43,12.77-58.76-11.92-71.18-39.5s-14.9-59.47-31.24-84.93-56.74-39.86-76.06-16.57c-14.22,17.14-9.24,45.55-25.47,60.8-25.68,24.14-64.29-10.41-80.39-41.76S30.42,1016,0,1033.86v-362Z"/></clipPath><clipPath id="clip-path-2"><path class="cls-1" d="M5000,671.82v362c-12,8-22,18.14-28.53,31-9.77,19.33-15.24,45.4-36.09,51.27-30.45,8.57-46.82-33.12-65.82-58.41-27.86-37.06-84.46-44.18-126-23.64s-68.93,62.93-82.08,107.4c-9.13,30.88-12.76,64.27-30.44,91.19s-56.81,43.92-82.51,24.51c-11.6-8.75-17.77-22.74-23.48-36.11l-33.83-79.28c-14.38-33.71-47.93-74.27-78.89-54.65-21.5,13.63-22.13,49.09-45.24,59.77-20.66,9.56-43.88-7.81-56.7-26.62s-23.12-41.69-43.94-50.87c-35.49-15.65-72.22,18.23-94.95,49.66s-53.79,68.22-91.65,59.79c-54.26-12.09-59.48-104.47-114.35-113.36-52.36-8.48-89.68,70.39-141.69,60-31.83-6.37-49.63-44.23-81.29-51.44-46-10.46-76,45.92-89.58,91.08s-46.5,100.86-91.68,87.35c-14.91-4.46-26.46-16.14-36.53-28a367.59,367.59,0,0,1-48.37-73.12c-21.71-43.33-48.84-100.15-97-94.83-50.44,5.57-87.08,81.53-132.56,59-27.9-13.81-35.2-59.7-66.25-61.86-27.19-1.89-40.78,31.45-61.36,49.31-26.65,23.12-73.26,16.65-92.6-12.86-8.39-12.81-12.19-28.87-23.52-39.17-26.63-24.22-70.79,2.38-85.26,35.35s-14.62,71.83-34.43,101.88c-5.32,8.07-12.17,15.43-20.92,19.51-27.43,12.77-58.76-11.92-71.18-39.5s-14.9-59.47-31.24-84.93-56.74-39.86-76.06-16.57c-14.22,17.14-9.24,45.55-25.47,60.8-25.68,24.14-64.29-10.41-80.39-41.76s-47.64-69.71-78-51.89v-362Z"/></clipPath><clipPath id="clip-path-3"><path class="cls-1" d="M5000,0V724.09c-24,15.91-44.06,36.28-57.07,62-19.55,38.66-30.49,90.8-72.18,102.53-60.9,17.14-93.65-66.24-131.65-116.81-55.72-74.13-168.91-88.36-252.06-47.29s-137.85,125.87-164.15,214.8c-18.26,61.76-25.53,128.55-60.88,182.38s-113.63,87.84-165,49c-23.19-17.51-35.54-45.49-47-72.22L3982.36,940c-28.77-67.42-95.87-148.55-157.78-109.31-43,27.26-44.27,98.18-90.48,119.55-41.32,19.11-87.76-15.62-113.4-53.24s-46.24-83.38-87.89-101.75c-71-31.3-144.43,36.46-189.89,99.32S3235.33,1031,3159.61,1014.12c-108.51-24.18-119-209-228.69-226.73-104.72-17-179.36,140.78-283.38,120-63.67-12.74-99.27-88.45-162.59-102.87-91.95-20.93-152,91.84-179.15,182.15s-93,201.72-183.35,174.7c-29.83-8.92-52.92-32.27-73.07-56a734.56,734.56,0,0,1-96.73-146.24c-43.43-86.66-97.69-200.29-194-189.66-100.89,11.14-174.16,163.07-265.12,118-55.8-27.61-70.41-119.39-132.51-123.71-54.37-3.78-81.56,62.9-122.72,98.61-53.3,46.25-146.51,33.3-185.19-25.72-16.78-25.61-24.38-57.73-47-78.33-53.26-48.45-141.59,4.76-170.52,70.69s-29.24,143.66-68.87,203.77c-10.63,16.13-24.33,30.86-41.84,39-54.85,25.55-117.52-23.83-142.36-79S552.64,873.86,520,822.94s-113.49-79.72-152.12-33.15c-28.44,34.28-18.48,91.11-50.94,121.61-51.37,48.27-128.59-20.82-160.79-83.52S60.84,688.46,0,724.09V0Z"/></clipPath></defs><path class="cls-2" d="M0,1044.62c30.41-17.82,62,20.55,78.05,51.9s54.71,65.89,80.4,41.75c16.23-15.25,11.24-43.66,25.46-60.8,19.32-23.28,59.72-8.89,76.06,16.58s18.82,57.33,31.24,84.92,43.76,52.27,71.18,39.5c8.75-4.08,15.6-11.44,20.92-19.5,19.81-30.06,20-68.92,34.44-101.89s58.63-59.57,85.26-35.35c11.32,10.31,15.12,26.36,23.51,39.17,19.34,29.51,66,36,92.6,12.86,20.58-17.86,34.17-51.19,61.36-49.3,31,2.15,38.36,48,66.25,61.85,45.49,22.52,82.12-53.45,132.56-59,48.18-5.31,75.31,51.5,97,94.83a366.82,366.82,0,0,0,48.36,73.12c10.07,11.87,21.62,23.54,36.53,28,45.18,13.51,78.09-42.19,91.68-87.35s43.6-101.54,89.58-91.07c31.66,7.2,49.46,45.06,81.29,51.43,52,10.41,89.33-68.46,141.69-60,54.87,8.89,60.09,101.28,114.35,113.36,37.86,8.44,68.92-28.36,91.65-59.79s59.46-65.31,95-49.66c20.82,9.19,31.12,32.07,43.94,50.88s36,36.17,56.7,26.62c23.11-10.69,23.74-46.15,45.24-59.78,31-19.62,64.51,20.95,78.89,54.65l33.83,79.29c5.7,13.36,11.88,27.35,23.48,36.1,25.69,19.41,64.84,2.41,82.51-24.51s21.31-60.31,30.44-91.19c13.15-44.46,40.5-86.87,82.08-107.4s98.16-13.42,126,23.65c19,25.28,35.38,67,65.83,58.4,20.85-5.87,26.32-31.94,36.09-51.26,6.5-12.87,16.55-23.05,28.53-31v-362H0Z"/><g class="cls-3"><rect class="cls-4" y="1265.53" width="2499.99" height="11.05"/><rect class="cls-4" y="1254.33" width="2499.99" height="11.2"/><rect class="cls-5" y="1243.13" width="2499.99" height="11.2"/><rect class="cls-6" y="1231.93" width="2499.99" height="11.2"/><rect class="cls-7" y="1220.73" width="2499.99" height="11.2"/><rect class="cls-8" y="1209.52" width="2499.99" height="11.2"/><rect class="cls-9" y="1198.32" width="2499.99" height="11.2"/><rect class="cls-10" y="1187.12" width="2499.99" height="11.2"/><rect class="cls-11" y="1175.92" width="2499.99" height="11.2"/><rect class="cls-12" y="1164.71" width="2499.99" height="11.2"/><rect class="cls-13" y="1153.51" width="2499.99" height="11.2"/><rect class="cls-14" y="1142.31" width="2499.99" height="11.2"/><rect class="cls-15" y="1131.11" width="2499.99" height="11.2"/><rect class="cls-16" y="1119.91" width="2499.99" height="11.2"/><rect class="cls-17" y="1108.7" width="2499.99" height="11.2"/><rect class="cls-18" y="1097.5" width="2499.99" height="11.2"/><rect class="cls-19" y="1086.3" width="2499.99" height="11.2"/><rect class="cls-20" y="1075.1" width="2499.99" height="11.2"/><rect class="cls-21" y="1063.89" width="2499.99" height="11.2"/><rect class="cls-22" y="1052.69" width="2499.99" height="11.2"/><rect class="cls-23" y="1041.49" width="2499.99" height="11.2"/><rect class="cls-24" y="1030.29" width="2499.99" height="11.2"/><rect class="cls-25" y="1019.08" width="2499.99" height="11.2"/><rect class="cls-26" y="1007.88" width="2499.99" height="11.2"/><rect class="cls-27" y="996.68" width="2499.99" height="11.2"/><rect class="cls-28" y="985.48" width="2499.99" height="11.2"/><rect class="cls-29" y="974.28" width="2499.99" height="11.2"/><rect class="cls-30" y="963.07" width="2499.99" height="11.2"/><rect class="cls-31" y="951.87" width="2499.99" height="11.2"/><rect class="cls-32" y="940.67" width="2499.99" height="11.2"/><rect class="cls-33" y="929.47" width="2499.99" height="11.2"/><rect class="cls-34" y="918.26" width="2499.99" height="11.2"/><rect class="cls-35" y="907.06" width="2499.99" height="11.2"/><rect class="cls-36" y="895.86" width="2499.99" height="11.2"/><rect class="cls-37" y="884.66" width="2499.99" height="11.2"/><rect class="cls-38" y="873.46" width="2499.99" height="11.2"/><rect class="cls-39" y="862.25" width="2499.99" height="11.2"/><rect class="cls-40" y="851.05" width="2499.99" height="11.2"/><rect class="cls-41" y="839.85" width="2499.99" height="11.2"/><rect class="cls-42" y="828.65" width="2499.99" height="11.2"/><rect class="cls-43" y="817.44" width="2499.99" height="11.2"/><rect class="cls-44" y="806.24" width="2499.99" height="11.2"/><rect class="cls-45" y="795.04" width="2499.99" height="11.2"/><rect class="cls-46" y="783.84" width="2499.99" height="11.2"/><rect class="cls-47" y="772.64" width="2499.99" height="11.2"/><rect class="cls-48" y="761.43" width="2499.99" height="11.2"/><rect class="cls-49" y="750.23" width="2499.99" height="11.2"/><rect class="cls-50" y="739.03" width="2499.99" height="11.2"/><rect class="cls-51" y="727.83" width="2499.99" height="11.2"/><rect class="cls-52" y="716.62" width="2499.99" height="11.2"/><rect class="cls-53" y="705.42" width="2499.99" height="11.2"/><rect class="cls-54" y="694.22" width="2499.99" height="11.2"/><rect class="cls-55" y="683.02" width="2499.99" height="11.2"/><rect class="cls-56" y="671.82" width="2499.99" height="11.2"/><path class="cls-56" d="M2500,671.82h0Z"/></g><path class="cls-57" d="M16.39,1010.36a38,38,0,0,1,6.11.52c2,.32,4,.77,6,1.29a73.07,73.07,0,0,1,11.58,4.25,79.08,79.08,0,0,1,10.78,6.12c.86.59,1.72,1.17,2.54,1.8l2.48,1.88c1.6,1.32,3.19,2.65,4.71,4.07.76.7,1.51,1.41,2.23,2.16s1.46,1.47,2.17,2.23c1.36,1.56,2.77,3.09,4,4.74s2.49,3.3,3.67,5c.58.85,1.12,1.74,1.67,2.61s1.1,1.74,1.58,2.65a74.28,74.28,0,0,1,8.53,22.9c-.59-.84-1.12-1.7-1.68-2.54l-.8-1.28c-.27-.43-.52-.86-.81-1.27-.56-.83-1.1-1.67-1.64-2.51l-.8-1.25-.85-1.22L76.24,1060c-.56-.81-1.15-1.6-1.72-2.4l-.85-1.19c-.28-.41-.56-.81-.87-1.19-.59-.78-1.19-1.55-1.77-2.33s-1.2-1.53-1.81-2.29-1.18-1.53-1.82-2.26c-1.28-1.46-2.48-3-3.81-4.37q-3.86-4.32-8.1-8.23t-8.78-7.49q-4.56-3.54-9.46-6.72A140.37,140.37,0,0,0,16.39,1010.36Z"/><path class="cls-57" d="M115.89,1114.13a108.91,108.91,0,0,0,12.13,5.42,33.82,33.82,0,0,0,12.09,2.32,17.29,17.29,0,0,0,5.72-1A20.56,20.56,0,0,0,151,1118l1.2-1a14.43,14.43,0,0,0,1.15-1.07c.37-.37.78-.72,1.13-1.13l1.07-1.21a14,14,0,0,0,1.05-1.26c.35-.43.69-.87,1-1.3.66-.9,1.32-1.82,2.05-2.73-.23,1.12-.48,2.25-.81,3.36-.18.55-.39,1.09-.59,1.64a13.53,13.53,0,0,1-.68,1.62l-.79,1.58a7.23,7.23,0,0,1-.45.76l-.49.75a23.28,23.28,0,0,1-2.22,2.88,19.85,19.85,0,0,1-6.06,4.36c-.59.24-1.17.49-1.78.7l-1.84.51c-.62.12-1.25.21-1.87.31s-1.26.1-1.89.14a24.22,24.22,0,0,1-3.72-.22c-.61-.07-1.21-.2-1.81-.32-.3-.07-.6-.12-.89-.2l-.87-.25a30.93,30.93,0,0,1-6.58-2.77,37,37,0,0,1-5.72-4,33.43,33.43,0,0,1-2.53-2.37A23.39,23.39,0,0,1,115.89,1114.13Z"/><path class="cls-57" d="M181.24,1045.65a31,31,0,0,1,5.09-3.18,49.67,49.67,0,0,1,5.55-2.4,53.85,53.85,0,0,1,11.89-2.7,54.41,54.41,0,0,1,12.3.06c.51.06,1,.09,1.54.18l1.52.26,1.52.27c.51.09,1,.22,1.51.33l1.51.36.75.19.74.22,3,.9c1.93.74,3.87,1.43,5.72,2.32s3.66,1.84,5.46,2.82l2.59,1.62,1.29.82,1.24.9,2.45,1.8c.79.64,1.56,1.31,2.34,1.95a71.89,71.89,0,0,1,15.39,18.32c-1.57-1.24-3.08-2.51-4.56-3.79-.78-.61-1.53-1.23-2.3-1.84s-1.49-1.25-2.26-1.84l-2.32-1.76c-.77-.59-1.51-1.2-2.31-1.74-1.58-1.09-3.1-2.26-4.73-3.27-.79-.52-1.58-1-2.39-1.56l-2.44-1.46-1.21-.73-1.25-.67-2.49-1.34c-1.71-.79-3.36-1.69-5.11-2.36s-3.46-1.39-5.21-2a71.81,71.81,0,0,0-22-3.83A74.9,74.9,0,0,0,181.24,1045.65Z"/><path class="cls-57" d="M312.72,1174.39l3.7,2.73c1.22.89,2.4,1.78,3.61,2.62q3.57,2.58,7.13,4.85a62.26,62.26,0,0,0,14.48,7c.62.17,1.23.4,1.85.53l1.86.45c.63.1,1.25.19,1.88.31a7.55,7.55,0,0,0,.94.12c.32,0,.63.06.95.09a17.31,17.31,0,0,0,1.9.12,15.53,15.53,0,0,0,1.93,0c.64,0,1.29,0,1.94-.08s1.3-.15,2-.21a8.15,8.15,0,0,0,1-.15l1-.18,1-.17c.34,0,.66-.16,1-.24.66-.17,1.34-.33,2-.48s1.34-.42,2-.63l1-.3c.36-.1.68-.26,1-.37.69-.24,1.37-.5,2.09-.74l.54-.18.51-.22,1.06-.42c.72-.27,1.44-.55,2.2-.79-.41.66-.87,1.29-1.33,1.93l-.7,1-.37.47-.39.43a30.49,30.49,0,0,1-3.4,3.32c-.62.5-1.24,1-1.89,1.5s-1.36.88-2.05,1.31c-.35.2-.69.45-1.06.62l-1.1.55-1.13.53a9,9,0,0,1-1.15.48,30.19,30.19,0,0,1-20,.52,37.19,37.19,0,0,1-9-4.24,41.73,41.73,0,0,1-7.44-6.13,44.32,44.32,0,0,1-5.79-7.43,38.15,38.15,0,0,1-2.24-4.12A25.76,25.76,0,0,1,312.72,1174.39Z"/><path class="cls-57" d="M444.43,1036.65a29.39,29.39,0,0,1,3.65-3.92,38.21,38.21,0,0,1,4.21-3.38,42.49,42.49,0,0,1,9.64-5.09,40.52,40.52,0,0,1,21.94-1.91c.92.17,1.82.43,2.72.64a27.52,27.52,0,0,1,2.68.8,51.17,51.17,0,0,1,5.15,2.06l2.44,1.29c.41.22.82.42,1.21.66l1.16.75c.77.5,1.55,1,2.3,1.49l2.17,1.65a59.72,59.72,0,0,1,14.17,16c-.71-.55-1.38-1.12-2.07-1.67l-2-1.71c-1.39-1.08-2.75-2.17-4.1-3.25l-2.1-1.54-1-.77c-.34-.26-.69-.51-1.05-.74-.72-.47-1.43-1-2.14-1.43-.35-.23-.7-.48-1.06-.71l-1.09-.65-2.18-1.3c-.74-.41-1.49-.79-2.23-1.19l-1.11-.58c-.38-.19-.76-.35-1.14-.53l-2.28-1c-1.56-.56-3.08-1.23-4.68-1.65-.79-.24-1.57-.51-2.37-.67s-1.6-.4-2.41-.54a45.14,45.14,0,0,0-19.61.62,55.68,55.68,0,0,0-9.6,3.32A65.49,65.49,0,0,0,444.43,1036.65Z"/><path class="cls-57" d="M544.11,1091.52c5.36,1.83,10.46,3.64,15.58,5.18a110.67,110.67,0,0,0,15.3,3.6,72.63,72.63,0,0,0,7.63.72,55.52,55.52,0,0,0,7.62-.33c.63-.1,1.27-.18,1.91-.26s1.25-.26,1.9-.37c.31-.07.64-.11,1-.2l1-.25.95-.23.49-.13.46-.15a70.73,70.73,0,0,0,7.69-2.89c-.42.57-.88,1.12-1.34,1.67-.23.27-.46.55-.71.81l-.77.74c-.52.49-1.05,1-1.61,1.46s-1.16.86-1.74,1.3a30.59,30.59,0,0,1-7.91,3.87,36.42,36.42,0,0,1-8.73,1.6,43.71,43.71,0,0,1-8.79-.44,48.16,48.16,0,0,1-8.44-2.07,54.65,54.65,0,0,1-15.11-7.91A38.24,38.24,0,0,1,544.11,1091.52Z"/><path class="cls-57" d="M656.93,1047a23.69,23.69,0,0,1,3.29-2.4,32.07,32.07,0,0,1,3.62-1.92,34.63,34.63,0,0,1,7.89-2.54,33.2,33.2,0,0,1,16.71,1,35.47,35.47,0,0,1,14.16,8.83,42.63,42.63,0,0,1,9.11,13.5,97.8,97.8,0,0,0-11.45-10.85,43,43,0,0,0-13.21-7.2,38.66,38.66,0,0,0-14.86-1.75,49.07,49.07,0,0,0-7.64,1.12A56.86,56.86,0,0,0,656.93,1047Z"/><path class="cls-57" d="M839,1051.91a50.83,50.83,0,0,1,6.27-4.94,74.73,74.73,0,0,1,6.88-4.15,77.49,77.49,0,0,1,15-6,68.37,68.37,0,0,1,32.65-1.34,71.2,71.2,0,0,1,8,2.21,73.3,73.3,0,0,1,7.63,3.23,69.18,69.18,0,0,1,13.69,9,78.08,78.08,0,0,1,11.22,11.64A81.32,81.32,0,0,1,949,1075c-7.39-7.6-15-14.73-23.39-20.38a76.31,76.31,0,0,0-27.3-11.84,79,79,0,0,0-29.8-.27,109.37,109.37,0,0,0-14.89,3.69A120.21,120.21,0,0,0,839,1051.91Z"/><path class="cls-57" d="M1026.06,1206.48c3.06,3,6.1,5.9,9.22,8.6a117.45,117.45,0,0,0,9.55,7.55q1.22.87,2.46,1.68c.83.54,1.66,1.08,2.5,1.58,1.69,1,3.39,1.95,5.12,2.82a53.18,53.18,0,0,0,10.64,4,47.1,47.1,0,0,0,22.49.13c1.91-.41,3.81-1,5.72-1.56,1-.32,1.91-.62,2.86-1l1.43-.52,1.42-.57c1.91-.73,3.8-1.59,5.72-2.44l2.87-1.33c1-.45,1.92-.92,2.92-1.35-.66.85-1.35,1.68-2,2.5s-1.46,1.6-2.23,2.36a53.17,53.17,0,0,1-4.9,4.31,51.84,51.84,0,0,1-5.46,3.71c-1,.55-1.93,1.1-2.94,1.58l-1.52.74c-.5.24-1,.44-1.55.66l-.78.32-.8.29c-.53.19-1.06.4-1.6.57-1.09.34-2.18.67-3.3.92a38.93,38.93,0,0,1-6.82,1.09,43.72,43.72,0,0,1-7,0,45.48,45.48,0,0,1-6.87-1.19,47,47,0,0,1-12.64-5.34,50.17,50.17,0,0,1-5.55-3.84c-.44-.35-.88-.7-1.3-1.06s-.87-.71-1.27-1.09c-.83-.74-1.64-1.5-2.42-2.28a62.21,62.21,0,0,1-8.26-10.2,57.38,57.38,0,0,1-3.23-5.64A39.53,39.53,0,0,1,1026.06,1206.48Z"/><path class="cls-57" d="M1190.61,1072.26a26.47,26.47,0,0,1,3-4.46,38.39,38.39,0,0,1,3.7-4,39.41,39.41,0,0,1,9-6.22,37.9,37.9,0,0,1,10.6-3.47,13.19,13.19,0,0,1,1.38-.22l1.4-.15c.93-.14,1.87-.14,2.8-.19l1.41,0,1.4.06a26.16,26.16,0,0,1,2.8.19c.92.12,1.85.21,2.77.37l2.73.56a11.94,11.94,0,0,1,1.34.34l1.33.39,1.33.39c.45.12.87.31,1.3.46l2.58,1c.84.36,1.66.76,2.48,1.15,1.68.73,3.22,1.7,4.8,2.58l.59.34.56.38,1.13.75c.75.5,1.49,1,2.23,1.52,1.42,1.1,2.84,2.2,4.2,3.35s2.65,2.4,3.9,3.66,2.42,2.61,3.57,4a185.29,185.29,0,0,0-18.36-9.78,65.25,65.25,0,0,0-19.11-5.45c-.81-.13-1.63-.15-2.44-.2l-1.22-.07c-.41,0-.81,0-1.22,0a39.63,39.63,0,0,0-4.87.26,43.19,43.19,0,0,0-9.57,2.18A54.42,54.42,0,0,0,1190.61,1072.26Z"/><path class="cls-57" d="M1429.8,1060.16a33.92,33.92,0,0,1,4.36-3.64c.76-.56,1.56-1.07,2.36-1.59s1.62-1,2.46-1.44a51.6,51.6,0,0,1,10.62-4.41,48.42,48.42,0,0,1,11.51-1.9c1,0,2,0,2.94,0s2,.1,3,.15l.74,0,.73.1,1.46.21c.49.07,1,.12,1.46.22l1.45.3a27.82,27.82,0,0,1,2.86.72c.94.29,1.9.54,2.82.88l2.75,1.08a14.46,14.46,0,0,1,1.34.6l1.32.65,1.31.65,1.27.74c.83.5,1.68,1,2.49,1.52a53,53,0,0,1,4.64,3.49,57.94,57.94,0,0,1,14.2,17.68c-1.42-1.25-2.78-2.53-4.12-3.8-.71-.6-1.4-1.22-2.09-1.82l-1-.92-.51-.46-.54-.42-2.13-1.72-1.06-.87-1.1-.79c-.73-.53-1.45-1.07-2.17-1.61s-1.51-1-2.25-1.48-1.48-1-2.27-1.41l-2.3-1.34c-.78-.42-1.58-.78-2.36-1.19l-1.18-.6-1.22-.5a49.51,49.51,0,0,0-9.94-3.22l-1.27-.28c-.43-.09-.86-.14-1.29-.21-.86-.12-1.71-.3-2.58-.36s-1.74-.2-2.61-.24l-2.62-.1a60.73,60.73,0,0,0-10.56.8,75.57,75.57,0,0,0-10.5,2.52A83.9,83.9,0,0,0,1429.8,1060.16Z"/><path class="cls-57" d="M1557.06,1148.17a64.7,64.7,0,0,0,7.15,5.48,60.41,60.41,0,0,0,7.54,4.31,53,53,0,0,0,16.13,4.78,64.05,64.05,0,0,0,8.44.42,73.23,73.23,0,0,0,8.56-.73c2.89-.36,5.76-1,8.68-1.58,1.45-.33,2.9-.71,4.39-1s2.93-.78,4.46-1.09a48.7,48.7,0,0,1-16.4,8.68c-.76.22-1.51.46-2.27.66l-2.33.51c-.38.08-.77.18-1.16.25l-1.18.17c-.79.11-1.58.24-2.38.31a45,45,0,0,1-9.63-.14,40.55,40.55,0,0,1-17.89-6.83,38.42,38.42,0,0,1-7.07-6.32,35.06,35.06,0,0,1-2.84-3.74A23.29,23.29,0,0,1,1557.06,1148.17Z"/><path class="cls-57" d="M1713.58,1055a35.73,35.73,0,0,1,4.54-3.39,51.42,51.42,0,0,1,5-2.81,59,59,0,0,1,10.69-4.1,57.18,57.18,0,0,1,23-1.55c1,.15,1.93.29,2.89.47l2.85.64c.48.1,1,.24,1.41.38l1.4.42,1.4.42,1.37.51a54.94,54.94,0,0,1,10.4,5.13,58,58,0,0,1,16.43,15.62c-.79-.52-1.54-1.07-2.31-1.6l-1.14-.82c-.37-.27-.74-.55-1.13-.8-.78-.5-1.55-1-2.31-1.53l-1.14-.78c-.39-.25-.79-.47-1.18-.71l-2.33-1.44c-.76-.48-1.58-.89-2.37-1.33l-1.19-.66-.58-.33c-.2-.11-.41-.2-.61-.3l-2.42-1.19c-.79-.43-1.64-.73-2.45-1.09l-1.23-.54-.61-.27-.63-.23c-.83-.3-1.67-.6-2.49-.92s-1.69-.54-2.54-.81l-1.26-.41-1.28-.32-1.29-.34c-.42-.11-.85-.22-1.28-.3l-2.59-.53c-.87-.16-1.75-.26-2.62-.4a73.72,73.72,0,0,0-21.23.2,92.26,92.26,0,0,0-10.63,2.25A99.92,99.92,0,0,0,1713.58,1055Z"/><path class="cls-57" d="M1834.1,1129.39a35.4,35.4,0,0,0,9.6,4.22,30.58,30.58,0,0,0,9.78,1,46,46,0,0,0,9.91-1.82c.84-.22,1.65-.52,2.5-.76l2.53-.83c.84-.31,1.69-.61,2.57-.89s1.73-.62,2.64-.89a28.59,28.59,0,0,1-8.76,7,27.43,27.43,0,0,1-11.1,3.17,22.56,22.56,0,0,1-11.49-2.31,20.68,20.68,0,0,1-4.77-3.32A15.27,15.27,0,0,1,1834.1,1129.39Z"/><path class="cls-57" d="M1903.76,1069.13a34.43,34.43,0,0,1,5.24-2.58,51.19,51.19,0,0,1,5.57-1.85,56.49,56.49,0,0,1,11.67-1.88,58.27,58.27,0,0,1,11.94.57c1,.16,2,.35,3,.54s2,.46,2.93.69l.74.19.72.22,1.43.45c.48.16,1,.3,1.44.47l1.41.53c1.89.7,3.7,1.58,5.52,2.44s3.54,1.9,5.19,3,3.28,2.31,4.85,3.53c.77.63,1.51,1.3,2.26,2l1.11,1c.36.34.7.71,1,1.06a60,60,0,0,1,13,19.37c-.71-.67-1.38-1.37-2.06-2s-1.31-1.39-2-2-1.36-1.33-2-2-1.32-1.34-2-2c-1.4-1.26-2.73-2.56-4.19-3.72-.72-.59-1.4-1.21-2.12-1.79s-1.47-1.11-2.19-1.68c-.36-.28-.71-.57-1.08-.84l-1.14-.78c-.75-.52-1.48-1.07-2.23-1.57-1.57-.94-3-2-4.65-2.82a64.24,64.24,0,0,0-9.75-4.61l-1.25-.5-1.28-.43c-.86-.27-1.7-.6-2.57-.82s-1.73-.52-2.6-.74-1.76-.41-2.63-.63a82.27,82.27,0,0,0-10.79-1.59,90.91,90.91,0,0,0-11.09-.23A100.44,100.44,0,0,0,1903.76,1069.13Z"/><path class="cls-57" d="M2043.45,1233.09c1.71.81,3.39,1.57,5.06,2.32s3.33,1.44,5,2.11a105,105,0,0,0,9.93,3.49c.83.24,1.65.49,2.48.68s1.64.45,2.47.6,1.65.36,2.47.49l1.23.21c.41.09.82.14,1.23.19a47.68,47.68,0,0,0,9.74.41,44.84,44.84,0,0,0,9.46-1.7,47.79,47.79,0,0,0,9.1-3.82c.73-.43,1.48-.83,2.23-1.24a12.21,12.21,0,0,0,1.08-.68c.36-.25.73-.47,1.09-.71,1.49-.89,2.87-2,4.33-3a25.55,25.55,0,0,0,2.13-1.63c.72-.55,1.42-1.11,2.16-1.66,1.41-1.16,2.8-2.37,4.34-3.51a53.12,53.12,0,0,1-2.29,5.19c-.45.82-.94,1.63-1.42,2.45a25.27,25.27,0,0,1-1.56,2.4L2112,1238a9.77,9.77,0,0,1-.92,1.12l-1,1.07c-.33.36-.65.72-1,1.07a14.43,14.43,0,0,1-1,1c-.73.65-1.46,1.32-2.22,2a41,41,0,0,1-4.87,3.44c-.87.5-1.75,1-2.63,1.48s-1.85.82-2.79,1.22a39,39,0,0,1-11.88,2.69,40.93,40.93,0,0,1-12-1c-1-.19-1.92-.51-2.87-.78s-1.88-.62-2.8-1-1.83-.71-2.72-1.11-1.76-.83-2.63-1.27a51.57,51.57,0,0,1-9.54-6.42,50.86,50.86,0,0,1-4.1-3.94A32.17,32.17,0,0,1,2043.45,1233.09Z"/><path class="cls-57" d="M2233.63,1019.83a64.31,64.31,0,0,1,7.22-5c1.24-.78,2.53-1.48,3.81-2.2s2.59-1.38,3.91-2a111.41,111.41,0,0,1,16.44-6.48,108.11,108.11,0,0,1,35.22-4.65l4.48.3,1.11.08,1.12.13,2.22.28,2.22.29c.74.11,1.47.27,2.21.4l2.2.41c.73.14,1.47.25,2.19.45l4.34,1.1,1.09.28,1.06.34,2.13.7c2.86.84,5.59,2,8.35,3.15,1.36.59,2.69,1.27,4,1.91l2,1c.66.34,1.29.73,1.94,1.09l3.84,2.21c1.25.79,2.46,1.63,3.69,2.45,2.47,1.59,4.74,3.49,7,5.3,1.17.88,2.21,1.93,3.29,2.91s2.14,2,3.17,3a162.14,162.14,0,0,0-31-14.73,133.4,133.4,0,0,0-16.32-4.2c-1.38-.25-2.77-.44-4.15-.66-.7-.11-1.38-.24-2.08-.32l-2.09-.21-2.09-.23c-.35,0-.69-.09-1-.11l-1-.07-4.19-.25a139.82,139.82,0,0,0-33.58,3,166.2,166.2,0,0,0-16.53,4.35c-2.74.85-5.45,1.79-8.16,2.79-.68.24-1.35.5-2,.76s-1.35.52-2,.79C2236.29,1018.66,2235,1019.24,2233.63,1019.83Z"/><path class="cls-57" d="M2402.67,1089.48a61,61,0,0,0,8.87,7.51,30.87,30.87,0,0,0,9.61,4.48,27,27,0,0,0,5.17.89l.66.07.67,0c.45,0,.9,0,1.35,0,.91,0,1.82,0,2.75-.09.46,0,.93,0,1.39-.08s.93-.12,1.41-.15l.71-.07.71-.11,1.44-.2c1-.14,1.93-.33,2.93-.47s2-.36,3-.49a25.84,25.84,0,0,1-10.77,6.22,24.1,24.1,0,0,1-6.41,1,22.59,22.59,0,0,1-6.58-.78,23.55,23.55,0,0,1-6.1-2.61,24,24,0,0,1-5.05-4.12,25.46,25.46,0,0,1-3.7-5.17,21.64,21.64,0,0,1-1.28-2.87A15.12,15.12,0,0,1,2402.67,1089.48Z"/><g class="cls-58"><path class="cls-59" d="M2500,671.82V858.74c-59.92-18.41-51.39,58.65-77.34,64.71-20.86,4.88-42.55,9.77-63.5,5.29-25.25-5.39-46.42-23.81-71.87-28.14-64.5-11-117.17,70.35-181.9,60.83-48-7-81.47-62.59-129.91-60.11-47.54,2.43-80.29,60.67-127.78,57.43-32.69-2.23-56.21-33.2-87.65-42.42-51-15-101.19,30.45-154.26,29.13-59.24-1.47-110-60.6-168-48.69-41.59,8.54-73,52.4-115.37,49.54-27.14-1.84-49.6-23-76.49-27.09-64.09-9.75-110.61,77.49-175.22,72.18-52.42-4.31-82.67-67-133.91-78.92-50.41-11.68-104.6,29.73-152.58,10.35-26.76-10.81-44.61-38.6-72.35-46.57-57.84-16.62-107.14,61-167,54.68-29.37-3.08-53.42-26.17-82.59-30.75-46.74-7.35-90.73,34.21-137.54,27.35-45.41-6.65-76.67-56.68-122.51-58.92-46.61-2.27-88.78,46.64-133.29,32.61-18.55-5.85-32-21.54-47.92-32.7a66.25,66.25,0,0,0-21-9.79V671.82Z"/></g><path class="cls-2" d="M2500,1044.62c30.41-17.82,61.95,20.55,78,51.9s54.71,65.89,80.4,41.75c16.23-15.25,11.24-43.66,25.46-60.8,19.32-23.28,59.72-8.89,76.06,16.58s18.82,57.33,31.24,84.92,43.76,52.27,71.18,39.5c8.76-4.08,15.6-11.44,20.92-19.5,19.81-30.06,20-68.92,34.44-101.89s58.63-59.57,85.26-35.35c11.32,10.31,15.12,26.36,23.51,39.17,19.34,29.51,65.95,36,92.6,12.86,20.58-17.86,34.17-51.19,61.36-49.3,31.05,2.15,38.36,48,66.25,61.85,45.49,22.52,82.12-53.45,132.56-59,48.18-5.31,75.31,51.5,97,94.83a366.82,366.82,0,0,0,48.36,73.12c10.07,11.87,21.62,23.54,36.53,28,45.18,13.51,78.09-42.19,91.68-87.35s43.6-101.54,89.58-91.07c31.66,7.2,49.46,45.06,81.29,51.43,52,10.41,89.33-68.46,141.69-60,54.87,8.89,60.09,101.28,114.35,113.36,37.86,8.44,68.92-28.36,91.65-59.79s59.46-65.31,94.95-49.66c20.82,9.19,31.12,32.07,43.94,50.88s36,36.17,56.7,26.62c23.11-10.69,23.74-46.15,45.24-59.78,31-19.62,64.51,20.95,78.89,54.65l33.83,79.29c5.7,13.36,11.88,27.35,23.48,36.1,25.69,19.41,64.84,2.41,82.51-24.51s21.31-60.31,30.44-91.19c13.15-44.46,40.5-86.87,82.08-107.4s98.17-13.42,126,23.65c19,25.28,35.38,67,65.83,58.4,20.85-5.87,26.32-31.94,36.09-51.26,6.5-12.87,16.55-23.05,28.53-31v-362H2500Z"/><g class="cls-60"><rect class="cls-4" x="2500" y="1265.53" width="2499.99" height="11.05"/><rect class="cls-4" x="2500" y="1254.33" width="2499.99" height="11.2"/><rect class="cls-5" x="2500" y="1243.13" width="2499.99" height="11.2"/><rect class="cls-6" x="2500" y="1231.93" width="2499.99" height="11.2"/><rect class="cls-7" x="2500" y="1220.73" width="2499.99" height="11.2"/><rect class="cls-8" x="2500" y="1209.52" width="2499.99" height="11.2"/><rect class="cls-9" x="2500" y="1198.32" width="2499.99" height="11.2"/><rect class="cls-10" x="2500" y="1187.12" width="2499.99" height="11.2"/><rect class="cls-11" x="2500" y="1175.92" width="2499.99" height="11.2"/><rect class="cls-12" x="2500" y="1164.71" width="2499.99" height="11.2"/><rect class="cls-13" x="2500" y="1153.51" width="2499.99" height="11.2"/><rect class="cls-14" x="2500" y="1142.31" width="2499.99" height="11.2"/><rect class="cls-15" x="2500" y="1131.11" width="2499.99" height="11.2"/><rect class="cls-16" x="2500" y="1119.91" width="2499.99" height="11.2"/><rect class="cls-17" x="2500" y="1108.7" width="2499.99" height="11.2"/><rect class="cls-18" x="2500" y="1097.5" width="2499.99" height="11.2"/><rect class="cls-19" x="2500" y="1086.3" width="2499.99" height="11.2"/><rect class="cls-20" x="2500" y="1075.1" width="2499.99" height="11.2"/><rect class="cls-21" x="2500" y="1063.89" width="2499.99" height="11.2"/><rect class="cls-22" x="2500" y="1052.69" width="2499.99" height="11.2"/><rect class="cls-23" x="2500" y="1041.49" width="2499.99" height="11.2"/><rect class="cls-24" x="2500" y="1030.29" width="2499.99" height="11.2"/><rect class="cls-25" x="2500" y="1019.08" width="2499.99" height="11.2"/><rect class="cls-26" x="2500" y="1007.88" width="2499.99" height="11.2"/><rect class="cls-27" x="2500" y="996.68" width="2499.99" height="11.2"/><rect class="cls-28" x="2500" y="985.48" width="2499.99" height="11.2"/><rect class="cls-29" x="2500" y="974.28" width="2499.99" height="11.2"/><rect class="cls-30" x="2500" y="963.07" width="2499.99" height="11.2"/><rect class="cls-31" x="2500" y="951.87" width="2499.99" height="11.2"/><rect class="cls-32" x="2500" y="940.67" width="2499.99" height="11.2"/><rect class="cls-33" x="2500" y="929.47" width="2499.99" height="11.2"/><rect class="cls-34" x="2500" y="918.26" width="2499.99" height="11.2"/><rect class="cls-35" x="2500" y="907.06" width="2499.99" height="11.2"/><rect class="cls-36" x="2500" y="895.86" width="2499.99" height="11.2"/><rect class="cls-37" x="2500" y="884.66" width="2499.99" height="11.2"/><rect class="cls-38" x="2500" y="873.46" width="2499.99" height="11.2"/><rect class="cls-39" x="2500" y="862.25" width="2499.99" height="11.2"/><rect class="cls-40" x="2500" y="851.05" width="2499.99" height="11.2"/><rect class="cls-41" x="2500" y="839.85" width="2499.99" height="11.2"/><rect class="cls-42" x="2500" y="828.65" width="2499.99" height="11.2"/><rect class="cls-43" x="2500" y="817.44" width="2499.99" height="11.2"/><rect class="cls-44" x="2500" y="806.24" width="2499.99" height="11.2"/><rect class="cls-45" x="2500" y="795.04" width="2499.99" height="11.2"/><rect class="cls-46" x="2500" y="783.84" width="2499.99" height="11.2"/><rect class="cls-47" x="2500" y="772.64" width="2499.99" height="11.2"/><rect class="cls-48" x="2500" y="761.43" width="2499.99" height="11.2"/><rect class="cls-49" x="2500" y="750.23" width="2499.99" height="11.2"/><rect class="cls-50" x="2500" y="739.03" width="2499.99" height="11.2"/><rect class="cls-51" x="2500" y="727.83" width="2499.99" height="11.2"/><rect class="cls-52" x="2500" y="716.62" width="2499.99" height="11.2"/><rect class="cls-53" x="2500" y="705.42" width="2499.99" height="11.2"/><rect class="cls-54" x="2500" y="694.22" width="2499.99" height="11.2"/><rect class="cls-55" x="2500" y="683.02" width="2499.99" height="11.2"/><rect class="cls-56" x="2500" y="671.82" width="2499.99" height="11.2"/><path class="cls-56" d="M5000,671.82h0Z"/></g><path class="cls-57" d="M2516.39,1010.36a38,38,0,0,1,6.11.52c2,.32,4,.77,6,1.29a73.07,73.07,0,0,1,11.58,4.25,79.08,79.08,0,0,1,10.78,6.12c.86.59,1.72,1.17,2.54,1.8l2.48,1.88c1.6,1.32,3.19,2.65,4.71,4.07.76.7,1.51,1.41,2.23,2.16s1.46,1.47,2.17,2.23c1.36,1.56,2.77,3.09,4,4.74s2.49,3.3,3.67,5c.58.85,1.12,1.74,1.67,2.61s1.1,1.74,1.58,2.65a74.28,74.28,0,0,1,8.53,22.9c-.59-.84-1.12-1.7-1.68-2.54l-.8-1.28c-.27-.43-.52-.86-.81-1.27-.56-.83-1.1-1.67-1.64-2.51l-.8-1.25-.85-1.22-1.66-2.46c-.56-.81-1.15-1.6-1.72-2.4l-.85-1.19c-.28-.41-.56-.81-.87-1.19-.59-.78-1.19-1.55-1.77-2.33s-1.2-1.53-1.81-2.29-1.18-1.53-1.82-2.26c-1.28-1.46-2.48-3-3.81-4.37q-3.86-4.32-8.1-8.23t-8.78-7.49q-4.56-3.54-9.46-6.72A140.37,140.37,0,0,0,2516.39,1010.36Z"/><path class="cls-57" d="M2615.89,1114.13a108.91,108.91,0,0,0,12.13,5.42,33.82,33.82,0,0,0,12.09,2.32,17.29,17.29,0,0,0,5.72-1A20.56,20.56,0,0,0,2651,1118l1.2-1a14.43,14.43,0,0,0,1.15-1.07c.37-.37.78-.72,1.13-1.13l1.07-1.21a14,14,0,0,0,1-1.26c.35-.43.69-.87,1.05-1.3.66-.9,1.32-1.82,2-2.73-.23,1.12-.48,2.25-.81,3.36-.18.55-.39,1.09-.59,1.64a13.53,13.53,0,0,1-.68,1.62l-.79,1.58a7.23,7.23,0,0,1-.45.76l-.49.75a23.28,23.28,0,0,1-2.22,2.88,19.85,19.85,0,0,1-6.06,4.36c-.59.24-1.17.49-1.78.7l-1.84.51c-.62.12-1.25.21-1.87.31s-1.26.1-1.89.14a24.22,24.22,0,0,1-3.72-.22c-.61-.07-1.21-.2-1.81-.32-.3-.07-.6-.12-.89-.2l-.87-.25a30.93,30.93,0,0,1-6.58-2.77,37,37,0,0,1-5.72-4,33.43,33.43,0,0,1-2.53-2.37A23.39,23.39,0,0,1,2615.89,1114.13Z"/><path class="cls-57" d="M2681.24,1045.65a31,31,0,0,1,5.09-3.18,49.67,49.67,0,0,1,5.55-2.4,53.85,53.85,0,0,1,11.89-2.7,54.41,54.41,0,0,1,12.3.06c.51.06,1,.09,1.54.18l1.52.26,1.52.27c.51.09,1,.22,1.51.33l1.51.36.75.19.74.22,3,.9c1.93.74,3.87,1.43,5.72,2.32s3.66,1.84,5.46,2.82l2.59,1.62,1.29.82,1.24.9,2.45,1.8c.79.64,1.56,1.31,2.34,1.95a71.89,71.89,0,0,1,15.39,18.32c-1.57-1.24-3.08-2.51-4.56-3.79-.78-.61-1.53-1.23-2.3-1.84s-1.49-1.25-2.26-1.84l-2.32-1.76c-.77-.59-1.51-1.2-2.31-1.74-1.58-1.09-3.1-2.26-4.73-3.27-.79-.52-1.58-1-2.39-1.56l-2.44-1.46-1.21-.73-1.25-.67-2.49-1.34c-1.71-.79-3.36-1.69-5.11-2.36s-3.46-1.39-5.21-2a71.81,71.81,0,0,0-22-3.83A74.9,74.9,0,0,0,2681.24,1045.65Z"/><path class="cls-57" d="M2812.72,1174.39l3.7,2.73c1.22.89,2.4,1.78,3.61,2.62q3.57,2.58,7.13,4.85a62.26,62.26,0,0,0,14.48,7c.62.17,1.23.4,1.85.53l1.86.45c.63.1,1.25.19,1.88.31a7.55,7.55,0,0,0,.94.12c.32,0,.63.06.95.09a17.31,17.31,0,0,0,1.9.12,15.53,15.53,0,0,0,1.93,0c.64,0,1.29,0,1.94-.08s1.3-.15,2-.21a8.15,8.15,0,0,0,1-.15l1-.18,1-.17c.34,0,.66-.16,1-.24.66-.17,1.34-.33,2-.48s1.34-.42,2-.63l1-.3c.36-.1.68-.26,1-.37.69-.24,1.37-.5,2.09-.74l.54-.18.51-.22,1.06-.42c.72-.27,1.44-.55,2.2-.79-.41.66-.87,1.29-1.33,1.93l-.7,1-.37.47-.39.43a30.49,30.49,0,0,1-3.4,3.32c-.62.5-1.24,1-1.89,1.5s-1.36.88-2.05,1.31c-.35.2-.69.45-1.06.62l-1.1.55-1.13.53a9,9,0,0,1-1.15.48,30.19,30.19,0,0,1-20,.52,37.19,37.19,0,0,1-9-4.24,41.73,41.73,0,0,1-7.44-6.13,44.32,44.32,0,0,1-5.79-7.43,38.15,38.15,0,0,1-2.24-4.12A25.76,25.76,0,0,1,2812.72,1174.39Z"/><path class="cls-57" d="M2944.43,1036.65a29.39,29.39,0,0,1,3.65-3.92,38.21,38.21,0,0,1,4.21-3.38,42.49,42.49,0,0,1,9.64-5.09,40.52,40.52,0,0,1,21.94-1.91c.92.17,1.82.43,2.72.64a27.52,27.52,0,0,1,2.68.8,51.17,51.17,0,0,1,5.15,2.06l2.44,1.29c.41.22.82.42,1.21.66l1.16.75c.77.5,1.55,1,2.3,1.49l2.17,1.65a59.72,59.72,0,0,1,14.17,16c-.71-.55-1.38-1.12-2.07-1.67l-2-1.71c-1.39-1.08-2.75-2.17-4.1-3.25l-2.1-1.54-1-.77c-.34-.26-.69-.51-1.05-.74-.72-.47-1.43-1-2.14-1.43-.35-.23-.7-.48-1.06-.71l-1.09-.65-2.18-1.3c-.74-.41-1.49-.79-2.23-1.19l-1.11-.58c-.38-.19-.76-.35-1.14-.53l-2.28-1c-1.56-.56-3.08-1.23-4.68-1.65-.79-.24-1.57-.51-2.37-.67s-1.6-.4-2.41-.54a45.14,45.14,0,0,0-19.61.62,55.68,55.68,0,0,0-9.6,3.32A65.49,65.49,0,0,0,2944.43,1036.65Z"/><path class="cls-57" d="M3044.11,1091.52c5.36,1.83,10.46,3.64,15.58,5.18a110.67,110.67,0,0,0,15.3,3.6,72.88,72.88,0,0,0,7.63.72,55.52,55.52,0,0,0,7.62-.33c.63-.1,1.27-.18,1.91-.26s1.25-.26,1.9-.37c.31-.07.64-.11.95-.2l.95-.25,1-.23.49-.13.46-.15a70.73,70.73,0,0,0,7.69-2.89c-.42.57-.88,1.12-1.34,1.67-.23.27-.46.55-.71.81l-.77.74c-.52.49-1,1-1.61,1.46s-1.16.86-1.74,1.3a30.59,30.59,0,0,1-7.91,3.87,36.42,36.42,0,0,1-8.73,1.6,43.71,43.71,0,0,1-8.79-.44,48.16,48.16,0,0,1-8.44-2.07,54.65,54.65,0,0,1-15.11-7.91A38.24,38.24,0,0,1,3044.11,1091.52Z"/><path class="cls-57" d="M3156.93,1047a23.69,23.69,0,0,1,3.29-2.4,32.07,32.07,0,0,1,3.62-1.92,34.63,34.63,0,0,1,7.89-2.54,33.2,33.2,0,0,1,16.71,1,35.47,35.47,0,0,1,14.16,8.83,42.63,42.63,0,0,1,9.11,13.5,97.8,97.8,0,0,0-11.45-10.85,43,43,0,0,0-13.21-7.2,38.66,38.66,0,0,0-14.86-1.75,49.07,49.07,0,0,0-7.64,1.12A56.86,56.86,0,0,0,3156.93,1047Z"/><path class="cls-57" d="M3339,1051.91a50.83,50.83,0,0,1,6.27-4.94,74.73,74.73,0,0,1,6.88-4.15,77.49,77.49,0,0,1,15-6,68.37,68.37,0,0,1,32.65-1.34,71.2,71.2,0,0,1,8,2.21,73.3,73.3,0,0,1,7.63,3.23,69.18,69.18,0,0,1,13.69,9,78.08,78.08,0,0,1,11.22,11.64A81.32,81.32,0,0,1,3449,1075c-7.39-7.6-14.95-14.73-23.39-20.38a76.31,76.31,0,0,0-27.3-11.84,79,79,0,0,0-29.8-.27,109.37,109.37,0,0,0-14.89,3.69A120.21,120.21,0,0,0,3339,1051.91Z"/><path class="cls-57" d="M3526.06,1206.48c3.06,3,6.1,5.9,9.22,8.6a117.45,117.45,0,0,0,9.55,7.55q1.22.87,2.46,1.68c.83.54,1.66,1.08,2.5,1.58,1.69,1,3.39,1.95,5.12,2.82a53.18,53.18,0,0,0,10.64,4,47.1,47.1,0,0,0,22.49.13c1.91-.41,3.81-1,5.72-1.56.95-.32,1.91-.62,2.86-1l1.43-.52,1.42-.57c1.91-.73,3.8-1.59,5.72-2.44l2.87-1.33c1-.45,1.92-.92,2.92-1.35-.66.85-1.35,1.68-2.05,2.5s-1.46,1.6-2.23,2.36a53.17,53.17,0,0,1-4.9,4.31,51.84,51.84,0,0,1-5.46,3.71c-1,.55-1.93,1.1-2.94,1.58l-1.52.74c-.5.24-1,.44-1.55.66l-.78.32-.8.29c-.53.19-1.06.4-1.6.57-1.09.34-2.18.67-3.3.92a38.93,38.93,0,0,1-6.82,1.09,43.72,43.72,0,0,1-7,0,45.48,45.48,0,0,1-6.87-1.19,47,47,0,0,1-12.64-5.34,50.17,50.17,0,0,1-5.55-3.84c-.44-.35-.88-.7-1.3-1.06s-.87-.71-1.27-1.09c-.83-.74-1.64-1.5-2.42-2.28a62.21,62.21,0,0,1-8.26-10.2,57.38,57.38,0,0,1-3.23-5.64A39.53,39.53,0,0,1,3526.06,1206.48Z"/><path class="cls-57" d="M3690.61,1072.26a26.47,26.47,0,0,1,3-4.46,38.39,38.39,0,0,1,3.7-4,39.41,39.41,0,0,1,9-6.22,37.9,37.9,0,0,1,10.6-3.47,13.19,13.19,0,0,1,1.38-.22l1.4-.15c.93-.14,1.87-.14,2.8-.19l1.41,0,1.4.06a26.16,26.16,0,0,1,2.8.19c.92.12,1.85.21,2.77.37l2.73.56a11.94,11.94,0,0,1,1.34.34l1.33.39,1.33.39c.45.12.87.31,1.3.46l2.58,1c.84.36,1.66.76,2.48,1.15,1.68.73,3.22,1.7,4.8,2.58l.59.34.56.38,1.13.75c.75.5,1.49,1,2.23,1.52,1.42,1.1,2.84,2.2,4.2,3.35s2.65,2.4,3.9,3.66,2.42,2.61,3.57,4a185.29,185.29,0,0,0-18.36-9.78,65.25,65.25,0,0,0-19.11-5.45c-.81-.13-1.63-.15-2.44-.2l-1.22-.07c-.41,0-.81,0-1.22,0a39.63,39.63,0,0,0-4.87.26,43.19,43.19,0,0,0-9.57,2.18A54.42,54.42,0,0,0,3690.61,1072.26Z"/><path class="cls-57" d="M3929.8,1060.16a33.92,33.92,0,0,1,4.36-3.64c.76-.56,1.56-1.07,2.36-1.59s1.62-1,2.46-1.44a51.6,51.6,0,0,1,10.62-4.41,48.42,48.42,0,0,1,11.51-1.9c1,0,2,0,2.94,0s2,.1,2.95.15l.74,0,.73.1,1.46.21c.49.07,1,.12,1.46.22l1.45.3a27.82,27.82,0,0,1,2.86.72c.94.29,1.9.54,2.82.88l2.75,1.08a14.46,14.46,0,0,1,1.34.6l1.32.65,1.31.65,1.27.74c.83.5,1.68,1,2.49,1.52a53,53,0,0,1,4.64,3.49,57.94,57.94,0,0,1,14.2,17.68c-1.42-1.25-2.78-2.53-4.12-3.8-.71-.6-1.4-1.22-2.09-1.82l-1-.92-.51-.46-.54-.42-2.13-1.72-1.06-.87-1.1-.79c-.73-.53-1.45-1.07-2.17-1.61s-1.51-1-2.25-1.48-1.48-1-2.27-1.41l-2.3-1.34c-.78-.42-1.58-.78-2.36-1.19l-1.18-.6-1.22-.5a49.51,49.51,0,0,0-9.94-3.22l-1.27-.28c-.43-.09-.86-.14-1.29-.21-.86-.12-1.71-.3-2.58-.36s-1.74-.2-2.61-.24l-2.62-.1a60.73,60.73,0,0,0-10.56.8,75.57,75.57,0,0,0-10.5,2.52A83.9,83.9,0,0,0,3929.8,1060.16Z"/><path class="cls-57" d="M4057.06,1148.17a64.7,64.7,0,0,0,7.15,5.48,60.41,60.41,0,0,0,7.54,4.31,53,53,0,0,0,16.13,4.78,64.05,64.05,0,0,0,8.44.42,73.23,73.23,0,0,0,8.56-.73c2.89-.36,5.76-1,8.68-1.58,1.45-.33,2.9-.71,4.39-1s2.93-.78,4.46-1.09a48.7,48.7,0,0,1-16.4,8.68c-.76.22-1.51.46-2.27.66l-2.33.51c-.38.08-.77.18-1.16.25l-1.18.17c-.79.11-1.58.24-2.38.31a45,45,0,0,1-9.63-.14,40.55,40.55,0,0,1-17.89-6.83,38.42,38.42,0,0,1-7.07-6.32,35.06,35.06,0,0,1-2.84-3.74A23.29,23.29,0,0,1,4057.06,1148.17Z"/><path class="cls-57" d="M4213.58,1055a35.73,35.73,0,0,1,4.54-3.39,51.42,51.42,0,0,1,5-2.81,59,59,0,0,1,10.69-4.1,57.18,57.18,0,0,1,23-1.55c1,.15,1.93.29,2.89.47l2.85.64c.48.1.95.24,1.41.38l1.4.42,1.4.42,1.37.51a54.94,54.94,0,0,1,10.4,5.13,58,58,0,0,1,16.43,15.62c-.79-.52-1.54-1.07-2.31-1.6l-1.14-.82c-.37-.27-.74-.55-1.13-.8-.78-.5-1.55-1-2.31-1.53l-1.14-.78c-.39-.25-.79-.47-1.18-.71l-2.33-1.44c-.76-.48-1.58-.89-2.37-1.33l-1.19-.66-.58-.33c-.2-.11-.41-.2-.61-.3l-2.42-1.19c-.79-.43-1.64-.73-2.45-1.09l-1.23-.54-.61-.27-.63-.23c-.83-.3-1.67-.6-2.49-.92s-1.69-.54-2.54-.81l-1.26-.41-1.28-.32-1.29-.34c-.42-.11-.85-.22-1.28-.3l-2.59-.53c-.87-.16-1.75-.26-2.62-.4a73.72,73.72,0,0,0-21.23.2,92.26,92.26,0,0,0-10.63,2.25A99.92,99.92,0,0,0,4213.58,1055Z"/><path class="cls-57" d="M4334.1,1129.39a35.4,35.4,0,0,0,9.6,4.22,30.58,30.58,0,0,0,9.78,1,46,46,0,0,0,9.91-1.82c.84-.22,1.65-.52,2.5-.76l2.53-.83c.84-.31,1.69-.61,2.57-.89s1.73-.62,2.64-.89a28.59,28.59,0,0,1-8.76,7,27.43,27.43,0,0,1-11.1,3.17,22.56,22.56,0,0,1-11.49-2.31,20.68,20.68,0,0,1-4.77-3.32A15.27,15.27,0,0,1,4334.1,1129.39Z"/><path class="cls-57" d="M4403.76,1069.13a34.43,34.43,0,0,1,5.24-2.58,51.19,51.19,0,0,1,5.57-1.85,56.49,56.49,0,0,1,11.67-1.88,58.27,58.27,0,0,1,11.94.57c1,.16,2,.35,3,.54s2,.46,2.93.69l.74.19.72.22,1.43.45c.48.16,1,.3,1.44.47l1.41.53c1.89.7,3.7,1.58,5.52,2.44s3.54,1.9,5.19,3,3.28,2.31,4.85,3.53c.77.63,1.51,1.3,2.26,2l1.11,1c.36.34.7.71,1.05,1.06a60,60,0,0,1,13,19.37c-.71-.67-1.38-1.37-2.06-2s-1.31-1.39-2-2-1.36-1.33-2-2-1.32-1.34-2-2c-1.4-1.26-2.73-2.56-4.19-3.72-.72-.59-1.4-1.21-2.12-1.79s-1.47-1.11-2.19-1.68c-.36-.28-.71-.57-1.08-.84l-1.14-.78c-.75-.52-1.48-1.07-2.23-1.57-1.57-.94-3-2-4.65-2.82a64.24,64.24,0,0,0-9.75-4.61l-1.25-.5-1.28-.43c-.86-.27-1.7-.6-2.57-.82s-1.73-.52-2.6-.74-1.76-.41-2.63-.63a82.27,82.27,0,0,0-10.79-1.59,90.91,90.91,0,0,0-11.09-.23A100.44,100.44,0,0,0,4403.76,1069.13Z"/><path class="cls-57" d="M4543.45,1233.09c1.71.81,3.39,1.57,5.06,2.32s3.33,1.44,5,2.11a105,105,0,0,0,9.93,3.49c.83.24,1.65.49,2.48.68s1.64.45,2.47.6,1.65.36,2.47.49l1.23.21c.41.09.82.14,1.23.19a47.68,47.68,0,0,0,9.74.41,44.84,44.84,0,0,0,9.46-1.7,47.79,47.79,0,0,0,9.1-3.82c.73-.43,1.48-.83,2.23-1.24a12.21,12.21,0,0,0,1.08-.68c.36-.25.73-.47,1.09-.71,1.49-.89,2.87-2,4.33-3a25.55,25.55,0,0,0,2.13-1.63c.72-.55,1.42-1.11,2.16-1.66,1.41-1.16,2.8-2.37,4.34-3.51a53.12,53.12,0,0,1-2.29,5.19c-.45.82-.94,1.63-1.42,2.45a25.27,25.27,0,0,1-1.56,2.4L4612,1238a9.77,9.77,0,0,1-.92,1.12l-1,1.07c-.33.36-.65.72-1,1.07a12.64,12.64,0,0,1-1,1c-.73.65-1.46,1.32-2.22,2a41,41,0,0,1-4.87,3.44c-.87.5-1.75,1-2.63,1.48s-1.85.82-2.79,1.22a39,39,0,0,1-11.88,2.69,40.93,40.93,0,0,1-12-1c-1-.19-1.92-.51-2.87-.78s-1.88-.62-2.8-1-1.83-.71-2.72-1.11-1.76-.83-2.63-1.27a51.57,51.57,0,0,1-9.54-6.42,50.86,50.86,0,0,1-4.1-3.94A32.17,32.17,0,0,1,4543.45,1233.09Z"/><path class="cls-57" d="M4733.63,1019.83a64.31,64.31,0,0,1,7.22-5c1.24-.78,2.53-1.48,3.81-2.2s2.59-1.38,3.91-2a111.41,111.41,0,0,1,16.44-6.48,108.11,108.11,0,0,1,35.22-4.65l4.48.3,1.11.08,1.12.13,2.22.28,2.22.29c.74.11,1.47.27,2.21.4l2.2.41c.73.14,1.47.25,2.19.45l4.34,1.1,1.09.28,1.06.34,2.13.7c2.86.84,5.59,2,8.35,3.15,1.36.59,2.69,1.27,4,1.91l2,1c.66.34,1.29.73,1.94,1.09l3.84,2.21c1.25.79,2.46,1.63,3.69,2.45,2.47,1.59,4.74,3.49,7,5.3,1.17.88,2.21,1.93,3.29,2.91s2.14,2,3.17,3a162.14,162.14,0,0,0-31-14.73,133.4,133.4,0,0,0-16.32-4.2c-1.38-.25-2.77-.44-4.15-.66-.7-.11-1.38-.24-2.08-.32l-2.09-.21-2.09-.23c-.35,0-.69-.09-1-.11l-1.05-.07-4.19-.25a139.82,139.82,0,0,0-33.58,3,166.2,166.2,0,0,0-16.53,4.35c-2.74.85-5.45,1.79-8.16,2.79-.68.24-1.35.5-2,.76s-1.35.52-2,.79C4736.29,1018.66,4735,1019.24,4733.63,1019.83Z"/><path class="cls-57" d="M4902.67,1089.48a61,61,0,0,0,8.87,7.51,30.87,30.87,0,0,0,9.61,4.48,27,27,0,0,0,5.17.89l.66.07.67,0c.45,0,.9,0,1.35,0,.91,0,1.82,0,2.75-.09.46,0,.93,0,1.39-.08s.93-.12,1.41-.15l.71-.07.71-.11,1.44-.2c1-.14,1.93-.33,2.93-.47s2-.36,3-.49a25.84,25.84,0,0,1-10.77,6.22,24.1,24.1,0,0,1-6.41,1,22.59,22.59,0,0,1-6.58-.78,23.55,23.55,0,0,1-6.1-2.61,24,24,0,0,1-5.05-4.12,25.46,25.46,0,0,1-3.7-5.17,21.64,21.64,0,0,1-1.28-2.87A15.12,15.12,0,0,1,4902.67,1089.48Z"/><g class="cls-58"><path class="cls-59" d="M5000,671.82V858.74c-59.92-18.41-51.39,58.65-77.34,64.71-20.86,4.88-42.55,9.77-63.5,5.29-25.25-5.39-46.42-23.81-71.87-28.14-64.5-11-117.17,70.35-181.9,60.83-48-7-81.47-62.59-129.91-60.11-47.54,2.43-80.29,60.67-127.78,57.43-32.69-2.23-56.21-33.2-87.65-42.42-50.95-15-101.19,30.45-154.26,29.13-59.24-1.47-110-60.6-168.05-48.69-41.59,8.54-73,52.4-115.37,49.54-27.14-1.84-49.6-23-76.49-27.09-64.09-9.75-110.61,77.49-175.22,72.18-52.42-4.31-82.67-67-133.91-78.92-50.41-11.68-104.6,29.73-152.58,10.35-26.76-10.81-44.61-38.6-72.35-46.57-57.84-16.62-107.14,61-167,54.68-29.37-3.08-53.42-26.17-82.59-30.75-46.74-7.35-90.73,34.21-137.54,27.35-45.41-6.65-76.67-56.68-122.51-58.92-46.61-2.27-88.78,46.64-133.29,32.61-18.55-5.85-32-21.54-47.92-32.7a66.15,66.15,0,0,0-21-9.79V671.82Z"/></g><path class="cls-61" d="M0,745.61C60.84,710,123.92,786.7,156.12,849.4s109.42,131.79,160.79,83.52c32.46-30.5,22.5-87.33,50.94-121.61,38.63-46.57,119.44-17.77,152.11,33.15s37.64,114.68,62.48,169.85,87.51,104.55,142.36,79c17.51-8.15,31.21-22.88,41.84-39,39.62-60.11,39.94-137.84,68.87-203.77S952.77,731.39,1006,779.84c22.65,20.6,30.25,52.72,47,78.33,38.68,59,131.89,72,185.19,25.72,41.16-35.71,68.35-102.39,122.72-98.61,62.1,4.32,76.71,96.1,132.5,123.71,91,45,164.24-106.9,265.13-118,96.35-10.63,150.61,103,194,189.66a735,735,0,0,0,96.72,146.24c20.16,23.73,43.25,47.08,73.08,56,90.36,27,156.17-84.38,183.34-174.7S2393,805.07,2485,826c63.32,14.42,98.91,90.13,162.59,102.87,104,20.82,178.66-136.92,283.37-120,109.74,17.78,120.18,202.55,228.7,226.73,75.71,16.86,137.85-56.74,183.3-119.59s118.92-130.62,189.9-99.32c41.65,18.37,62.24,64.14,87.88,101.75s72.09,72.35,113.4,53.24c46.22-21.37,47.47-92.29,90.48-119.55,61.91-39.24,129,41.89,157.78,109.31Q4016.2,1040.76,4050,1120c11.41,26.73,23.76,54.71,47,72.22,51.4,38.81,129.68,4.81,165-49s42.62-120.62,60.88-182.38c26.3-88.93,81-173.73,164.15-214.8s196.34-26.84,252.06,47.29c38,50.57,70.75,133.95,131.65,116.81,41.69-11.73,52.63-63.87,72.18-102.53,13-25.72,33.1-46.1,57.07-62V21.52H0Z"/><g class="cls-62"><rect class="cls-63" y="1187.44" width="4999.99" height="22.11"/><rect class="cls-63" y="1165.03" width="4999.99" height="22.4"/><rect class="cls-64" y="1142.63" width="4999.99" height="22.4"/><rect class="cls-65" y="1120.22" width="4999.99" height="22.4"/><rect class="cls-66" y="1097.82" width="4999.99" height="22.4"/><rect class="cls-67" y="1075.42" width="4999.99" height="22.4"/><rect class="cls-68" y="1053.01" width="4999.99" height="22.4"/><rect class="cls-69" y="1030.61" width="4999.99" height="22.4"/><rect class="cls-70" y="1008.2" width="4999.99" height="22.4"/><rect class="cls-71" y="985.8" width="4999.99" height="22.4"/><rect class="cls-72" y="963.39" width="4999.99" height="22.4"/><rect class="cls-73" y="940.99" width="4999.99" height="22.4"/><rect class="cls-74" y="918.58" width="4999.99" height="22.4"/><rect class="cls-75" y="896.18" width="4999.99" height="22.4"/><rect class="cls-76" y="873.78" width="4999.99" height="22.4"/><rect class="cls-77" y="851.37" width="4999.99" height="22.4"/><rect class="cls-78" y="828.97" width="4999.99" height="22.4"/><rect class="cls-79" y="806.56" width="4999.99" height="22.4"/><rect class="cls-80" y="784.16" width="4999.99" height="22.4"/><rect class="cls-81" y="761.75" width="4999.99" height="22.4"/><rect class="cls-82" y="739.35" width="4999.99" height="22.4"/><rect class="cls-83" y="716.94" width="4999.99" height="22.4"/><rect class="cls-84" y="694.54" width="4999.99" height="22.4"/><rect class="cls-85" y="672.13" width="4999.99" height="22.4"/><rect class="cls-86" y="649.73" width="4999.99" height="22.4"/><rect class="cls-87" y="627.33" width="4999.99" height="22.4"/><rect class="cls-88" y="604.92" width="4999.99" height="22.4"/><rect class="cls-89" y="582.52" width="4999.99" height="22.4"/><rect class="cls-90" y="560.11" width="4999.99" height="22.4"/><rect class="cls-91" y="537.71" width="4999.99" height="22.4"/><rect class="cls-92" y="515.3" width="4999.99" height="22.4"/><rect class="cls-93" y="492.9" width="4999.99" height="22.4"/><rect class="cls-94" y="470.49" width="4999.99" height="22.4"/><rect class="cls-95" y="448.09" width="4999.99" height="22.4"/><rect class="cls-96" y="425.69" width="4999.99" height="22.4"/><rect class="cls-97" y="403.28" width="4999.99" height="22.4"/><rect class="cls-98" y="380.88" width="4999.99" height="22.4"/><rect class="cls-99" y="358.47" width="4999.99" height="22.4"/><rect class="cls-100" y="336.07" width="4999.99" height="22.4"/><rect class="cls-101" y="313.66" width="4999.99" height="22.4"/><rect class="cls-102" y="291.26" width="4999.99" height="22.4"/><rect class="cls-103" y="268.85" width="4999.99" height="22.4"/><rect class="cls-104" y="246.45" width="4999.99" height="22.4"/><rect class="cls-105" y="224.05" width="4999.99" height="22.4"/><rect class="cls-106" y="201.64" width="4999.99" height="22.4"/><rect class="cls-107" y="179.24" width="4999.99" height="22.4"/><rect class="cls-108" y="156.83" width="4999.99" height="22.4"/><rect class="cls-109" y="134.43" width="4999.99" height="22.4"/><rect class="cls-110" y="112.02" width="4999.99" height="22.4"/><rect class="cls-111" y="89.62" width="4999.99" height="22.4"/><rect class="cls-112" y="67.21" width="4999.99" height="22.4"/><rect class="cls-113" y="44.81" width="4999.99" height="22.4"/><rect class="cls-114" y="22.4" width="4999.99" height="22.4"/><rect class="cls-115" width="4999.99" height="22.4"/><path class="cls-115" d="M5000,0h0Z"/></g><path class="cls-116" d="M32.78,677.08a76,76,0,0,1,12.22,1c4,.64,8,1.55,12,2.58a145.2,145.2,0,0,1,23.16,8.51,156.07,156.07,0,0,1,21.56,12.24c1.71,1.17,3.43,2.33,5.09,3.58l5,3.76c3.2,2.65,6.39,5.3,9.41,8.14,1.53,1.41,3,2.84,4.47,4.34s2.93,2.94,4.34,4.45c2.73,3.13,5.54,6.17,8.05,9.47s5,6.6,7.34,10c1.18,1.7,2.24,3.47,3.35,5.21s2.19,3.49,3.16,5.31c8.06,14.36,14.13,29.76,17,45.8-1.17-1.69-2.23-3.41-3.35-5.1l-1.6-2.56c-.53-.85-1-1.71-1.62-2.53-1.13-1.67-2.2-3.35-3.29-5l-1.6-2.51-1.7-2.45-3.32-4.9c-1.1-1.64-2.29-3.21-3.43-4.81l-1.7-2.39c-.56-.81-1.12-1.6-1.73-2.37-1.19-1.55-2.39-3.09-3.54-4.66s-2.4-3.06-3.62-4.58-2.38-3.06-3.65-4.53c-2.56-2.91-5-5.94-7.62-8.74q-7.71-8.64-16.2-16.45T93.42,713q-9.14-7.1-18.91-13.44A281.39,281.39,0,0,0,32.78,677.08Z"/><path class="cls-116" d="M231.78,884.63A218.64,218.64,0,0,0,256,895.47c8.07,2.9,16.28,4.85,24.18,4.64a34.29,34.29,0,0,0,11.44-2.1,41.37,41.37,0,0,0,10.39-5.74c.77-.67,1.58-1.32,2.38-2a28.86,28.86,0,0,0,2.3-2.14c.74-.75,1.57-1.44,2.26-2.26l2.16-2.42a30.29,30.29,0,0,0,2.1-2.53c.69-.86,1.37-1.74,2.09-2.6,1.33-1.8,2.64-3.63,4.09-5.45-.45,2.24-.94,4.51-1.61,6.73-.37,1.09-.78,2.17-1.18,3.27a26.85,26.85,0,0,1-1.35,3.23l-1.6,3.16a11.9,11.9,0,0,1-.9,1.54l-1,1.5a44.73,44.73,0,0,1-4.44,5.74,39.44,39.44,0,0,1-12.11,8.72c-1.17.49-2.35,1-3.55,1.4l-3.68,1c-1.25.22-2.5.41-3.76.61s-2.51.19-3.76.28a48.28,48.28,0,0,1-7.44-.44,35.54,35.54,0,0,1-3.62-.65c-.6-.13-1.2-.24-1.79-.38l-1.75-.5a62.47,62.47,0,0,1-13.14-5.55,73.61,73.61,0,0,1-11.46-8c-1.76-1.5-3.45-3.07-5.06-4.73A47.87,47.87,0,0,1,231.78,884.63Z"/><path class="cls-116" d="M362.48,747.67a62,62,0,0,1,10.18-6.36,97.61,97.61,0,0,1,11.11-4.79,107.49,107.49,0,0,1,23.77-5.41,108.82,108.82,0,0,1,24.6.12c1,.12,2.06.18,3.07.36l3.05.53,3.05.53c1,.19,2,.45,3,.67l3,.72,1.5.37,1.48.44,5.92,1.81c3.84,1.46,7.72,2.85,11.43,4.63s7.32,3.69,10.92,5.63l5.19,3.26,2.58,1.64,2.47,1.79,4.91,3.61c1.57,1.28,3.11,2.6,4.66,3.9a143.18,143.18,0,0,1,30.78,36.64q-4.7-3.74-9.11-7.6c-1.56-1.21-3.07-2.45-4.59-3.67s-3-2.51-4.54-3.68l-4.63-3.52c-1.54-1.17-3-2.41-4.62-3.47-3.17-2.2-6.2-4.54-9.45-6.55-1.6-1-3.18-2.11-4.78-3.13l-4.89-2.92-2.43-1.46-2.5-1.34-5-2.68c-3.41-1.57-6.71-3.38-10.21-4.71-3.4-1.58-6.94-2.77-10.43-4.08a143,143,0,0,0-44-7.66A150,150,0,0,0,362.48,747.67Z"/><path class="cls-116" d="M625.43,1005.15l7.41,5.46c2.45,1.77,4.81,3.56,7.22,5.24,4.77,3.43,9.51,6.68,14.26,9.7,9.51,6,19.13,11,29,14.07,1.24.33,2.45.79,3.7,1.06l3.72.88c1.25.2,2.5.4,3.75.63a15.23,15.23,0,0,0,1.89.23c.63.06,1.26.12,1.89.2a32.2,32.2,0,0,0,3.81.22,30.74,30.74,0,0,0,3.84,0c1.28-.08,2.59,0,3.89-.16s2.6-.31,3.93-.42a14.89,14.89,0,0,0,2-.3l2-.36,2-.34c.67-.1,1.32-.32,2-.47,1.34-.34,2.69-.66,4.07-1s2.68-.85,4.06-1.26l2.09-.6c.7-.19,1.34-.51,2-.74,1.38-.49,2.76-1,4.19-1.48l1.07-.36c.34-.15.69-.3,1-.43l2.11-.85c1.43-.54,2.87-1.1,4.4-1.59-.83,1.33-1.73,2.6-2.65,3.88l-1.42,1.89c-.23.32-.48.63-.72.94l-.79.86a60,60,0,0,1-6.8,6.63c-1.24,1-2.49,2-3.78,3s-2.71,1.77-4.1,2.62c-.7.42-1.37.91-2.11,1.26l-2.22,1.08-2.24,1.07a19.25,19.25,0,0,1-2.3,1,60.29,60.29,0,0,1-40,1,74.54,74.54,0,0,1-18-8.47A83.78,83.78,0,0,1,644.83,1037a88.45,88.45,0,0,1-11.59-14.88,82.78,82.78,0,0,1-4.49-8.22A52.81,52.81,0,0,1,625.43,1005.15Z"/><path class="cls-116" d="M888.86,729.67a58.17,58.17,0,0,1,7.3-7.84,79.72,79.72,0,0,1,8.41-6.76,86,86,0,0,1,19.28-10.19,81.21,81.21,0,0,1,43.9-3.81c1.83.33,3.62.86,5.44,1.28a52,52,0,0,1,5.34,1.6,104.63,104.63,0,0,1,10.32,4.12l4.88,2.59c.8.44,1.64.83,2.41,1.32l2.32,1.48c1.53,1,3.09,2,4.59,3l4.35,3.31a119.25,119.25,0,0,1,28.34,32c-1.42-1.09-2.76-2.24-4.14-3.35l-4-3.42c-2.78-2.15-5.49-4.33-8.19-6.5l-4.19-3.06-2.07-1.54a23.48,23.48,0,0,0-2.1-1.49c-1.45-.94-2.86-1.9-4.27-2.85-.71-.48-1.41-1-2.12-1.42l-2.2-1.31-4.35-2.61c-1.48-.81-3-1.57-4.46-2.36l-2.23-1.18c-.75-.37-1.52-.69-2.28-1l-4.55-2.07c-3.13-1.11-6.16-2.47-9.36-3.3a47.3,47.3,0,0,0-4.75-1.34c-1.6-.36-3.19-.8-4.81-1.08a90.48,90.48,0,0,0-39.23,1.24,112.81,112.81,0,0,0-19.2,6.64A128.84,128.84,0,0,0,888.86,729.67Z"/><path class="cls-116" d="M1088.21,839.4c10.72,3.68,20.93,7.29,31.18,10.38A224,224,0,0,0,1150,857a143.31,143.31,0,0,0,15.27,1.44,114.45,114.45,0,0,0,15.25-.66c1.25-.21,2.53-.36,3.81-.53s2.51-.52,3.79-.74c.64-.13,1.3-.21,1.92-.38s1.25-.35,1.89-.5l1.91-.48,1-.24.94-.31a145,145,0,0,0,15.37-5.78c-.84,1.14-1.75,2.23-2.67,3.33-.47.55-.93,1.1-1.42,1.63s-1,1-1.55,1.48c-1,1-2.09,2-3.22,2.91s-2.31,1.73-3.49,2.61a61.1,61.1,0,0,1-15.81,7.73,73,73,0,0,1-17.45,3.22,89,89,0,0,1-17.59-.88,98.25,98.25,0,0,1-16.89-4.14,109.43,109.43,0,0,1-30.21-15.82A77.12,77.12,0,0,1,1088.21,839.4Z"/><path class="cls-116" d="M1313.86,750.3a45.86,45.86,0,0,1,6.58-4.81,64.22,64.22,0,0,1,7.24-3.85,70.32,70.32,0,0,1,15.77-5.07,66.33,66.33,0,0,1,33.43,1.94,70.9,70.9,0,0,1,28.32,17.66,85.37,85.37,0,0,1,18.22,27c-7.37-7.91-14.75-15.42-22.9-21.69a86.12,86.12,0,0,0-26.42-14.41,77.5,77.5,0,0,0-29.71-3.51,98.59,98.59,0,0,0-15.3,2.25A112.2,112.2,0,0,0,1313.86,750.3Z"/><path class="cls-116" d="M1678,760.19a101.75,101.75,0,0,1,12.54-9.89,145.82,145.82,0,0,1,13.76-8.28,154.35,154.35,0,0,1,30-12.08c20.88-6,43.57-7.3,65.3-2.7a142.65,142.65,0,0,1,16,4.44,136.32,136.32,0,0,1,42.63,24.52,156.73,156.73,0,0,1,22.44,23.29A161.53,161.53,0,0,1,1898,806.37c-14.77-15.2-29.89-29.45-46.76-40.76S1816,746,1796.58,741.92s-39.63-4-59.6-.52a216.87,216.87,0,0,0-29.78,7.37A242.72,242.72,0,0,0,1678,760.19Z"/><path class="cls-116" d="M2052.13,1069.32c6.11,6.07,12.18,11.8,18.42,17.21a234.45,234.45,0,0,0,19.1,15.1c1.63,1.16,3.27,2.28,4.94,3.35s3.3,2.17,5,3.17q5.05,3,10.23,5.63a105.77,105.77,0,0,0,21.3,8,94.32,94.32,0,0,0,45,.24c3.82-.81,7.61-1.94,11.44-3.1,1.89-.66,3.81-1.24,5.7-2l2.87-1,2.84-1.13c3.83-1.48,7.6-3.18,11.44-4.88l5.74-2.66c1.92-.91,3.83-1.86,5.83-2.72-1.31,1.71-2.69,3.37-4.1,5s-2.91,3.19-4.45,4.71a107.25,107.25,0,0,1-9.79,8.61,103.41,103.41,0,0,1-10.93,7.43c-1.92,1.1-3.87,2.2-5.88,3.17l-3,1.47c-1,.47-2.07.88-3.11,1.32l-1.56.64-1.6.58c-1.07.38-2.13.79-3.21,1.15-2.17.66-4.36,1.32-6.59,1.84a79.94,79.94,0,0,1-13.64,2.18,86.4,86.4,0,0,1-13.93-.08,88.28,88.28,0,0,1-13.72-2.38,93.86,93.86,0,0,1-25.29-10.66,102.86,102.86,0,0,1-11.1-7.7c-.89-.69-1.76-1.39-2.61-2.11s-1.72-1.41-2.54-2.17c-1.65-1.49-3.27-3-4.84-4.57a124.86,124.86,0,0,1-16.52-20.39,116.89,116.89,0,0,1-6.45-11.29A78.28,78.28,0,0,1,2052.13,1069.32Z"/><path class="cls-116" d="M2381.21,800.89a53.42,53.42,0,0,1,6-8.93,77.78,77.78,0,0,1,7.41-7.9,78.92,78.92,0,0,1,18.07-12.45,76.2,76.2,0,0,1,21.18-6.94,24,24,0,0,1,2.78-.43l2.79-.32c1.86-.26,3.74-.27,5.61-.36.94,0,1.87-.08,2.81-.08l2.8.12c1.87.09,3.75.12,5.59.38s3.71.44,5.54.75l5.47,1.11a25.31,25.31,0,0,1,2.69.7l2.66.77,2.66.77c.89.25,1.73.62,2.59.94l5.15,2c1.69.72,3.33,1.53,5,2.31,3.35,1.46,6.43,3.4,9.59,5.16l1.18.68,1.13.75,2.25,1.51c1.49,1,3,2,4.46,3,2.84,2.2,5.68,4.4,8.41,6.7s5.29,4.79,7.8,7.31,4.84,5.23,7.14,7.93c-12.33-7.08-24.25-14.15-36.74-19.55s-25.2-9.58-38.22-10.91c-1.62-.26-3.24-.3-4.87-.4l-2.44-.14c-.82,0-1.63,0-2.44,0a81.27,81.27,0,0,0-9.74.51,87,87,0,0,0-19.14,4.37A109.27,109.27,0,0,0,2381.21,800.89Z"/><path class="cls-116" d="M2859.61,776.68a67.24,67.24,0,0,1,8.7-7.26c1.53-1.13,3.13-2.14,4.72-3.19s3.25-2,4.93-2.89a104.55,104.55,0,0,1,21.24-8.82,98.37,98.37,0,0,1,23-3.79c2-.07,3.92,0,5.89-.05s3.92.21,5.89.31l1.47.1c.49,0,1,.13,1.46.2l2.93.41c1,.15,2,.25,2.92.44l2.9.61c1.92.43,3.85.82,5.73,1.44s3.79,1.08,5.64,1.75l5.49,2.16c.92.33,1.79.8,2.68,1.21l2.64,1.29,2.63,1.31,2.52,1.48c1.68,1,3.38,2,5,3a104.74,104.74,0,0,1,9.29,7,115.78,115.78,0,0,1,28.38,35.36c-2.84-2.5-5.55-5.06-8.23-7.6-1.42-1.21-2.8-2.43-4.19-3.64l-2.06-1.84-1-.91-1.08-.86-4.26-3.44-2.1-1.72-2.21-1.6c-1.47-1-2.91-2.13-4.35-3.2s-3-2-4.49-3-3-2-4.54-2.84l-4.6-2.67c-1.55-.84-3.17-1.56-4.73-2.38l-2.35-1.19-2.43-1a98.56,98.56,0,0,0-19.88-6.43l-2.55-.58c-.85-.18-1.72-.27-2.58-.42-1.72-.23-3.43-.6-5.17-.71s-3.46-.4-5.21-.48l-5.24-.21a121.29,121.29,0,0,0-21.11,1.61,150.93,150.93,0,0,0-21,5A169.6,169.6,0,0,0,2859.61,776.68Z"/><path class="cls-116" d="M3114.12,952.72a135.1,135.1,0,0,0,14.29,11,121.49,121.49,0,0,0,15.09,8.6,105.43,105.43,0,0,0,32.26,9.56,126.18,126.18,0,0,0,16.87.85,147,147,0,0,0,17.14-1.46c5.76-.72,11.51-2,17.35-3.16,2.9-.66,5.8-1.42,8.78-2.05s5.86-1.55,8.92-2.17A97,97,0,0,1,3212,991.2c-1.51.45-3,.94-4.55,1.34l-4.64,1c-.78.16-1.55.36-2.33.48l-2.37.35c-1.58.22-3.15.48-4.75.62a91.25,91.25,0,0,1-19.26-.27,80.84,80.84,0,0,1-35.78-13.68,77.87,77.87,0,0,1-14.15-12.63,70.89,70.89,0,0,1-5.68-7.49A46.37,46.37,0,0,1,3114.12,952.72Z"/><path class="cls-116" d="M3427.17,766.46a71.06,71.06,0,0,1,9.08-6.79,104.68,104.68,0,0,1,9.9-5.62,118,118,0,0,1,21.4-8.21,114.51,114.51,0,0,1,46.1-3.1c1.92.32,3.85.59,5.77,1l5.71,1.26c.95.21,1.88.5,2.82.78l2.8.83,2.79.84,2.73,1a109.58,109.58,0,0,1,20.81,10.24A116.42,116.42,0,0,1,3590,789.93c-1.59-1-3.1-2.14-4.64-3.21l-2.26-1.63c-.76-.54-1.48-1.11-2.28-1.6-1.56-1-3.08-2-4.62-3.07l-2.27-1.55c-.77-.49-1.57-1-2.35-1.43l-4.66-2.87c-1.54-1-3.18-1.77-4.75-2.67l-2.37-1.31-1.18-.67c-.39-.21-.81-.4-1.21-.6-1.62-.79-3.24-1.56-4.84-2.37s-3.27-1.47-4.9-2.19l-2.45-1.07-1.23-.54-1.25-.45c-1.68-.61-3.35-1.22-5-1.86s-3.38-1.07-5.06-1.62l-2.53-.8-2.57-.66-2.56-.66c-.85-.22-1.7-.46-2.58-.6l-5.18-1.08c-1.73-.31-3.48-.52-5.23-.8a147.16,147.16,0,0,0-42.47.42,184.93,184.93,0,0,0-21.26,4.49A193.62,193.62,0,0,0,3427.17,766.46Z"/><path class="cls-116" d="M3668.21,915.15a70.83,70.83,0,0,0,19.19,8.45,60.86,60.86,0,0,0,19.56,1.92,91.57,91.57,0,0,0,19.81-3.63c1.68-.44,3.32-1,5-1.51s3.34-1.13,5.05-1.68,3.39-1.2,5.13-1.78,3.46-1.23,5.28-1.77a56.82,56.82,0,0,1-17.52,14,54.41,54.41,0,0,1-22.2,6.33,45.23,45.23,0,0,1-23-4.6,41.43,41.43,0,0,1-9.53-6.65A30.34,30.34,0,0,1,3668.21,915.15Z"/><path class="cls-116" d="M3807.51,794.63a68,68,0,0,1,10.49-5.15,98.28,98.28,0,0,1,11.14-3.71,113,113,0,0,1,23.35-3.75,116.53,116.53,0,0,1,23.87,1.12c2,.33,3.95.71,5.92,1.08s3.91.93,5.87,1.39l1.46.37,1.44.45,2.88.91c1,.31,1.92.6,2.87.92l2.82,1.07c3.78,1.39,7.4,3.16,11,4.87,3.51,2,7.08,3.81,10.38,6.1,3.4,2.13,6.55,4.6,9.71,7,1.53,1.27,3,2.61,4.51,3.92l2.21,2c.73.67,1.4,1.4,2.1,2.1a120.1,120.1,0,0,1,26,38.75c-1.42-1.35-2.75-2.74-4.12-4.1s-2.62-2.78-4-4.11-2.74-2.65-4.09-4-2.64-2.68-4.08-3.9c-2.8-2.52-5.47-5.12-8.37-7.44-1.44-1.17-2.8-2.43-4.24-3.58s-2.95-2.22-4.38-3.36c-.73-.56-1.43-1.15-2.18-1.68l-2.26-1.56c-1.51-1-3-2.13-4.48-3.14-3.12-1.87-6.08-4-9.29-5.64a131,131,0,0,0-19.5-9.23l-2.51-1c-.84-.31-1.7-.57-2.55-.86-1.72-.54-3.4-1.2-5.14-1.64s-3.45-1-5.2-1.48-3.51-.81-5.26-1.26a162.88,162.88,0,0,0-21.58-3.18,178,178,0,0,0-22.19-.45A199,199,0,0,0,3807.51,794.63Z"/><path class="cls-116" d="M4086.9,1122.54c3.42,1.62,6.78,3.15,10.12,4.65s6.67,2.88,10,4.23c6.64,2.66,13.25,5,19.86,7,1.65.49,3.29,1,5,1.36s3.28.89,4.94,1.2,3.29.73,4.94,1l2.47.43c.81.17,1.63.27,2.46.36a93.92,93.92,0,0,0,19.48.83,88.66,88.66,0,0,0,18.92-3.41c6.25-1.7,12.21-4.55,18.2-7.63,1.44-.86,2.94-1.66,4.44-2.48a24.84,24.84,0,0,0,2.18-1.37c.71-.48,1.44-.93,2.17-1.4,3-1.78,5.75-3.94,8.66-6,1.51-1,2.84-2.15,4.27-3.25s2.84-2.24,4.32-3.34c2.81-2.32,5.6-4.73,8.68-7a109.64,109.64,0,0,1-4.58,10.37c-.92,1.65-1.89,3.27-2.86,4.92a53.89,53.89,0,0,1-3.11,4.8l-3.46,4.61a20.75,20.75,0,0,1-1.84,2.23l-2,2.15c-.66.71-1.31,1.44-2,2.14s-1.32,1.44-2.07,2.07c-1.46,1.3-2.92,2.62-4.43,3.89a54.18,54.18,0,0,1-4.74,3.6,50.77,50.77,0,0,1-5,3.28c-1.74,1-3.49,2-5.27,3s-3.7,1.65-5.56,2.45a78.5,78.5,0,0,1-23.77,5.37,81.4,81.4,0,0,1-24-2.11c-2-.37-3.85-1-5.76-1.55s-3.74-1.25-5.59-1.92-3.66-1.42-5.44-2.22-3.53-1.66-5.25-2.54a103.59,103.59,0,0,1-19.08-12.83,102,102,0,0,1-8.22-7.88A64.61,64.61,0,0,1,4086.9,1122.54Z"/><path class="cls-116" d="M4467.25,696a131.77,131.77,0,0,1,14.44-10c2.49-1.56,5.06-3,7.62-4.4s5.19-2.77,7.83-4a222.07,222.07,0,0,1,32.89-13,216.7,216.7,0,0,1,70.44-9.31l8.94.62,2.24.16c.74.06,1.48.17,2.22.26l4.45.54,4.44.59c1.48.22,2.94.53,4.41.79l4.41.82c1.46.3,2.94.51,4.39.91l8.68,2.21,2.16.55,2.13.69,4.26,1.38c5.72,1.69,11.18,4.12,16.7,6.3,2.72,1.2,5.37,2.55,8.05,3.83l4,1.94c1.32.68,2.59,1.46,3.88,2.18l7.68,4.42c2.49,1.59,4.93,3.27,7.37,4.9A173.77,173.77,0,0,1,4714.94,699c2.34,1.75,4.41,3.86,6.58,5.81s4.27,4,6.34,6c-20-12-40.51-22.23-61.92-29.46a264.23,264.23,0,0,0-32.65-8.4c-2.75-.5-5.53-.87-8.3-1.33-1.38-.2-2.76-.46-4.15-.62l-4.18-.43-4.17-.46c-.7-.08-1.39-.17-2.09-.23l-2.1-.13-8.39-.5a279.7,279.7,0,0,0-67.15,5.94A339.4,339.4,0,0,0,4499.7,684c-5.48,1.7-10.91,3.58-16.32,5.58-1.36.49-2.7,1-4.05,1.53s-2.7,1-4,1.58C4472.58,693.69,4469.93,694.85,4467.25,696Z"/><path class="cls-116" d="M4805.34,835.32a123.84,123.84,0,0,0,17.73,15,62.58,62.58,0,0,0,19.23,9,55.61,55.61,0,0,0,10.34,1.78c.44,0,.89.1,1.33.13l1.34,0c.89,0,1.79.11,2.7.1,1.8-.07,3.64,0,5.48-.18.92-.09,1.86-.07,2.79-.18s1.87-.22,2.82-.3l1.42-.13c.47-.08.94-.16,1.42-.22l2.88-.4c1.93-.27,3.85-.67,5.86-.93s4-.74,6-1a51.39,51.39,0,0,1-21.56,12.44,47.68,47.68,0,0,1-12.82,2,45.11,45.11,0,0,1-13.15-1.56,46.8,46.8,0,0,1-12.2-5.22,48,48,0,0,1-10.1-8.23,50.33,50.33,0,0,1-7.4-10.35,45.17,45.17,0,0,1-2.57-5.73A30.72,30.72,0,0,1,4805.34,835.32Z"/><g class="cls-58"><path class="cls-117" d="M5000,0V373.86C4880.17,337,4897.22,491.15,4845.32,503.28c-41.73,9.75-85.1,19.53-127,10.58-50.5-10.78-92.84-47.62-143.75-56.29-129-22-234.34,140.7-363.8,121.67-96-14.11-162.93-125.18-259.81-120.23-95.08,4.86-160.59,121.35-255.57,114.87C3630,569.41,3583,507.48,3520.09,489c-101.89-29.91-202.37,60.91-308.52,58.27-118.47-2.94-220-121.21-336.1-97.38-83.18,17.08-146,104.8-230.73,99.07-54.28-3.67-99.19-46-153-54.18-128.17-19.5-221.22,155-350.43,144.36C2036.48,630.56,1976,505.11,1873.5,481.34,1772.69,458,1664.3,540.79,1568.35,502c-53.52-21.62-89.23-77.2-144.7-93.14-115.69-33.24-214.29,122-334,109.37-58.74-6.17-106.83-52.34-165.18-61.51C831,442.05,743,525.18,649.41,511.46c-90.82-13.31-153.34-113.37-245-117.84-93.22-4.55-177.57,93.28-266.59,65.21-37.1-11.7-64-43.08-95.84-65.4A132.33,132.33,0,0,0,0,373.86V0Z"/></g></svg>